<?xml version="1.0" standalone="no"?>
<!DOCTYPE svg PUBLIC "-//W3C//DTD SVG 20010904//EN"
 "http://www.w3.org/TR/2001/REC-SVG-20010904/DTD/svg10.dtd">
<svg version="1.0" xmlns="http://www.w3.org/2000/svg"
 width="626.000000pt" height="626.000000pt" viewBox="0 0 626.000000 626.000000"
 preserveAspectRatio="xMidYMid meet">

<g transform="translate(0.000000,626.000000) scale(0.100000,-0.100000)"
fill="#000000" stroke="none">
<path d="M4232 5148 c-7 -7 -12 -17 -12 -22 1 -16 455 -346 477 -346 31 0 233
54 233 63 0 4 -6 10 -14 13 -8 3 -12 13 -9 25 6 21 -12 49 -32 49 -19 0 -25
-36 -9 -59 13 -18 11 -20 -42 -36 -63 -18 -84 -10 -84 31 0 17 8 28 27 35 25
9 6 20 -246 135 -151 68 -275 124 -275 124 -1 0 -7 -5 -14 -12z"/>
<path d="M3610 5090 c0 -5 5 -10 11 -10 5 0 7 5 4 10 -3 6 -8 10 -11 10 -2 0
-4 -4 -4 -10z"/>
<path d="M3609 5059 c-11 -7 -9 -9 9 -9 31 0 64 -19 56 -31 -3 -6 -16 -8 -28
-5 -13 3 -31 -1 -42 -10 -10 -8 -14 -13 -7 -10 15 8 28 -13 26 -44 -1 -15 0
-18 3 -7 3 10 15 17 29 17 13 0 26 4 29 9 4 5 -4 7 -16 3 -21 -5 -21 -5 -2 20
16 22 20 24 26 10 5 -13 7 -12 7 6 1 12 -4 22 -9 22 -6 0 -15 10 -20 23 -5 12
-9 16 -9 9 -1 -9 -6 -10 -19 -3 -11 6 -24 6 -33 0z m45 -70 c-8 -14 -24 -10
-24 6 0 9 6 12 15 9 8 -4 12 -10 9 -15z"/>
<path d="M5293 5003 c-7 -2 -13 -9 -13 -15 0 -12 70 -1 85 13 9 9 -50 12 -72
2z"/>
<path d="M5220 4970 c0 -5 7 -10 15 -10 8 0 15 5 15 10 0 6 -7 10 -15 10 -8 0
-15 -4 -15 -10z"/>
<path d="M5170 4960 c0 -5 5 -10 10 -10 6 0 10 5 10 10 0 6 -4 10 -10 10 -5 0
-10 -4 -10 -10z"/>
<path d="M5120 4940 c0 -5 5 -10 10 -10 6 0 10 5 10 10 0 6 -4 10 -10 10 -5 0
-10 -4 -10 -10z"/>
<path d="M5060 4930 c0 -5 5 -10 10 -10 6 0 10 5 10 10 0 6 -4 10 -10 10 -5 0
-10 -4 -10 -10z"/>
<path d="M5010 4910 c0 -5 5 -10 10 -10 6 0 10 5 10 10 0 6 -4 10 -10 10 -5 0
-10 -4 -10 -10z"/>
<path d="M3468 4873 c19 -8 14 -23 -9 -23 -11 0 -17 5 -14 10 3 6 4 10 1 10
-3 0 -10 -8 -15 -19 -10 -18 -8 -18 31 -9 55 12 72 5 64 -28 -7 -25 -6 -25 9
-10 14 14 15 19 4 32 -14 16 -63 45 -76 43 -4 0 -2 -3 5 -6z"/>
<path d="M4120 4860 c0 -12 9 -39 20 -60 23 -45 20 -46 -40 -25 -83 29 -91 20
-30 -35 78 -71 76 -71 150 -48 60 19 63 21 40 31 -23 9 -20 11 44 32 l68 22
-44 11 c-24 6 -72 29 -106 52 -70 45 -102 51 -102 20z"/>
<path d="M3495 4830 c3 -5 10 -10 16 -10 5 0 9 5 9 10 0 6 -7 10 -16 10 -8 0
-12 -4 -9 -10z"/>
<path d="M1315 4792 c-32 -15 -36 -20 -22 -25 10 -4 16 -3 13 2 -5 8 47 27 94
34 18 3 15 5 -10 5 -19 1 -53 -7 -75 -16z"/>
<path d="M3536 4778 c-15 -17 -16 -22 -5 -29 8 -5 17 -9 20 -9 12 0 42 40 35
47 -7 7 -20 -8 -29 -32 -3 -5 -8 -7 -12 -3 -4 4 -2 14 5 23 7 9 11 17 8 20 -2
2 -12 -5 -22 -17z"/>
<path d="M1418 4778 c8 -8 17 -8 34 0 22 10 21 11 -11 11 -27 1 -32 -2 -23
-11z"/>
<path d="M1342 4764 c-10 -11 -10 -14 0 -14 9 0 9 -3 -2 -10 -8 -5 -10 -10 -4
-10 17 0 34 24 26 37 -5 7 -11 7 -20 -3z"/>
<path d="M1470 4769 c-13 -7 -12 -9 3 -9 9 0 17 -4 17 -9 0 -14 29 -21 36 -9
4 6 3 8 -4 4 -6 -3 -17 2 -24 13 -10 14 -18 17 -28 10z"/>
<path d="M1255 4750 c-3 -5 -2 -10 4 -10 6 0 8 -6 5 -14 -3 -8 1 -27 10 -43
10 -19 15 -22 16 -11 0 9 -4 20 -10 23 -5 3 -10 13 -10 20 0 12 4 12 19 -2 11
-9 18 -20 15 -25 -3 -4 -2 -8 3 -8 12 1 43 26 43 36 0 4 -5 3 -12 -4 -19 -19
-29 -14 -22 13 4 16 2 25 -6 25 -6 0 -8 -4 -5 -10 10 -16 -12 -12 -29 5 -9 9
-17 11 -21 5z"/>
<path d="M1376 4739 c-11 -10 -17 -22 -14 -25 7 -6 48 26 48 38 0 13 -14 8
-34 -13z"/>
<path d="M3397 4749 c7 -7 15 -10 18 -7 3 3 -2 9 -12 12 -14 6 -15 5 -6 -5z"/>
<path d="M5005 4755 c-5 -2 -56 -15 -113 -30 -56 -15 -101 -32 -100 -37 6 -16
222 -208 236 -208 7 0 15 7 18 15 8 21 -18 146 -31 152 -7 2 -23 -1 -37 -6
-21 -8 -29 -6 -43 9 -27 30 -15 52 38 69 26 8 47 20 47 28 0 7 -1 13 -2 12 -2
0 -7 -2 -13 -4z"/>
<path d="M1450 4743 c8 -4 21 -13 28 -22 11 -14 11 -13 2 7 -6 12 -18 22 -28
21 -14 0 -14 -2 -2 -6z"/>
<path d="M3520 4720 c0 -19 3 -21 12 -12 9 9 9 15 0 24 -9 9 -12 7 -12 -12z"/>
<path d="M3603 4718 c1 -15 6 -26 11 -25 22 5 15 -24 -9 -33 -35 -13 -62 -47
-70 -87 -4 -24 -11 -33 -25 -33 -11 0 -30 -10 -41 -21 -30 -30 -21 -85 22
-139 30 -37 35 -39 46 -25 11 16 36 21 78 13 18 -3 20 3 23 49 3 49 5 53 47
77 41 24 45 25 79 11 73 -31 147 -13 160 39 8 32 -9 77 -32 83 -10 2 -26 18
-37 34 -36 53 -115 59 -158 12 -11 -13 -26 -19 -41 -16 -18 4 -22 11 -21 33 1
16 -2 27 -6 24 -4 -2 -12 3 -17 13 -9 14 -10 13 -9 -9z"/>
<path d="M1530 4723 c0 -6 6 -13 12 -15 9 -3 8 -9 -5 -22 -9 -10 -17 -12 -17
-6 0 7 -8 9 -19 5 -11 -3 -22 -1 -26 5 -3 5 -12 10 -18 10 -7 0 -4 -5 6 -11
12 -7 17 -24 19 -62 l1 -52 6 45 c4 34 10 45 23 45 10 0 25 8 35 18 16 16 16
18 0 34 -9 10 -17 12 -17 6z"/>
<path d="M3314 4703 c-4 -14 -2 -29 4 -35 13 -13 42 -3 41 14 0 10 -2 10 -6 1
-8 -22 -33 -14 -33 10 0 16 3 18 9 9 7 -11 10 -10 15 3 8 22 8 22 -9 22 -9 0
-18 -11 -21 -24z"/>
<path d="M5032 4703 c3 -31 32 -43 41 -18 9 23 -3 45 -25 45 -15 0 -19 -6 -16
-27z"/>
<path d="M1241 4700 c-2 -14 -6 -51 -10 -83 -4 -32 -4 -60 1 -63 4 -3 8 20 8
50 0 53 13 76 23 39 4 -14 5 -12 6 5 0 12 -3 22 -8 22 -5 0 -12 12 -14 28 -4
26 -4 26 -6 2z"/>
<path d="M1410 4710 c20 -13 33 -13 25 0 -3 6 -14 10 -23 10 -15 0 -15 -2 -2
-10z"/>
<path d="M3480 4710 c0 -5 7 -7 15 -4 8 4 15 8 15 10 0 2 -7 4 -15 4 -8 0 -15
-4 -15 -10z"/>
<path d="M3252 4650 c-13 -17 -18 -31 -12 -35 5 -3 10 -11 10 -17 0 -6 -7 -5
-17 3 -15 11 -16 11 -6 -1 18 -20 49 -20 49 1 0 11 -6 15 -15 11 -11 -4 -13
-1 -8 12 4 10 7 20 7 22 0 3 4 3 8 0 4 -2 9 4 9 15 2 24 3 24 -25 -11z"/>
<path d="M3550 4653 c0 -29 2 -29 19 5 10 18 9 22 -4 22 -10 0 -15 -9 -15 -27z"/>
<path d="M1201 4609 c0 -30 4 -63 9 -74 5 -12 6 8 3 50 -7 85 -13 98 -12 24z"/>
<path d="M1552 4630 c0 -19 2 -27 5 -17 2 9 2 25 0 35 -3 9 -5 1 -5 -18z"/>
<path d="M3525 4650 c3 -5 8 -10 11 -10 2 0 4 5 4 10 0 6 -5 10 -11 10 -5 0
-7 -4 -4 -10z"/>
<path d="M1503 4610 c0 -25 2 -35 4 -22 2 12 2 32 0 45 -2 12 -4 2 -4 -23z"/>
<path d="M1573 4600 c0 -25 2 -35 4 -22 2 12 2 32 0 45 -2 12 -4 2 -4 -23z"/>
<path d="M4200 4630 c0 -3 16 -21 35 -40 39 -38 61 -32 50 13 -6 21 -14 26
-46 29 -21 2 -39 1 -39 -2z"/>
<path d="M1288 4600 c2 -16 6 -30 8 -30 2 0 4 14 4 30 0 17 -4 30 -8 30 -5 0
-7 -13 -4 -30z"/>
<path d="M1529 4603 c-3 -18 -2 -30 3 -27 4 3 8 -5 9 -18 0 -13 3 -18 5 -12 2
6 1 28 -4 50 l-8 39 -5 -32z"/>
<path d="M2570 4563 c-173 -57 -186 -73 -183 -223 2 -85 0 -110 -12 -120 -15
-13 -20 -56 -9 -84 5 -13 22 -16 80 -16 69 0 74 2 74 21 0 18 4 20 23 14 12
-4 42 -9 67 -11 40 -4 42 -3 20 7 -14 6 -35 16 -47 22 -13 5 -33 25 -45 44
-13 18 -29 33 -35 33 -17 0 -53 36 -53 53 1 28 19 41 56 39 39 -3 54 9 54 44
0 13 12 26 34 37 19 9 37 25 41 36 10 31 30 31 66 1 33 -28 34 -29 14 -44 -19
-15 -19 -15 12 -16 45 0 66 -25 59 -69 -3 -20 -8 -52 -11 -71 -8 -50 -31 -80
-76 -99 -53 -22 -51 -41 4 -41 38 0 46 -4 57 -27 35 -75 21 -138 -67 -300 -52
-96 -51 -97 -68 10 -4 22 -11 37 -20 37 -7 0 -15 4 -17 9 -1 5 -64 10 -138 12
-74 2 -138 8 -141 13 -4 4 -10 3 -13 -3 -4 -6 -2 -11 4 -11 8 0 10 -46 9 -155
l-3 -155 -36 -11 c-33 -10 -41 -8 -78 15 -32 20 -55 26 -97 26 -30 0 -55 -4
-55 -10 0 -10 15 -14 34 -11 20 4 86 -11 81 -19 -3 -4 3 -7 12 -6 9 0 18 -4
20 -11 3 -8 -7 -9 -37 -2 -22 5 -60 8 -85 7 -39 -3 -43 -5 -28 -15 16 -12 15
-13 -3 -14 -12 0 -14 -3 -6 -6 8 -3 24 0 36 7 13 6 34 10 47 8 19 -4 14 -7
-23 -17 -27 -8 -48 -17 -48 -22 0 -12 17 -11 80 5 30 8 59 12 63 9 5 -3 13 1
18 8 4 7 11 10 15 6 4 -3 2 -13 -4 -20 -9 -11 -7 -13 11 -12 32 3 47 -5 48
-24 0 -10 2 -12 6 -3 3 7 0 19 -7 27 -9 10 -7 16 7 24 10 6 13 11 8 11 -6 0
-20 -6 -31 -14 -18 -13 -20 -12 -21 4 -2 20 26 31 57 23 23 -6 27 -33 6 -33
-12 0 -12 -4 0 -30 16 -31 35 -130 28 -142 -2 -4 1 -10 7 -14 8 -5 9 -3 4 6
-5 8 -4 11 3 6 6 -4 8 -14 5 -23 -4 -10 -2 -14 5 -9 20 12 23 -14 5 -44 -12
-21 -25 -30 -44 -30 -30 0 -45 -16 -82 -84 l-27 -49 40 6 c22 3 40 2 40 -1 0
-4 -7 -32 -15 -62 -22 -83 -21 -87 25 -92 l40 -4 6 48 c4 27 11 51 17 55 12 7
8 -61 -29 -442 -28 -290 -32 -307 -87 -330 -26 -11 -130 -22 -219 -25 -13 0
-18 -8 -18 -26 0 -23 -3 -25 -27 -20 -16 3 -47 8 -70 11 -23 4 -59 15 -80 26
-20 10 -52 19 -69 19 -23 0 -39 8 -53 26 -30 38 -61 29 -88 -26 -54 -110 -54
-187 -1 -239 39 -38 153 -99 318 -170 157 -67 238 -77 310 -39 68 37 103 90
130 199 13 52 25 89 27 82 2 -6 -26 -204 -62 -440 -37 -235 -75 -479 -84 -540
l-18 -113 173 0 173 0 12 43 c6 23 20 64 31 91 11 27 17 58 14 69 -3 12 8 73
24 137 61 244 152 751 256 1430 30 198 29 262 -8 380 l-24 75 -59 3 c-67 3
-102 16 -111 44 -3 10 -10 16 -15 13 -5 -3 -6 0 -3 8 3 9 -6 19 -25 27 -25 10
-39 10 -75 -1 -40 -12 -43 -14 -28 -27 16 -13 16 -13 0 -8 -10 3 -18 1 -18 -4
0 -24 -41 -50 -78 -50 -21 0 -41 3 -44 6 -5 5 92 194 114 221 5 7 8 16 5 20
-3 4 24 9 60 10 36 1 67 3 68 5 2 2 1 15 -2 29 -4 24 -8 26 -36 19 -86 -22
-130 -30 -155 -30 -31 0 -78 -32 -68 -48 3 -5 16 -8 27 -5 24 7 25 8 -16 -67
-26 -48 -30 -52 -32 -30 -12 102 -14 109 -29 103 -9 -3 -19 7 -29 31 -23 54
-19 64 35 87 28 12 50 27 50 34 0 7 12 21 28 30 15 10 41 33 58 51 31 34 64
45 64 22 0 -6 -7 -20 -17 -30 -28 -31 -7 -32 52 -3 31 15 62 25 69 22 13 -5
67 93 121 217 l25 59 32 -29 c18 -16 27 -22 20 -13 -7 9 -10 25 -6 35 5 15 4
16 -5 4 -16 -23 -23 -6 -30 67 -4 39 -15 82 -26 100 -19 32 -19 32 4 50 35 29
40 101 11 150 -19 30 -24 54 -25 118 -1 90 -13 117 -61 140 -42 20 -74 18
-164 -12z m-264 -1604 c3 -6 2 -15 -2 -19 -12 -12 -38 5 -30 19 9 14 23 14 32
0z"/>
<path d="M3450 4580 c-5 -26 -7 -72 -3 -60 3 8 10 18 16 21 6 4 5 13 -2 25 -6
11 -11 17 -11 14z"/>
<path d="M3483 4565 c0 -8 6 -15 13 -15 8 0 11 6 8 15 -4 8 -9 15 -13 15 -4 0
-8 -7 -8 -15z"/>
<path d="M1260 4546 c0 -42 56 -64 68 -26 5 13 3 13 -11 1 -14 -11 -17 -11
-17 0 0 11 -3 11 -11 -1 -9 -13 -10 -12 -5 3 6 20 -2 47 -15 47 -5 0 -9 -11
-9 -24z"/>
<path d="M1475 4549 c14 -45 22 -53 28 -30 3 12 1 19 -4 15 -5 -3 -9 2 -9 10
0 8 -5 18 -11 22 -8 4 -9 -1 -4 -17z"/>
<path d="M3174 4556 c-8 -20 -1 -47 11 -47 5 0 11 5 13 13 2 9 0 8 -8 -2 -9
-12 -10 -8 -5 18 7 32 -1 44 -11 18z"/>
<path d="M1241 4520 c0 -14 4 -32 9 -40 9 -13 10 -13 9 0 -1 8 -5 26 -9 40
l-8 25 -1 -25z"/>
<path d="M1455 4530 c-3 -5 -1 -10 4 -10 6 0 11 5 11 10 0 6 -2 10 -4 10 -3 0
-8 -4 -11 -10z"/>
<path d="M1360 4509 c0 -5 5 -7 10 -4 6 3 10 8 10 11 0 2 -4 4 -10 4 -5 0 -10
-5 -10 -11z"/>
<path d="M3124 4505 c-18 -14 -18 -14 4 -8 12 3 22 9 22 14 0 12 -3 11 -26 -6z"/>
<path d="M1620 4497 c0 -1 7 -35 15 -76 19 -88 40 -122 75 -118 23 2 25 5 23
49 -2 41 1 49 28 72 17 14 39 26 49 26 9 0 23 6 29 14 9 11 7 15 -11 20 -22 7
-208 19 -208 13z"/>
<path d="M3405 4490 c-3 -5 1 -10 9 -10 9 0 16 5 16 10 0 6 -4 10 -9 10 -6 0
-13 -4 -16 -10z"/>
<path d="M1230 4475 c0 -5 5 -17 10 -25 5 -8 10 -10 10 -5 0 6 -5 17 -10 25
-5 8 -10 11 -10 5z"/>
<path d="M3089 4463 c-12 -16 -12 -17 2 -6 9 7 19 10 22 6 4 -3 7 -1 7 5 0 17
-16 15 -31 -5z"/>
<path d="M3366 4449 c-7 -17 8 -68 16 -53 2 5 1 23 -2 39 -5 22 -9 26 -14 14z"/>
<path d="M3095 4441 c-6 -11 9 -23 19 -14 9 9 7 23 -3 23 -6 0 -12 -4 -16 -9z"/>
<path d="M1533 4433 c-7 -3 -13 -11 -13 -20 0 -8 -9 -28 -20 -44 l-21 -28 26
-7 c14 -3 32 -3 41 0 15 6 15 8 1 30 -19 28 -14 36 27 37 31 0 31 0 6 10 -13
6 -27 14 -30 18 -3 4 -11 6 -17 4z"/>
<path d="M3034 4403 c-28 -33 -30 -38 -15 -54 11 -14 17 -15 23 -6 12 19 9 30
-7 23 -24 -9 -18 5 17 41 18 18 28 33 22 33 -5 -1 -23 -17 -40 -37z"/>
<path d="M3441 4433 c0 -6 -4 -20 -7 -30 -5 -14 -4 -15 5 -7 7 7 11 20 8 30
-3 11 -5 14 -6 7z"/>
<path d="M3800 4430 c-11 -7 -7 -10 18 -10 17 0 32 5 32 10 0 13 -30 13 -50 0z"/>
<path d="M3675 4421 c-8 -14 7 -20 37 -14 15 3 25 9 22 14 -7 12 -51 12 -59 0z"/>
<path d="M1306 4399 c-10 -10 -23 -16 -29 -12 -6 3 -7 2 -4 -4 3 -5 -14 -30
-39 -54 -70 -67 -131 -150 -169 -230 -38 -80 -38 -107 0 -149 13 -14 30 -43
39 -64 9 -22 19 -36 23 -32 4 3 1 12 -5 18 -14 14 -16 58 -3 58 11 0 51 -66
51 -84 0 -20 38 -41 97 -55 29 -7 64 -22 77 -32 13 -10 38 -19 55 -19 26 0 31
-4 31 -24 0 -13 -8 -38 -17 -55 l-18 -30 33 -30 c17 -17 32 -36 32 -43 0 -8
13 -19 29 -25 34 -12 45 -42 60 -163 14 -107 28 -177 40 -197 9 -16 11 -15 12
7 7 96 14 130 31 149 8 9 17 25 21 34 3 9 11 17 18 17 19 0 48 44 49 73 0 20
11 38 35 60 29 26 35 37 35 72 0 22 5 46 11 52 18 18 3 31 -44 38 -50 8 -107
32 -107 45 0 6 -11 10 -25 10 -13 0 -32 8 -42 19 -26 27 -121 35 -136 11 -6
-10 -15 -17 -21 -15 -6 2 -23 6 -38 9 -16 4 -28 13 -28 20 0 8 -10 16 -21 19
-15 4 -20 11 -16 21 7 18 -4 21 -20 5 -6 -6 -21 -9 -34 -7 -19 2 -25 10 -27
38 -2 19 3 43 10 52 14 18 108 36 108 21 0 -5 7 -18 15 -29 14 -18 15 -16 9
21 -4 31 -2 44 11 55 9 7 22 28 30 47 8 18 20 33 28 33 8 0 17 9 20 20 3 13
14 20 30 20 14 0 29 5 32 10 8 14 -17 38 -34 32 -8 -3 -12 2 -9 14 2 11 13 20
28 22 14 2 30 8 37 14 17 14 32 1 26 -22 -3 -12 0 -20 7 -20 18 0 5 59 -19 85
-10 11 -21 29 -26 40 -5 13 -9 15 -12 8 -8 -23 -33 -14 -33 11 0 24 -32 46
-38 27 -2 -6 -7 -9 -12 -6 -4 3 -6 -4 -3 -15 8 -29 -5 -56 -19 -42 -7 7 -17
12 -22 12 -6 0 -5 -4 2 -8 10 -7 10 -14 -2 -36 -14 -28 -31 -21 -20 8 8 21 -6
20 -22 -1 -11 -15 -15 -16 -26 -4 -11 12 -10 13 4 8 14 -5 17 0 15 23 -1 15
-5 26 -8 24 -9 -5 -23 27 -20 45 1 8 -2 10 -9 6 -9 -6 -9 -2 -1 13 7 12 7 23
2 27 -5 3 -11 -3 -14 -12 -4 -17 -4 -17 -12 0 -5 12 0 23 16 36 13 11 22 21
19 24 -3 2 -14 -4 -24 -14z"/>
<path d="M3807 4404 c-8 -8 1 -24 14 -24 5 0 9 7 9 15 0 15 -12 20 -23 9z"/>
<path d="M2595 4390 c3 -5 17 -10 30 -10 13 0 27 5 30 10 4 6 -8 10 -30 10
-22 0 -34 -4 -30 -10z"/>
<path d="M3395 4390 c-3 -5 1 -10 10 -10 9 0 13 5 10 10 -3 6 -8 10 -10 10 -2
0 -7 -4 -10 -10z"/>
<path d="M3426 4365 c-22 -19 -37 -37 -35 -40 3 -2 23 13 44 35 48 49 43 52
-9 5z"/>
<path d="M1340 4362 c0 -18 5 -32 10 -32 6 0 8 11 4 28 -10 39 -14 40 -14 4z"/>
<path d="M2045 4359 c-9 -38 -3 -44 45 -44 52 0 59 10 25 37 -49 39 -63 41
-70 7z"/>
<path d="M3700 4374 c0 -9 5 -14 12 -12 18 6 21 28 4 28 -9 0 -16 -7 -16 -16z"/>
<path d="M1460 4369 c0 -5 5 -7 10 -4 6 3 10 8 10 11 0 2 -4 4 -10 4 -5 0 -10
-5 -10 -11z"/>
<path d="M2749 4366 c9 -11 8 -14 -6 -12 -10 0 -18 -6 -18 -14 0 -9 7 -14 18
-12 9 2 17 -3 17 -10 0 -8 5 -6 11 4 11 20 -4 58 -23 58 -7 0 -7 -4 1 -14z"/>
<path d="M3072 4368 c6 -18 28 -21 28 -4 0 9 -7 16 -16 16 -9 0 -14 -5 -12
-12z"/>
<path d="M3380 4360 c0 -5 5 -10 11 -10 5 0 7 5 4 10 -3 6 -8 10 -11 10 -2 0
-4 -4 -4 -10z"/>
<path d="M3796 4357 c3 -10 9 -15 12 -12 3 3 0 11 -7 18 -10 9 -11 8 -5 -6z"/>
<path d="M3180 4349 c0 -5 5 -7 10 -4 6 3 10 8 10 11 0 2 -4 4 -10 4 -5 0 -10
-5 -10 -11z"/>
<path d="M2974 4328 c-11 -13 -28 -34 -39 -48 l-20 -25 24 20 c24 19 24 20 17
1 -6 -18 -5 -19 11 -4 10 8 24 13 31 11 6 -3 12 0 12 5 0 6 3 17 6 26 3 9 1
16 -5 16 -6 0 -11 -7 -11 -15 0 -8 -4 -15 -10 -15 -13 0 -13 6 0 31 14 25 8
24 -16 -3z m1 -28 c3 -5 1 -10 -4 -10 -6 0 -11 5 -11 10 0 6 2 10 4 10 3 0 8
-4 11 -10z"/>
<path d="M3580 4327 c0 -17 2 -19 9 -8 8 12 12 12 25 2 9 -8 16 -9 16 -4 0 5
-11 15 -25 21 -23 10 -25 9 -25 -11z"/>
<path d="M2625 4329 c-10 -15 1 -23 20 -15 9 3 13 10 10 16 -8 13 -22 13 -30
-1z"/>
<path d="M3336 4325 c7 -18 -7 -20 -25 -2 -11 10 -13 9 -9 -3 3 -9 16 -15 31
-15 15 1 27 -3 27 -7 0 -4 -4 -8 -10 -8 -5 0 -15 -10 -21 -22 -10 -20 -8 -19
19 5 30 28 30 29 11 48 -23 23 -30 24 -23 4z"/>
<path d="M1347 4313 c-4 -3 -7 -11 -7 -17 0 -6 5 -5 12 2 6 6 9 14 7 17 -3 3
-9 2 -12 -2z"/>
<path d="M2483 4305 c0 -8 5 -11 10 -8 5 3 13 -1 18 -8 4 -7 11 -11 14 -7 6 6
-22 38 -34 38 -4 0 -8 -7 -8 -15z"/>
<path d="M3736 4313 c-7 -7 3 -54 14 -66 20 -22 81 36 66 62 -6 9 -71 13 -80
4z"/>
<path d="M2127 4263 c-36 -3 -51 -10 -62 -27 -9 -13 -26 -28 -40 -34 -28 -13
-34 -32 -10 -32 27 0 15 -35 -17 -50 -33 -16 -57 -44 -46 -55 12 -12 49 6 85
42 33 34 40 36 90 34 37 -1 64 -9 83 -22 27 -21 110 -38 110 -24 0 29 -110
175 -130 173 -8 -1 -36 -3 -63 -5z"/>
<path d="M3614 4246 c-3 -14 -4 -32 -1 -40 8 -19 81 -39 109 -30 21 6 20 7 -8
21 -16 9 -43 29 -61 46 l-32 30 -7 -27z"/>
<path d="M2660 4244 c0 -43 41 -72 54 -38 14 37 7 54 -24 54 -21 0 -30 -5 -30
-16z"/>
<path d="M3256 4246 c21 -15 30 -14 19 3 -3 6 -14 11 -23 11 -13 0 -13 -2 4
-14z"/>
<path d="M4476 4206 c-172 -37 -242 -56 -250 -68 -11 -19 -11 -20 80 -453 38
-182 60 -264 71 -273 11 -7 30 -10 50 -6 32 6 33 5 33 -29 0 -19 6 -40 14 -46
8 -7 128 -43 268 -82 190 -52 258 -67 274 -60 17 7 28 35 53 133 18 67 59 220
92 338 32 118 59 222 59 231 0 28 -20 36 -198 86 l-172 47 -9 35 c-5 20 -17
72 -27 116 l-19 80 -40 2 c-22 1 -148 -22 -279 -51z m126 -98 c47 -14 93 -63
109 -118 10 -33 9 -46 -5 -83 -9 -24 -30 -57 -46 -72 -26 -24 -40 -30 -93 -33
-49 -2 -69 1 -95 17 -46 30 -72 77 -72 134 0 77 35 127 107 153 47 16 47 16
95 2z m364 -233 c32 -21 64 -86 64 -131 0 -20 -10 -54 -22 -75 -23 -42 -63
-75 -73 -60 -3 5 -1 12 5 16 6 4 5 12 -5 21 -11 11 -12 20 -5 34 14 26 12 40
-5 40 -8 0 -15 5 -15 10 0 6 9 10 20 10 11 0 20 2 20 4 0 2 3 11 6 20 4 11 -4
17 -28 24 -31 8 -33 11 -32 50 0 23 -3 42 -8 42 -4 0 -8 6 -8 14 0 12 7 13 31
6 17 -5 42 -16 55 -25z m-146 -105 c0 -5 -4 -10 -9 -10 -6 0 -6 -12 0 -32 11
-42 11 -48 -1 -48 -6 0 -13 14 -17 30 -9 49 -27 50 -19 2 6 -39 -6 -59 -17
-29 -3 7 -6 5 -6 -5 -1 -26 -21 -22 -22 5 -1 20 -2 20 -6 2 -11 -42 -52 -36
-54 9 -1 17 -2 17 -6 4 -2 -10 -9 -18 -14 -18 -5 0 -9 -9 -9 -20 0 -11 -4 -20
-10 -20 -5 0 -10 6 -10 13 0 6 -3 30 -7 51 -6 37 -5 39 18 34 15 -2 31 2 39
10 12 13 16 12 33 -9 18 -22 19 -23 13 -3 -7 23 13 38 38 28 8 -3 17 -1 21 5
8 14 45 14 45 1z m-220 -56 c0 -8 -4 -12 -10 -9 -5 3 -10 2 -10 -3 0 -6 7 -12
15 -16 19 -7 20 -56 1 -56 -8 0 -18 5 -21 11 -5 6 -12 4 -20 -7 -7 -10 -19
-15 -28 -11 -9 3 -18 1 -21 -6 -5 -9 -8 -9 -12 1 -5 10 -9 9 -20 -5 -12 -17
-13 -16 -14 9 0 20 -4 26 -15 22 -8 -4 -15 -14 -15 -23 0 -10 -3 -21 -7 -25
-9 -8 -34 84 -27 96 8 13 44 9 44 -4 0 -7 5 -5 11 5 15 25 26 21 40 -16 7 -21
18 -33 30 -33 17 0 17 2 -3 23 -25 27 -18 58 12 50 11 -3 23 -1 26 4 9 15 44
10 44 -7z m307 -220 c4 -10 8 -12 13 -4 3 6 15 8 24 4 15 -6 17 -14 12 -48 -8
-47 -26 -73 -26 -36 0 23 0 23 -16 4 -14 -18 -15 -17 -10 21 l6 40 -15 -33
c-19 -44 -40 -37 -39 13 2 47 37 75 51 39z m-57 -10 c0 -9 -9 -18 -20 -21 -11
-3 -20 -12 -20 -19 0 -8 -4 -14 -10 -14 -5 0 -10 4 -10 8 0 5 -10 8 -22 8 -15
-1 -24 6 -26 19 -4 16 -2 17 11 7 12 -10 16 -10 20 0 4 10 8 10 16 -2 9 -13
11 -12 11 3 0 14 5 17 20 12 11 -4 20 -2 20 4 0 6 2 11 5 11 3 0 5 -7 5 -16z
m165 -14 c3 -5 2 -10 -4 -10 -6 0 -15 -18 -21 -40 -6 -22 -15 -38 -20 -35 -5
3 -5 18 0 36 5 16 6 37 3 45 -6 16 32 20 42 4z m-285 -4 c0 -11 -19 -15 -25
-6 -3 5 1 10 9 10 9 0 16 -2 16 -4z"/>
<path d="M4544 4074 c3 -9 6 -22 6 -30 0 -11 6 -13 23 -8 33 10 34 14 8 35
-28 23 -45 25 -37 3z"/>
<path d="M4490 4061 c-16 -31 -12 -41 15 -41 27 0 28 3 19 38 -8 27 -20 28
-34 3z"/>
<path d="M4615 4070 c3 -5 11 -10 16 -10 6 0 7 5 4 10 -3 6 -11 10 -16 10 -6
0 -7 -4 -4 -10z"/>
<path d="M4447 4043 c-4 -3 -7 -11 -7 -17 0 -6 5 -5 12 2 6 6 9 14 7 17 -3 3
-9 2 -12 -2z"/>
<path d="M4643 4043 c-9 -3 -9 -10 -1 -29 13 -28 38 -32 38 -5 0 22 -20 40
-37 34z"/>
<path d="M4573 4013 c-7 -2 -13 -14 -13 -25 0 -17 4 -19 33 -13 39 9 39 8 31
29 -6 16 -26 19 -51 9z"/>
<path d="M4420 3970 c0 -20 5 -30 15 -30 10 0 15 10 15 30 0 20 -5 30 -15 30
-10 0 -15 -10 -15 -30z"/>
<path d="M4478 3994 c-12 -11 5 -45 19 -40 8 3 21 6 29 6 8 0 14 9 14 20 0 15
-7 20 -28 20 -16 0 -31 -3 -34 -6z"/>
<path d="M4660 3940 c0 -20 5 -30 15 -30 10 0 15 10 15 30 0 20 -5 30 -15 30
-10 0 -15 -10 -15 -30z"/>
<path d="M4592 3953 c-36 -7 -24 -37 16 -41 29 -3 32 -1 32 22 0 26 -4 27 -48
19z"/>
<path d="M4499 3933 c-11 -3 -15 -11 -12 -24 4 -15 11 -19 27 -15 11 3 24 6
29 6 4 0 7 9 7 20 0 20 -14 23 -51 13z"/>
<path d="M4430 3908 c1 -21 25 -47 37 -40 15 10 -3 52 -22 52 -8 0 -15 -6 -15
-12z"/>
<path d="M4588 3860 c5 -35 17 -38 32 -11 16 30 12 41 -13 41 -20 0 -23 -4
-19 -30z"/>
<path d="M4655 3879 c-11 -17 1 -21 15 -4 8 9 8 15 2 15 -6 0 -14 -5 -17 -11z"/>
<path d="M4527 3871 c-16 -6 -16 -9 7 -31 30 -27 41 -22 32 15 -7 26 -10 28
-39 16z"/>
<path d="M4480 3840 c20 -13 33 -13 25 0 -3 6 -14 10 -23 10 -15 0 -15 -2 -2
-10z"/>
<path d="M4908 3841 c-4 -24 0 -30 19 -34 18 -3 23 0 23 17 0 21 -17 46 -31
46 -4 0 -9 -13 -11 -29z"/>
<path d="M4970 3835 c0 -15 18 -40 24 -34 3 3 -1 14 -9 25 -8 10 -14 15 -15 9z"/>
<path d="M4977 3758 c-7 -26 -1 -38 19 -38 9 0 14 11 14 30 0 35 -25 41 -33 8z"/>
<path d="M4956 3688 c-9 -33 -8 -38 9 -38 22 0 41 40 24 51 -21 13 -26 11 -33
-13z"/>
<path d="M4681 3725 c1 -19 18 -51 18 -35 0 8 -4 22 -9 30 -5 8 -9 11 -9 5z"/>
<path d="M4540 3678 c11 -10 26 -18 35 -18 13 0 12 3 -2 18 -10 9 -26 18 -35
18 -15 0 -15 -2 2 -18z"/>
<path d="M4421 3664 c0 -11 3 -14 6 -6 3 7 2 16 -1 19 -3 4 -6 -2 -5 -13z"/>
<path d="M4876 3475 c-3 -9 -6 -22 -5 -28 0 -7 5 -1 10 12 5 13 8 26 5 28 -2
2 -6 -3 -10 -12z"/>
<path d="M2937 4239 c-10 -6 -17 -21 -16 -37 l0 -27 10 25 c6 13 15 28 22 32
18 11 4 18 -16 7z"/>
<path d="M3020 4235 c0 -8 5 -15 10 -15 6 0 10 7 10 15 0 8 -4 15 -10 15 -5 0
-10 -7 -10 -15z"/>
<path d="M2871 4216 c-13 -14 -21 -31 -18 -38 4 -9 6 -8 6 4 1 9 11 24 23 32
12 9 19 18 17 21 -3 3 -16 -6 -28 -19z"/>
<path d="M3230 4231 c0 -5 -3 -16 -6 -25 -3 -9 -2 -16 4 -16 13 0 23 38 11 46
-5 3 -9 1 -9 -5z"/>
<path d="M3254 4193 c-26 -27 -45 -41 -42 -32 4 9 2 22 -3 30 -7 11 -9 11 -9
-3 0 -11 -7 -15 -22 -12 -13 2 -17 1 -8 -2 24 -11 40 -31 32 -40 -3 -5 19 16
51 46 31 30 57 56 57 57 0 9 -13 -2 -56 -44z"/>
<path d="M2896 4173 c9 -51 14 -54 14 -10 0 20 -5 39 -11 42 -7 5 -8 -5 -3
-32z"/>
<path d="M2951 4194 c0 -11 3 -14 6 -6 3 7 2 16 -1 19 -3 4 -6 -2 -5 -13z"/>
<path d="M2865 4126 c-9 -72 2 -159 20 -152 8 3 15 -4 18 -17 4 -19 4 -18 6 5
0 14 -5 28 -11 31 -9 3 -12 30 -11 95 2 101 -12 124 -22 38z"/>
<path d="M2820 4156 c0 -9 -4 -16 -10 -16 -5 0 -2 -9 8 -20 9 -11 20 -39 23
-63 l6 -42 1 42 c1 23 -2 45 -8 48 -5 3 -10 16 -10 28 0 18 2 19 10 7 5 -8 10
-10 10 -4 0 6 -7 17 -15 24 -12 10 -15 10 -15 -4z"/>
<path d="M3140 4155 c7 -8 20 -15 29 -15 13 1 13 3 -3 15 -26 19 -42 19 -26 0z"/>
<path d="M2940 4130 c0 -16 4 -30 8 -30 5 0 7 14 4 30 -2 17 -6 30 -8 30 -2 0
-4 -13 -4 -30z"/>
<path d="M2922 4120 c0 -14 2 -19 5 -12 2 6 2 18 0 25 -3 6 -5 1 -5 -13z"/>
<path d="M3341 4126 c-49 -18 -106 -70 -129 -118 -18 -36 -24 -89 -41 -318
-12 -151 -26 -330 -32 -397 -11 -121 -10 -123 14 -177 26 -57 66 -91 118 -102
25 -6 27 -11 34 -71 4 -36 4 -90 1 -121 -3 -31 -27 -237 -52 -457 -25 -220
-49 -440 -54 -490 -5 -49 -30 -269 -55 -487 -51 -453 -50 -439 -30 -432 19 8
20 -10 1 -25 -8 -7 -52 -22 -98 -35 -104 -29 -132 -46 -152 -97 -30 -73 -46
-69 249 -69 l265 0 0 69 c0 37 3 89 6 115 6 39 10 47 25 43 13 -4 19 2 23 22
7 29 210 1435 228 1571 10 78 28 131 28 85 0 -19 24 -391 35 -545 5 -70 14
-209 50 -780 21 -324 24 -360 38 -357 7 1 13 -14 14 -38 2 -22 5 -73 9 -112
l6 -73 273 0 c311 0 312 0 302 72 l-5 38 318 0 318 0 -5 -42 c-5 -33 -2 -44
12 -55 49 -35 112 4 100 63 l-6 34 54 0 55 0 -5 -45 c-5 -41 -3 -45 21 -56 56
-26 119 32 88 82 -10 16 -9 24 8 47 18 25 21 66 47 672 14 355 23 657 20 672
-14 53 -8 52 -627 49 -330 -1 -582 -7 -592 -12 -9 -5 -22 -26 -27 -47 -5 -20
-19 -298 -31 -617 -11 -319 -23 -592 -25 -607 -5 -30 4 -35 23 -16 9 9 12 9
12 0 0 -7 -5 -12 -11 -12 -5 0 -7 -5 -3 -12 5 -7 3 -8 -6 -3 -7 4 -15 2 -19
-4 -9 -14 -37 -5 -45 15 -4 12 -1 14 14 9 26 -8 26 -63 -10 800 -16 391 -32
782 -35 870 -3 88 -8 190 -10 227 -4 53 -2 70 11 83 12 12 15 27 11 59 -5 32
-1 53 13 82 11 21 20 46 20 55 0 11 11 19 31 23 80 16 139 87 138 166 0 19
-24 112 -55 205 -41 127 -53 156 -48 116 4 -35 3 -51 -4 -47 -5 3 -34 -5 -64
-19 -29 -14 -47 -25 -40 -25 7 0 30 9 52 20 22 11 41 20 43 20 2 0 4 -21 4
-47 -1 -27 3 -68 7 -93 l8 -46 -73 -17 c-41 -9 -115 -26 -164 -37 l-91 -21 4
-34 c4 -37 -14 -105 -29 -105 -5 0 -9 7 -9 15 0 19 -14 19 -30 0 -19 -23 -21
-13 -9 45 9 40 8 54 -1 60 -7 5 14 21 57 45 83 46 109 69 134 118 39 76 -9
165 -94 174 -36 4 -61 -2 -132 -32 -47 -21 -90 -34 -94 -29 -4 5 -18 58 -31
117 -20 93 -21 110 -9 122 18 18 453 115 458 103 2 -5 13 -53 25 -106 19 -86
24 -97 41 -94 11 2 21 5 23 6 4 5 -35 111 -58 156 -13 25 -45 65 -72 89 -30
28 -52 58 -58 80 -15 53 -52 75 -132 79 -63 4 -66 3 -70 -19 -4 -32 -44 -51
-93 -45 -40 5 -81 39 -69 57 8 14 -216 9 -255 -5z m979 -1886 c0 -5 -4 -10
-10 -10 -5 0 -10 5 -10 10 0 6 5 10 10 10 6 0 10 -4 10 -10z m164 -4 c-3 -9
-13 -12 -27 -8 -21 6 -21 6 3 13 14 4 26 7 27 8 1 1 0 -5 -3 -13z m63 8 c-3
-3 -12 -4 -19 -1 -8 3 -5 6 6 6 11 1 17 -2 13 -5z m168 -2 c6 -4 11 -14 13
-22 3 -12 0 -12 -15 2 -10 9 -27 18 -38 21 -16 4 -16 5 5 6 14 0 30 -3 35 -7z
m133 -4 c9 -9 15 -9 20 -3 4 6 23 8 42 5 34 -6 34 -6 -14 -12 -52 -6 -76 -2
-76 13 0 13 14 11 28 -3z m162 2 c11 -8 7 -9 -15 -4 -37 8 -45 14 -19 14 10 0
26 -5 34 -10z m72 -25 c-3 -26 3 -46 22 -75 17 -26 21 -37 11 -34 -11 5 -15
-1 -16 -22 -1 -29 -1 -29 -8 -4 -7 23 -8 21 -15 -16 -4 -23 -6 -66 -5 -95 1
-30 -1 -94 -5 -144 -3 -49 -13 -265 -22 -480 -17 -422 -18 -429 -73 -437 -16
-2 -28 -1 -25 4 3 4 -1 8 -8 8 -10 0 -12 32 -6 162 3 90 13 341 22 558 18 451
23 519 38 537 13 17 65 17 71 1 3 -7 6 2 6 20 1 24 -3 32 -16 32 -15 0 -16 2
-3 10 27 18 36 11 32 -25z m-722 15 c0 -5 -7 -7 -15 -4 -8 4 -15 8 -15 10 0 2
7 4 15 4 8 0 15 -4 15 -10z m165 -10 c3 -5 13 -6 23 -3 10 4 14 2 9 -3 -5 -5
-23 -9 -42 -9 -25 0 -31 3 -23 13 12 14 25 16 33 2z m301 -17 c-7 -7 -26 7
-26 19 0 6 6 6 15 -2 9 -7 13 -15 11 -17z m-543 10 c-7 -2 -19 -2 -25 0 -7 3
-2 5 12 5 14 0 19 -2 13 -5z m31 -17 c-4 -10 2 -12 20 -9 18 4 28 -1 39 -19
12 -19 13 -52 6 -193 -32 -682 -41 -977 -30 -988 6 -6 11 -16 11 -22 0 -5 -5
-3 -10 5 -8 13 -10 12 -10 -2 0 -30 -38 -61 -66 -54 -30 8 -31 -2 -1 -14 l22
-9 -22 0 c-13 -1 -23 4 -23 10 0 5 -6 7 -12 3 -10 -6 -10 -4 -2 7 6 8 9 22 5
31 -3 9 0 142 7 295 6 153 11 319 10 370 -2 50 1 89 5 86 5 -3 7 52 5 121 -1
69 0 126 5 126 4 0 7 42 7 94 0 52 4 106 10 120 6 17 6 26 0 26 -6 0 -10 5
-10 11 0 5 5 7 10 4 6 -3 10 1 10 10 0 9 4 14 10 10 5 -3 7 -12 4 -19z m383
18 c-3 -3 -12 -4 -19 -1 -8 3 -5 6 6 6 11 1 17 -2 13 -5z m-436 -22 c-7 -2
-18 1 -23 6 -8 8 -4 9 13 5 13 -4 18 -8 10 -11z m136 2 c-3 -3 -12 -4 -19 -1
-8 3 -5 6 6 6 11 1 17 -2 13 -5z m490 -14 c18 -16 21 -28 17 -72 -9 -117 -45
-1066 -41 -1103 5 -50 -14 -81 -56 -93 -69 -21 -137 1 -88 28 14 7 21 7 21 0
0 -5 -7 -10 -15 -10 -32 0 -13 -15 19 -16 32 0 33 1 21 20 -10 17 -11 63 -4
216 27 605 39 897 39 946 0 45 4 59 25 79 29 30 35 31 62 5z m100 14 c-3 -3
-12 -4 -19 -1 -8 3 -5 6 6 6 11 1 17 -2 13 -5z m127 -9 c-4 -8 -7 -15 -9 -15
-2 0 -5 7 -9 15 -3 9 0 15 9 15 9 0 12 -6 9 -15z m-571 -13 c16 -17 16 -44 1
-378 -9 -197 -14 -390 -11 -429 2 -40 1 -61 -4 -50 -4 12 -8 -19 -9 -80 -2
-209 -10 -289 -32 -308 -23 -19 -36 -21 -58 -7 -13 8 -15 45 -15 234 0 123 3
219 7 212 4 -6 8 32 8 84 0 52 7 234 14 404 13 276 16 311 32 323 25 18 48 16
67 -5z m37 -3 c0 -14 -17 -10 -23 5 -4 10 -1 13 9 9 7 -3 14 -9 14 -14z m134
8 c18 -13 18 -31 -3 -543 -12 -291 -23 -568 -24 -615 -1 -48 -6 -85 -11 -82
-4 3 -5 -5 -2 -18 3 -13 3 -18 0 -11 -3 6 -10 12 -15 12 -6 0 -8 -4 -5 -8 10
-17 -35 -5 -53 14 -20 20 -36 134 -19 134 4 0 8 52 8 115 0 102 -2 115 -17
116 -17 1 -17 2 -1 6 24 6 25 18 43 463 13 333 18 397 32 412 19 21 42 23 67
5z m-270 -12 c-4 -8 -11 -15 -16 -15 -6 0 -5 6 2 15 7 8 14 15 16 15 2 0 1 -7
-2 -15z m153 -22 c-3 -10 -5 -4 -5 12 0 17 2 24 5 18 2 -7 2 -21 0 -30z m163
0 c-11 -17 -11 -17 -6 0 3 10 6 24 7 30 0 9 2 9 5 0 3 -7 0 -20 -6 -30z m-491
-3 c-6 -16 -15 -30 -20 -30 -5 0 -3 14 6 30 9 17 17 30 20 30 2 0 -1 -13 -6
-30z m-59 -10 c0 -5 -4 -10 -10 -10 -5 0 -10 5 -10 10 0 6 5 10 10 10 6 0 10
-4 10 -10z m17 -27 c-3 -10 -5 -4 -5 12 0 17 2 24 5 18 2 -7 2 -21 0 -30z
m723 28 c0 -6 -4 -13 -10 -16 -5 -3 -10 1 -10 9 0 9 5 16 10 16 6 0 10 -4 10
-9z m-176 -40 c-4 -17 -9 -30 -11 -27 -3 2 -2 19 2 36 9 41 17 33 9 -9z m-165
8 c-14 -8 -29 -3 -29 11 0 4 9 6 21 3 15 -4 17 -8 8 -14z m-390 -48 c0 -14 -4
-35 -9 -46 -6 -14 -7 -7 -3 21 3 23 0 52 -6 65 -12 23 -11 23 3 5 9 -11 16
-31 15 -45z m201 36 c0 -7 -4 -6 -10 3 -8 12 -10 8 -11 -15 -1 -18 -3 -23 -6
-12 -6 24 4 50 17 42 5 -3 10 -12 10 -18z m517 -24 c-3 -10 -5 -4 -5 12 0 17
2 24 5 18 2 -7 2 -21 0 -30z m220 5 c-3 -7 -5 -2 -5 12 0 14 2 19 5 13 2 -7 2
-19 0 -25z m-240 -30 c-2 -13 -4 -5 -4 17 -1 22 1 32 4 23 2 -10 2 -28 0 -40z
m-720 0 c-3 -7 -5 -2 -5 12 0 14 2 19 5 13 2 -7 2 -19 0 -25z m561 -43 c0 -16
-2 -15 -8 5 -4 14 -8 36 -8 50 0 22 1 22 8 -5 4 -16 8 -39 8 -50z m-184 21
c-3 -21 -8 -35 -11 -32 -2 2 -1 20 3 40 3 21 8 35 11 32 2 -2 1 -20 -3 -40z
m-167 -23 c-3 -10 -5 -2 -5 17 0 19 2 27 5 18 2 -10 2 -26 0 -35z m-142 -10
c-3 -21 -13 -47 -20 -59 -7 -11 -15 -32 -18 -45 -2 -13 -3 -6 -1 15 1 21 7 42
12 45 6 3 13 23 17 44 4 20 9 37 12 37 3 0 2 -17 -2 -37z m522 15 c-3 -8 -6
-5 -6 6 -1 11 2 17 5 13 3 -3 4 -12 1 -19z m310 -40 c-2 -13 -4 -3 -4 22 0 25
2 35 4 23 2 -13 2 -33 0 -45z m50 40 c-3 -8 -6 -5 -6 6 -1 11 2 17 5 13 3 -3
4 -12 1 -19z m-200 -20 c-3 -8 -6 -5 -6 6 -1 11 2 17 5 13 3 -3 4 -12 1 -19z
m-358 -35 c-1 -33 -2 -35 -8 -13 -4 14 -6 31 -3 38 8 22 12 13 11 -25z m-380
-53 c-12 -94 -21 -115 -14 -35 7 69 15 118 20 113 2 -2 -1 -37 -6 -78z m208
58 c-3 -8 -6 -5 -6 6 -1 11 2 17 5 13 3 -3 4 -12 1 -19z m20 -20 c-3 -7 -5 -2
-5 12 0 14 2 19 5 13 2 -7 2 -19 0 -25z m500 -15 c-10 -32 -13 -34 -15 -15 -4
28 4 52 17 52 5 0 4 -16 -2 -37z m-330 5 c-3 -8 -6 -5 -6 6 -1 11 2 17 5 13 3
-3 4 -12 1 -19z m160 -15 c-3 -10 -5 -4 -5 12 0 17 2 24 5 18 2 -7 2 -21 0
-30z m-380 -35 c-3 -8 -6 -5 -6 6 -1 11 2 17 5 13 3 -3 4 -12 1 -19z m712 -42
c1 -42 -5 -29 -12 24 -4 30 -3 38 3 25 5 -11 9 -33 9 -49z m-352 22 c-3 -7 -5
-2 -5 12 0 14 2 19 5 13 2 -7 2 -19 0 -25z m-169 -19 c-3 -20 -5 -19 -9 9 -3
20 -2 29 4 23 5 -5 7 -19 5 -32z m30 16 c-3 -3 -9 2 -12 12 -6 14 -5 15 5 6 7
-7 10 -15 7 -18z m549 -7 c-3 -8 -6 -5 -6 6 -1 11 2 17 5 13 3 -3 4 -12 1 -19z
m-389 -78 c0 -9 -3 -7 -8 5 -5 11 -8 29 -8 40 0 16 2 15 8 -5 4 -14 8 -32 8
-40z m-509 1 c-1 -13 -2 -12 -6 2 -2 9 -9 17 -14 17 -5 0 -9 8 -9 18 1 15 2
15 15 -2 8 -11 14 -27 14 -35z m128 27 c-3 -8 -6 -5 -6 6 -1 11 2 17 5 13 3
-3 4 -12 1 -19z m40 -30 c-2 -13 -4 -5 -4 17 -1 22 1 32 4 23 2 -10 2 -28 0
-40z m663 -7 c0 -32 -6 -24 -14 19 -4 25 -3 31 4 20 5 -8 10 -26 10 -39z
m-872 8 c-3 -8 -7 -3 -11 10 -4 17 -3 21 5 13 5 -5 8 -16 6 -23z m-31 -41 c-2
-13 -4 -3 -4 22 0 25 2 35 4 23 2 -13 2 -33 0 -45z m410 40 c-3 -8 -6 -5 -6 6
-1 11 2 17 5 13 3 -3 4 -12 1 -19z m533 1 c0 -11 -4 -17 -10 -14 -5 3 -10 13
-10 21 0 8 5 14 10 14 6 0 10 -9 10 -21z m-893 -46 c-3 -10 -5 -2 -5 17 0 19
2 27 5 18 2 -10 2 -26 0 -35z m-30 -5 c-3 -8 -6 -5 -6 6 -1 11 2 17 5 13 3 -3
4 -12 1 -19z m740 -10 c-3 -7 -5 -2 -5 12 0 14 2 19 5 13 2 -7 2 -19 0 -25z
m-560 0 c-3 -8 -6 -5 -6 6 -1 11 2 17 5 13 3 -3 4 -12 1 -19z m380 -20 c-3 -8
-6 -5 -6 6 -1 11 2 17 5 13 3 -3 4 -12 1 -19z m340 -15 c-3 -10 -5 -4 -5 12 0
17 2 24 5 18 2 -7 2 -21 0 -30z m30 -15 c-2 -13 -4 -5 -4 17 -1 22 1 32 4 23
2 -10 2 -28 0 -40z m-953 -64 c-3 -85 -14 -115 -14 -37 0 45 9 113 15 113 1 0
1 -34 -1 -76z m210 32 c-3 -21 -8 -35 -11 -32 -2 2 -1 20 3 40 3 21 8 35 11
32 2 -2 1 -20 -3 -40z m333 7 c-3 -10 -5 -4 -5 12 0 17 2 24 5 18 2 -7 2 -21
0 -30z m174 -42 c-8 -22 -9 -19 -10 24 0 42 2 46 10 26 6 -15 6 -34 0 -50z
m176 47 c-3 -8 -6 -5 -6 6 -1 11 2 17 5 13 3 -3 4 -12 1 -19z m-311 -22 c2
-13 1 -13 -3 -1 -2 8 -9 13 -14 10 -5 -4 -9 -1 -9 5 0 18 25 5 26 -14z m-543
-67 c-4 -4 -6 13 -3 39 l5 47 3 -39 c2 -21 0 -42 -5 -47z m354 59 c-3 -8 -6
-5 -6 6 -1 11 2 17 5 13 3 -3 4 -12 1 -19z m520 -15 c-3 -10 -5 -4 -5 12 0 17
2 24 5 18 2 -7 2 -21 0 -30z m36 -44 c-4 -4 -6 13 -3 39 l5 47 3 -39 c2 -21 0
-42 -5 -47z m-716 14 c-3 -10 -5 -4 -5 12 0 17 2 24 5 18 2 -7 2 -21 0 -30z
m510 -15 c-2 -13 -4 -5 -4 17 -1 22 1 32 4 23 2 -10 2 -28 0 -40z m-539 -23
c0 -16 -2 -15 -8 5 -11 34 -11 60 0 35 5 -11 8 -29 8 -40z m193 14 c-5 -13
-10 -19 -10 -12 -1 15 10 45 15 40 3 -2 0 -15 -5 -28z m159 1 c0 -11 -2 -20
-4 -20 -2 0 -6 9 -9 20 -3 11 -1 20 4 20 5 0 9 -9 9 -20z m187 -52 c-3 -8 -6
-5 -6 6 -1 11 2 17 5 13 3 -3 4 -12 1 -19z m-380 -10 c-3 -8 -6 -5 -6 6 -1 11
2 17 5 13 3 -3 4 -12 1 -19z m210 -10 c-3 -7 -5 -2 -5 12 0 14 2 19 5 13 2 -7
2 -19 0 -25z m-380 -20 c-3 -8 -6 -5 -6 6 -1 11 2 17 5 13 3 -3 4 -12 1 -19z
m210 0 c-3 -8 -6 -5 -6 6 -1 11 2 17 5 13 3 -3 4 -12 1 -19z m490 -30 c-2 -13
-4 -5 -4 17 -1 22 1 32 4 23 2 -10 2 -28 0 -40z m-860 -65 c-2 -21 -4 -4 -4
37 0 41 2 58 4 38 2 -21 2 -55 0 -75z m330 35 c-3 -7 -5 -2 -5 12 0 14 2 19 5
13 2 -7 2 -19 0 -25z m357 7 c3 -8 1 -15 -4 -15 -6 0 -10 7 -10 15 0 8 2 15 4
15 2 0 6 -7 10 -15z m-737 -67 c-2 -13 -4 -3 -4 22 0 25 2 35 4 23 2 -13 2
-33 0 -45z m210 30 c-3 -7 -5 -2 -5 12 0 14 2 19 5 13 2 -7 2 -19 0 -25z m200
-15 c-3 -10 -5 -2 -5 17 0 19 2 27 5 18 2 -10 2 -26 0 -35z m180 -30 c-2 -16
-4 -3 -4 27 0 30 2 43 4 28 2 -16 2 -40 0 -55z m170 55 c-3 -8 -6 -5 -6 6 -1
11 2 17 5 13 3 -3 4 -12 1 -19z m-27 -18 c0 -5 -4 -10 -10 -10 -5 0 -10 5 -10
10 0 6 5 10 10 10 6 0 10 -4 10 -10z m-160 -24 c0 -8 -7 -16 -15 -20 -13 -4
-14 -2 -5 14 13 23 20 26 20 6z m189 -41 c-1 -16 -2 -16 -9 5 l-8 25 -1 -24
c-1 -13 -4 -22 -7 -18 -4 3 -3 18 0 34 6 21 9 24 17 12 5 -7 8 -23 8 -34z
m-542 -2 c-3 -10 -5 -4 -5 12 0 17 2 24 5 18 2 -7 2 -21 0 -30z m156 -38 c4
-32 3 -43 -3 -30 -8 19 -14 93 -6 84 2 -2 6 -26 9 -54z m37 -7 c0 -25 -4 -38
-9 -32 -8 8 -4 74 5 74 2 0 4 -19 4 -42z m335 12 c3 -6 -4 -10 -17 -10 -18 0
-20 2 -8 10 19 12 18 12 25 0z m-537 -178 c-5 -2 -8 -11 -9 -20 0 -14 -2 -13
-9 3 -5 11 -9 27 -9 35 0 9 4 8 9 -5 6 -13 9 11 11 75 l3 95 5 -90 c3 -49 3
-91 -1 -93z m519 126 c-3 -7 -5 -2 -5 12 0 14 2 19 5 13 2 -7 2 -19 0 -25z
m170 10 c-3 -8 -6 -5 -6 6 -1 11 2 17 5 13 3 -3 4 -12 1 -19z m70 -10 c-3 -7
-5 -2 -5 12 0 14 2 19 5 13 2 -7 2 -19 0 -25z m-600 -70 c-2 -13 -4 -3 -4 22
0 25 2 35 4 23 2 -13 2 -33 0 -45z m170 30 c-3 -7 -5 -2 -5 12 0 14 2 19 5 13
2 -7 2 -19 0 -25z m210 -20 c-2 -13 -4 -5 -4 17 -1 22 1 32 4 23 2 -10 2 -28
0 -40z m-40 20 c-3 -8 -6 -5 -6 6 -1 11 2 17 5 13 3 -3 4 -12 1 -19z m-127
-18 c0 -11 -2 -20 -4 -20 -2 0 -6 9 -9 20 -3 11 -1 20 4 20 5 0 9 -9 9 -20z
m-533 -72 c-2 -18 -4 -6 -4 27 0 33 2 48 4 33 2 -15 2 -42 0 -60z m180 45 c-3
-10 -5 -4 -5 12 0 17 2 24 5 18 2 -7 2 -21 0 -30z m180 15 c-3 -8 -6 -5 -6 6
-1 11 2 17 5 13 3 -3 4 -12 1 -19z m550 0 c-3 -8 -6 -5 -6 6 -1 11 2 17 5 13
3 -3 4 -12 1 -19z m-250 -50 c-3 -7 -5 -2 -5 12 0 14 2 19 5 13 2 -7 2 -19 0
-25z m-320 0 c-3 -8 -6 -5 -6 6 -1 11 2 17 5 13 3 -3 4 -12 1 -19z m180 -10
c-3 -8 -6 -5 -6 6 -1 11 2 17 5 13 3 -3 4 -12 1 -19z m-30 -10 c-3 -8 -6 -5
-6 6 -1 11 2 17 5 13 3 -3 4 -12 1 -19z m-517 -3 c0 -8 -4 -15 -10 -15 -5 0
-10 7 -10 15 0 8 5 15 10 15 6 0 10 -7 10 -15z m347 -7 c-3 -8 -6 -5 -6 6 -1
11 2 17 5 13 3 -3 4 -12 1 -19z m380 -36 c-7 -69 -15 -92 -30 -92 -7 0 -7 4 1
12 7 7 12 21 12 32 0 18 -3 17 -20 -9 -11 -16 -20 -25 -20 -18 0 6 5 15 11 18
6 4 8 14 5 22 -3 8 -1 11 4 8 6 -4 11 10 11 32 l2 38 7 -35 7 -35 2 43 c0 23
4 42 7 42 4 0 4 -26 1 -58z m210 -4 c-3 -7 -5 -2 -5 12 0 14 2 19 5 13 2 -7 2
-19 0 -25z m-742 3 c3 -5 1 -12 -5 -16 -5 -3 -10 1 -10 9 0 18 6 21 15 7z
m177 -11 c5 24 5 24 7 -3 1 -36 -23 -32 -26 4 l-2 24 8 -25 8 -25 5 25z m168
-15 c7 -9 8 -15 2 -15 -5 0 -12 7 -16 15 -3 8 -4 15 -2 15 2 0 9 -7 16 -15z
m397 -10 c0 -10 -10 -15 -28 -15 -34 0 -45 -15 -27 -37 11 -14 11 -16 -1 -8
-11 6 -13 4 -8 -9 4 -10 3 -15 -3 -11 -6 3 -10 19 -10 34 0 23 7 31 38 44 20
8 37 15 38 16 0 1 1 -6 1 -14z m-922 -5 c3 -5 1 -10 -4 -10 -6 0 -11 5 -11 10
0 6 2 10 4 10 3 0 8 -4 11 -10z m322 -12 c-3 -8 -6 -5 -6 6 -1 11 2 17 5 13 3
-3 4 -12 1 -19z m56 -21 c14 -21 13 -23 -7 -23 -21 0 -36 12 -36 31 1 6 8 1
16 -10 16 -20 16 -20 9 3 -8 28 -1 28 18 -1z m454 -9 c-3 -7 -5 -2 -5 12 0 14
2 19 5 13 2 -7 2 -19 0 -25z m-842 2 c3 -5 1 -10 -4 -10 -6 0 -11 5 -11 10 0
6 2 10 4 10 3 0 8 -4 11 -10z m209 -6 c3 -8 2 -12 -4 -9 -6 3 -10 10 -10 16 0
14 7 11 14 -7z m-1224 -29 c-13 -14 -40 -30 -61 -36 -35 -11 -36 -12 -25 -40
10 -28 13 -29 78 -29 62 0 68 2 83 28 18 29 63 67 71 59 3 -2 -9 -18 -26 -35
-43 -44 -39 -55 20 -50 35 2 50 -1 50 -9 0 -10 -57 -13 -250 -13 -193 0 -250
3 -250 13 0 9 26 11 106 9 l106 -3 -7 23 c-4 13 -20 36 -37 51 -35 33 -30 47
7 23 32 -21 68 -15 116 18 42 29 51 25 19 -9z m865 15 c10 -11 35 -25 56 -31
33 -10 42 -9 73 10 30 19 36 20 36 7 0 -9 -5 -16 -10 -16 -19 0 -60 -48 -60
-70 0 -19 6 -20 100 -20 60 0 100 -4 100 -10 0 -6 -88 -10 -245 -10 -148 0
-245 4 -245 9 0 6 24 11 53 13 l52 3 -37 39 c-42 42 -44 46 -24 46 15 0 76
-64 76 -80 0 -6 33 -10 74 -10 l74 0 4 30 c4 26 1 31 -28 40 -37 12 -84 47
-84 61 0 15 16 10 35 -11z m319 -29 c-6 -6 -11 1 -18 29 l-7 25 15 -25 c8 -14
12 -27 10 -29z m-38 14 c-3 -9 -10 -13 -16 -10 -6 4 -5 11 3 20 15 16 22 11
13 -10z m114 10 c0 16 20 -18 20 -35 0 -13 -1 -13 -10 0 -9 13 -10 13 -11 0
-1 -18 -17 18 -18 40 -1 13 0 13 9 0 5 -8 10 -10 10 -5z m40 5 c0 -5 -5 -10
-11 -10 -5 0 -7 5 -4 10 3 6 8 10 11 10 2 0 4 -4 4 -10z m430 -26 c0 -2 -7 -4
-15 -4 -8 0 -15 4 -15 10 0 5 7 7 15 4 8 -4 15 -8 15 -10z m-503 0 c-3 -3 -12
-4 -19 -1 -8 3 -5 6 6 6 11 1 17 -2 13 -5z m594 -3 c-11 -7 -10 -10 5 -14 10
-2 -1 -5 -26 -4 -25 0 -35 2 -22 4 12 2 22 9 22 14 0 5 8 9 18 9 14 0 14 -2 3
-9z m-664 -23 c-3 -8 -6 -5 -6 6 -1 11 2 17 5 13 3 -3 4 -12 1 -19z m229 4
c-44 -2 -83 1 -87 5 -4 4 31 6 79 3 l87 -5 -79 -3z m-191 -2 c3 -5 1 -10 -4
-10 -6 0 -11 5 -11 10 0 6 2 10 4 10 3 0 8 -4 11 -10z m45 6 c0 -2 -7 -7 -16
-10 -8 -3 -12 -2 -9 4 6 10 25 14 25 6z m453 -3 c-29 -2 -77 -2 -105 0 -29 2
-6 3 52 3 58 0 81 -1 53 -3z"/>
<path d="M5006 2148 c-3 -7 -14 -245 -25 -528 -11 -283 -23 -550 -26 -593 -5
-65 -3 -78 10 -84 9 -3 21 -1 27 5 11 11 41 620 36 739 -2 39 0 69 3 67 6 -3
20 326 16 376 -2 27 -34 41 -41 18z m27 -18 c3 -11 1 -18 -4 -14 -5 3 -9 12
-9 20 0 20 7 17 13 -6z m4 -67 c-3 -10 -5 -4 -5 12 0 17 2 24 5 18 2 -7 2 -21
0 -30z m-20 -45 c-3 -7 -5 -2 -5 12 0 14 2 19 5 13 2 -7 2 -19 0 -25z m10
-145 c-3 -10 -5 -4 -5 12 0 17 2 24 5 18 2 -7 2 -21 0 -30z m-20 -5 c-3 -7 -5
-2 -5 12 0 14 2 19 5 13 2 -7 2 -19 0 -25z m0 -80 c-3 -8 -6 -5 -6 6 -1 11 2
17 5 13 3 -3 4 -12 1 -19z m3 -183 c0 -8 -2 -15 -4 -15 -2 0 -6 7 -10 15 -3 8
-1 15 4 15 6 0 10 -7 10 -15z m1 -76 c-5 -13 -10 -19 -10 -12 -1 15 10 45 15
40 3 -2 0 -15 -5 -28z m-3 -94 c0 -16 -2 -15 -8 5 l-8 25 -1 -24 c-1 -13 -4
-22 -7 -18 -3 3 -3 21 1 39 7 29 9 30 16 13 4 -11 7 -29 7 -40z m-4 -51 c4
-10 2 -13 -6 -8 -8 5 -10 -10 -6 -57 4 -38 3 -54 -2 -39 -10 31 -12 83 -4 104
8 20 10 20 18 0z m-7 -216 c-2 -13 -4 -5 -4 17 -1 22 1 32 4 23 2 -10 2 -28 0
-40z m-20 -40 c-3 -7 -5 -2 -5 12 0 14 2 19 5 13 2 -7 2 -19 0 -25z m22 -83
c0 -5 -4 -3 -9 5 -8 12 -10 10 -10 -9 0 -13 -3 -22 -6 -18 -3 3 -3 21 1 39 7
29 9 30 16 13 4 -11 8 -24 8 -30z m-9 -76 c0 -15 -18 -19 -23 -6 -3 8 1 14 9
14 8 0 14 -4 14 -8z"/>
<path d="M5080 2125 c0 -8 5 -15 10 -15 6 0 10 7 10 15 0 8 -4 15 -10 15 -5 0
-10 -7 -10 -15z"/>
<path d="M4315 2148 c-8 -22 -10 -351 -2 -383 4 -19 4 -21 -1 -5 -14 46 -23 3
-22 -107 1 -60 0 -115 -3 -123 -10 -31 -27 -574 -18 -583 21 -21 41 2 41 45 0
28 -3 38 -9 29 -6 -9 -10 -4 -13 17 -4 26 -2 29 13 22 15 -8 17 0 18 83 1 51
11 296 21 546 11 249 17 457 14 462 -8 13 -34 11 -39 -3z m21 -14 c-4 -9 -1
-23 5 -30 6 -7 9 -19 6 -26 -3 -8 -6 -5 -7 7 l-1 20 -9 -20 c-7 -15 -8 -12 -5
15 4 49 4 50 11 50 3 0 3 -7 0 -16z m-19 -186 c-3 -8 -6 -5 -6 6 -1 11 2 17 5
13 3 -3 4 -12 1 -19z m20 -70 c-2 -13 -4 -3 -4 22 0 25 2 35 4 23 2 -13 2 -33
0 -45z m-30 -240 c-2 -13 -4 -3 -4 22 0 25 2 35 4 23 2 -13 2 -33 0 -45z m13
-189 c0 -6 -4 -7 -10 -4 -5 3 -10 11 -10 16 0 6 5 7 10 4 6 -3 10 -11 10 -16z
m-3 -41 c-3 -8 -6 -5 -6 6 -1 11 2 17 5 13 3 -3 4 -12 1 -19z m-20 -45 c-3
-10 -5 -2 -5 17 0 19 2 27 5 18 2 -10 2 -26 0 -35z m13 -129 c0 -37 -4 -63 -9
-59 -5 3 -12 -5 -14 -17 -2 -13 -5 4 -5 37 0 42 2 54 8 40 7 -15 9 -10 9 23 1
23 3 42 6 42 3 0 5 -30 5 -66z m-3 -116 c-3 -8 -6 -5 -6 6 -1 11 2 17 5 13 3
-3 4 -12 1 -19z m-30 -115 c-3 -10 -5 -4 -5 12 0 17 2 24 5 18 2 -7 2 -21 0
-30z m23 -38 c0 -12 -19 -12 -23 0 -4 9 -1 12 9 8 7 -3 14 -7 14 -8z"/>
<path d="M4837 2153 c-4 -3 -7 -18 -7 -32 l1 -26 14 30 c7 17 14 26 14 20 0
-5 -8 -28 -19 -50 -13 -28 -19 -62 -20 -112 0 -39 -9 -286 -21 -549 -13 -314
-17 -480 -10 -487 5 -5 16 -7 24 -4 16 6 16 0 47 746 10 250 17 458 14 463 -6
10 -28 11 -37 1z m23 -168 c0 -19 -5 -46 -12 -62 -10 -24 -12 -25 -16 -8 -2
10 1 21 7 23 6 2 10 22 10 45 l-2 42 -7 -35 -7 -35 -2 31 c0 17 2 34 5 37 13
13 24 -5 24 -38z m-10 -160 c-7 -45 -7 -46 -9 -13 -1 32 8 74 14 66 1 -2 -1
-25 -5 -53z m-2 -179 c-3 -31 -19 -40 -26 -14 -2 9 0 8 7 -2 8 -11 10 -4 10
30 -1 37 -2 41 -9 20 -10 -32 -12 -13 -3 31 l7 34 8 -34 c5 -18 8 -47 6 -65z
m-21 -98 c-3 -8 -6 -5 -6 6 -1 11 2 17 5 13 3 -3 4 -12 1 -19z m10 -40 c-3 -8
-6 -5 -6 6 -1 11 2 17 5 13 3 -3 4 -12 1 -19z m-10 -120 c-3 -8 -6 -5 -6 6 -1
11 2 17 5 13 3 -3 4 -12 1 -19z m-10 -60 c-3 -7 -5 -2 -5 12 0 14 2 19 5 13 2
-7 2 -19 0 -25z m10 -40 c-3 -8 -6 -5 -6 6 -1 11 2 17 5 13 3 -3 4 -12 1 -19z
m-20 -90 c-3 -8 -6 -5 -6 6 -1 11 2 17 5 13 3 -3 4 -12 1 -19z m20 -15 c-3
-10 -5 -4 -5 12 0 17 2 24 5 18 2 -7 2 -21 0 -30z m-14 -48 c-3 -9 -8 -14 -10
-11 -3 3 -2 9 2 15 9 16 15 13 8 -4z m4 -67 c-3 -8 -6 -5 -6 6 -1 11 2 17 5
13 3 -3 4 -12 1 -19z"/>
<path d="M4485 2148 c-7 -26 -27 -609 -22 -650 3 -24 3 -36 -1 -28 -7 15 -30
-495 -24 -517 6 -21 44 -16 41 5 -2 9 0 31 4 47 3 17 9 127 13 245 4 118 12
341 20 495 19 407 18 415 -6 415 -11 0 -22 -6 -25 -12z m35 -8 c0 -5 -4 -10
-10 -10 -5 0 -11 -19 -11 -42 -2 -33 -3 -36 -6 -14 -6 35 4 76 17 76 6 0 10
-4 10 -10z m-3 -72 c-3 -7 -5 -2 -5 12 0 14 2 19 5 13 2 -7 2 -19 0 -25z m-14
-58 c-3 -12 -8 -19 -11 -16 -5 6 5 36 12 36 2 0 2 -9 -1 -20z m4 -87 c-3 -10
-5 -2 -5 17 0 19 2 27 5 18 2 -10 2 -26 0 -35z m-20 -20 c-3 -10 -5 -4 -5 12
0 17 2 24 5 18 2 -7 2 -21 0 -30z m0 -75 c-3 -7 -5 -2 -5 12 0 14 2 19 5 13 2
-7 2 -19 0 -25z m22 -18 c-1 -28 -5 -46 -8 -41 -7 11 -2 91 5 91 3 0 4 -23 3
-50z m-12 -102 c-3 -8 -6 -5 -6 6 -1 11 2 17 5 13 3 -3 4 -12 1 -19z m-1 -92
c3 -13 4 -37 1 -52 -3 -22 -4 -19 -6 14 0 23 -5 42 -11 42 -5 0 -10 5 -10 10
0 20 20 9 26 -14z m-10 -284 c-11 -10 -15 4 -8 28 l7 25 3 -23 c2 -13 1 -26
-2 -30z m-19 -64 c-3 -7 -5 -2 -5 12 0 14 2 19 5 13 2 -7 2 -19 0 -25z m6
-118 c3 -11 1 -18 -4 -14 -5 3 -9 12 -9 20 0 20 7 17 13 -6z m-16 -102 c-2
-13 -4 -3 -4 22 0 25 2 35 4 23 2 -13 2 -33 0 -45z m20 30 c-3 -8 -6 -5 -6 6
-1 11 2 17 5 13 3 -3 4 -12 1 -19z m-12 -118 c3 -5 1 -10 -4 -10 -6 0 -11 5
-11 10 0 6 2 10 4 10 3 0 8 -4 11 -10z"/>
<path d="M4664 2148 c-10 -17 -46 -809 -41 -920 2 -49 0 -82 -5 -75 -4 6 -8
-39 -8 -100 0 -105 1 -113 19 -113 26 0 33 25 31 123 0 45 6 222 14 392 27
539 32 659 28 683 -5 24 -26 30 -38 10z m22 -85 c-2 -32 -7 -66 -11 -76 -4
-11 -6 -56 -3 -100 3 -46 2 -69 -2 -52 -12 47 -11 152 2 221 6 35 13 64 14 64
2 0 1 -26 0 -57z m-9 -320 c-3 -10 -5 -2 -5 17 0 19 2 27 5 18 2 -10 2 -26 0
-35z m-20 5 c-3 -7 -5 -2 -5 12 0 14 2 19 5 13 2 -7 2 -19 0 -25z m22 -68 c0
-10 -3 -8 -9 5 -12 27 -12 43 0 25 5 -8 9 -22 9 -30z m-12 -92 c-3 -7 -5 -2
-5 12 0 14 2 19 5 13 2 -7 2 -19 0 -25z m-20 -115 c-2 -16 -4 -5 -4 22 0 28 2
40 4 28 2 -13 2 -35 0 -50z m20 30 c-3 -10 -5 -4 -5 12 0 17 2 24 5 18 2 -7 2
-21 0 -30z m-10 -155 c-2 -13 -4 -5 -4 17 -1 22 1 32 4 23 2 -10 2 -28 0 -40z
m-20 -40 c-3 -7 -5 -2 -5 12 0 14 2 19 5 13 2 -7 2 -19 0 -25z m20 -60 c-2
-13 -4 -5 -4 17 -1 22 1 32 4 23 2 -10 2 -28 0 -40z m-7 -284 c0 -8 -19 -13
-24 -6 -3 5 1 9 9 9 8 0 15 -2 15 -3z"/>
<path d="M3140 4120 c0 -5 5 -10 10 -10 6 0 10 5 10 10 0 6 -4 10 -10 10 -5 0
-10 -4 -10 -10z"/>
<path d="M3170 4108 c-12 -22 -12 -22 6 -6 10 10 15 20 12 24 -4 3 -12 -5 -18
-18z"/>
<path d="M2693 4075 c0 -22 2 -30 4 -17 2 12 2 30 0 40 -3 9 -5 -1 -4 -23z"/>
<path d="M3120 4100 c0 -5 -8 -7 -17 -4 -15 5 -16 4 -3 -5 8 -6 11 -11 5 -11
-5 0 -3 -5 5 -10 13 -8 12 -11 -5 -25 -11 -9 -13 -13 -5 -9 23 11 50 36 50 47
0 5 -7 3 -16 -4 -15 -12 -16 -11 -10 9 4 12 5 22 2 22 -3 0 -6 -4 -6 -10z"/>
<path d="M3064 4084 c3 -9 6 -18 6 -20 0 -2 4 -4 9 -4 5 0 7 9 4 20 -3 11 -10
20 -15 20 -6 0 -7 -7 -4 -16z"/>
<path d="M2465 4070 c-10 -11 -13 -20 -7 -20 7 0 12 5 12 11 0 8 5 8 15 -1 8
-7 15 -20 15 -29 0 -14 -2 -14 -10 -1 -7 12 -12 12 -22 2 -6 -6 -10 -12 -7
-13 2 0 13 -2 24 -5 11 -2 26 -1 33 1 11 4 11 7 0 20 -31 34 -36 43 -31 49 4
3 4 6 1 6 -3 0 -13 -9 -23 -20z"/>
<path d="M2098 4065 c-3 -4 -27 -11 -54 -18 -34 -8 -52 -19 -60 -36 -7 -13
-24 -35 -39 -49 -29 -27 -30 -50 -3 -124 14 -42 21 -44 148 -38 47 2 59 7 89
36 20 19 41 34 48 34 7 0 10 6 7 13 -2 7 14 32 37 55 37 36 40 43 28 58 -11
14 -11 18 5 30 10 7 24 15 30 17 6 2 8 7 5 11 -3 4 -18 2 -33 -4 -15 -5 -44
-10 -65 -10 -30 0 -40 -4 -44 -20 -7 -26 -24 -26 -32 -1 -3 11 -15 23 -26 26
-10 4 -19 11 -19 16 0 10 -13 12 -22 4z"/>
<path d="M2711 4054 c0 -11 3 -14 6 -6 3 7 2 16 -1 19 -3 4 -6 -2 -5 -13z"/>
<path d="M3053 4035 c-7 -8 -9 -16 -4 -19 5 -3 12 1 15 10 8 22 4 25 -11 9z"/>
<path d="M2560 4026 c0 -2 9 -6 20 -9 11 -3 18 -1 14 4 -5 9 -34 13 -34 5z"/>
<path d="M2693 4023 c9 -2 17 -9 17 -14 0 -6 -4 -7 -10 -4 -6 3 -10 -4 -10
-16 0 -22 0 -22 15 -3 21 28 18 44 -7 43 -17 -1 -19 -2 -5 -6z"/>
<path d="M2944 4007 c3 -10 6 -21 6 -23 0 -2 7 -4 15 -4 8 0 15 5 15 11 0 5
-4 8 -9 4 -6 -3 -15 3 -21 12 -11 17 -11 17 -6 0z"/>
<path d="M3065 4000 c-10 -11 -16 -22 -14 -24 2 -2 12 7 22 20 22 29 17 32 -8
4z"/>
<path d="M2530 4003 c0 -5 9 -14 20 -21 11 -7 20 -8 20 -2 0 5 -9 14 -20 20
-11 6 -20 7 -20 3z"/>
<path d="M3010 4006 c0 -2 7 -6 15 -10 8 -3 15 -1 15 4 0 6 -7 10 -15 10 -8 0
-15 -2 -15 -4z"/>
<path d="M2494 3993 c3 -7 20 -22 36 -33 23 -16 28 -17 24 -6 -3 9 -11 16 -17
16 -6 0 -19 8 -30 18 -11 9 -17 12 -13 5z"/>
<path d="M2922 3970 c0 -19 2 -27 5 -17 2 9 2 25 0 35 -3 9 -5 1 -5 -18z"/>
<path d="M2321 3977 c2 -1 15 -11 29 -22 l25 -20 -19 23 c-11 12 -24 22 -29
22 -6 0 -8 -1 -6 -3z"/>
<path d="M2990 3959 c-33 -13 -33 -14 -20 -38 14 -27 27 -27 40 2 10 20 10 20
-3 5 -19 -25 -30 -23 -17 3 6 11 21 24 33 29 12 5 15 9 7 9 -8 0 -26 -5 -40
-10z"/>
<path d="M2877 3945 c-4 -8 -2 -17 3 -20 6 -4 10 3 10 14 0 25 -6 27 -13 6z"/>
<path d="M2307 3943 c8 -3 11 -14 7 -29 -4 -15 -2 -24 5 -24 6 0 11 12 12 28
0 15 3 21 6 15 2 -7 9 -13 15 -13 6 0 6 6 -2 15 -7 8 -22 15 -34 14 -11 0 -15
-3 -9 -6z"/>
<path d="M2370 3922 c0 -5 10 -17 22 -28 l21 -19 -18 28 c-18 28 -25 33 -25
19z"/>
<path d="M2260 3881 c-5 -11 -9 -50 -8 -88 l2 -68 5 70 c6 69 6 68 13 -50 5
-73 4 -123 -2 -129 -6 -6 -22 5 -44 30 -33 38 -62 42 -38 4 9 -14 9 -20 -1
-24 -7 -3 -4 -4 7 -3 10 1 23 -7 30 -18 6 -11 15 -23 20 -26 5 -4 6 -14 3 -22
-10 -26 17 -9 30 19 10 22 10 24 -3 14 -10 -9 -14 -9 -14 -1 0 6 7 14 16 18
13 5 14 20 9 107 -4 55 -7 120 -8 143 -1 24 -3 43 -4 43 -1 0 -7 -9 -13 -19z"/>
<path d="M2850 3891 c0 -6 4 -13 10 -16 6 -3 7 1 4 9 -7 18 -14 21 -14 7z"/>
<path d="M2960 3890 c0 -5 5 -10 11 -10 5 0 7 5 4 10 -3 6 -8 10 -11 10 -2 0
-4 -4 -4 -10z"/>
<path d="M2914 3859 c-16 -17 -16 -22 -4 -29 8 -6 20 -9 25 -9 6 0 4 3 -2 6
-7 2 -13 9 -13 15 0 6 7 8 15 5 8 -4 17 -2 20 4 4 5 1 8 -7 7 -7 -2 -12 3 -10
10 3 17 -2 15 -24 -9z"/>
<path d="M2145 3779 c-4 -6 -5 -12 -2 -15 2 -3 7 2 10 11 7 17 1 20 -8 4z"/>
<path d="M2222 3776 c7 -8 15 -12 17 -11 5 6 -10 25 -20 25 -5 0 -4 -6 3 -14z"/>
<path d="M2111 3724 c-12 -27 -11 -28 4 -12 10 9 16 21 13 28 -2 7 -10 -1 -17
-16z"/>
<path d="M2144 3726 c-9 -19 -8 -27 5 -38 15 -12 19 -12 30 -1 11 12 10 14 -5
11 -15 -2 -18 2 -16 25 4 33 0 34 -14 3z"/>
<path d="M2200 3689 c0 -5 5 -7 10 -4 6 3 10 8 10 11 0 2 -4 4 -10 4 -5 0 -10
-5 -10 -11z"/>
<path d="M2085 3680 c-3 -5 3 -10 15 -10 12 0 18 5 15 10 -3 6 -10 10 -15 10
-5 0 -12 -4 -15 -10z"/>
<path d="M4100 3676 c-14 -8 -36 -19 -50 -25 -24 -10 -24 -10 5 -5 17 4 44 15
60 25 35 21 22 25 -15 5z"/>
<path d="M2653 3647 c-4 -8 -21 -21 -38 -30 -16 -9 -25 -16 -18 -17 21 0 62
22 68 38 7 20 -1 27 -12 9z"/>
<path d="M4110 3630 c-14 -11 -36 -20 -50 -21 -24 -2 -24 -2 -2 -6 19 -4 92
30 92 43 0 9 -16 3 -40 -16z"/>
<path d="M2056 3622 c-3 -5 1 -9 9 -9 8 0 12 4 9 9 -3 4 -7 8 -9 8 -2 0 -6 -4
-9 -8z"/>
<path d="M2130 3596 c75 -28 76 -29 60 -17 -13 9 -13 11 3 11 10 0 17 -8 17
-20 0 -11 5 -20 10 -20 13 0 12 10 -3 35 -9 16 -24 20 -67 22 l-55 2 35 -13z"/>
<path d="M2058 3593 c7 -3 16 -2 19 1 4 3 -2 6 -13 5 -11 0 -14 -3 -6 -6z"/>
<path d="M2613 3576 c-44 -16 -53 -28 -13 -16 19 5 38 14 44 20 11 11 12 12
-31 -4z"/>
<path d="M2006 3543 c-6 -14 -5 -15 5 -6 7 7 10 15 7 18 -3 3 -9 -2 -12 -12z"/>
<path d="M2620 3540 c-13 -9 -13 -10 0 -10 8 0 22 5 30 10 13 9 13 10 0 10 -8
0 -22 -5 -30 -10z"/>
<path d="M2155 3470 c-3 -5 1 -10 10 -10 9 0 13 5 10 10 -3 6 -8 10 -10 10 -2
0 -7 -4 -10 -10z"/>
<path d="M1974 3456 c-3 -8 -4 -31 -2 -52 3 -36 4 -35 8 14 5 53 4 63 -6 38z"/>
<path d="M1992 3410 c0 -19 2 -27 5 -17 2 9 2 25 0 35 -3 9 -5 1 -5 -18z"/>
<path d="M2242 3400 c0 -14 2 -19 5 -12 2 6 2 18 0 25 -3 6 -5 1 -5 -13z"/>
<path d="M1982 3315 c0 -16 2 -22 5 -12 2 9 2 23 0 30 -3 6 -5 -1 -5 -18z"/>
<path d="M2285 3300 c-16 -7 -17 -9 -3 -9 9 -1 24 -8 32 -17 9 -8 16 -10 16
-4 0 6 -7 13 -15 16 -8 4 -12 10 -9 15 6 10 6 10 -21 -1z"/>
<path d="M2010 3290 c0 -5 9 -14 20 -20 22 -12 27 -1 8 18 -14 14 -28 16 -28
2z"/>
<path d="M2175 3291 c-6 -11 9 -23 19 -14 9 9 7 23 -3 23 -6 0 -12 -4 -16 -9z"/>
<path d="M2220 3292 c0 -12 22 -32 35 -32 5 0 3 5 -5 10 -13 9 -13 10 0 10 13
0 13 1 0 10 -18 12 -30 13 -30 2z"/>
<path d="M1990 3275 c0 -4 9 -18 20 -32 11 -14 20 -22 20 -18 0 4 -9 18 -20
32 -11 14 -20 22 -20 18z"/>
<path d="M2270 3251 c0 -5 9 -7 20 -4 11 3 20 7 20 9 0 2 -9 4 -20 4 -11 0
-20 -4 -20 -9z"/>
<path d="M2160 3243 c0 -5 14 -9 30 -10 17 -1 30 2 30 7 0 6 -13 10 -30 10
-16 0 -30 -3 -30 -7z"/>
<path d="M2106 3208 c3 -10 1 -18 -5 -18 -6 0 -11 5 -11 11 0 5 -4 8 -9 4 -12
-7 -63 -116 -57 -122 2 -2 19 -6 38 -9 l35 -6 27 66 c29 73 32 86 14 68 -9 -9
-14 -7 -25 6 -12 16 -13 16 -7 0z"/>
<path d="M2168 3213 c6 -2 18 -2 25 0 6 3 1 5 -13 5 -14 0 -19 -2 -12 -5z"/>
<path d="M4750 3020 c-24 -24 -25 -29 -4 -59 12 -17 15 -38 12 -82 l-4 -59 28
0 c15 0 31 -1 36 -2 4 -2 9 22 12 52 l5 55 140 0 140 0 1 -50 c1 -55 1 -55 44
-55 30 0 30 0 30 58 1 34 6 65 15 76 39 51 0 99 -56 70 -46 -23 -292 -23 -337
0 -39 20 -38 20 -62 -4z"/>
<path d="M1881 2879 c-18 -51 -14 -66 20 -78 54 -19 110 -13 177 19 34 16 62
32 62 36 0 3 -8 3 -17 -1 -10 -4 -44 -11 -77 -16 -75 -13 -119 1 -139 42 l-14
31 -12 -33z"/>
<path d="M1421 2349 c-28 -30 -56 -105 -91 -242 -43 -170 -40 -237 11 -237 28
0 169 168 169 202 0 4 -13 8 -29 8 -19 0 -35 8 -45 21 -18 27 -11 50 54 161
43 74 46 84 32 96 -25 19 -79 15 -101 -9z"/>
<path d="M1064 1830 c-39 -25 -48 -43 -83 -160 l-28 -95 -49 -5 c-67 -8 -142
-52 -118 -68 7 -5 6 -16 -2 -30 -9 -18 -14 -20 -20 -11 -4 7 -3 14 4 17 14 4
16 22 3 22 -4 0 -21 -28 -36 -62 -15 -35 -36 -83 -47 -107 -10 -24 -28 -67
-39 -95 -11 -28 -27 -64 -34 -81 -15 -33 -65 -165 -65 -172 0 -2 5 -1 12 3 6
4 8 3 4 -4 -4 -7 9 -12 36 -15 l43 -4 -41 -1 c-34 -2 -43 -6 -47 -24 -4 -12
-9 -19 -12 -16 -4 3 -2 16 5 27 6 12 7 21 2 21 -9 0 -21 -32 -22 -52 0 -5 342
-8 761 -8 l761 0 -7 28 c-19 77 -219 558 -244 586 -30 34 -70 46 -168 52 -54
4 -101 11 -105 17 -4 7 -17 50 -30 96 -18 66 -31 94 -59 123 l-36 38 -154 0
c-136 0 -158 -3 -185 -20z m270 -26 c22 -8 20 -31 -11 -135 l-27 -90 -54 3
-54 3 -29 95 c-16 52 -29 96 -29 97 0 1 7 9 16 17 11 12 36 16 94 16 43 0 85
-3 94 -6z m-244 -26 c0 -13 11 -59 25 -103 14 -44 25 -83 25 -87 0 -5 -31 -8
-70 -8 -38 0 -70 3 -70 8 0 13 50 167 62 190 6 12 15 22 20 22 4 0 8 -10 8
-22z m365 -97 c14 -47 25 -88 25 -93 0 -4 -32 -8 -71 -8 -62 0 -70 2 -65 18
51 176 58 194 72 180 7 -7 25 -51 39 -97z m-417 -128 c-2 -10 -10 -17 -16 -15
-7 1 -12 -7 -12 -19 0 -12 -8 -23 -20 -26 -11 -3 -20 -10 -20 -15 0 -5 5 -6
10 -3 6 3 10 1 10 -4 0 -14 1 -14 -48 9 -24 12 -47 18 -52 15 -17 -11 -11 3
15 30 21 24 30 27 75 23 37 -2 49 0 45 10 -2 6 0 12 6 12 6 0 9 -8 7 -17z
m235 10 c-7 -2 -21 -2 -30 0 -10 3 -4 5 12 5 17 0 24 -2 18 -5z m-363 -7 c0
-3 -4 -8 -10 -11 -5 -3 -10 -1 -10 4 0 6 5 11 10 11 6 0 10 -2 10 -4z m444
-14 c3 -5 -1 -20 -9 -35 -7 -14 -11 -28 -9 -30 3 -3 -2 -7 -10 -10 -10 -4 -13
-1 -9 9 4 10 0 12 -13 7 -11 -3 -22 -11 -26 -17 -5 -7 -8 -4 -8 7 0 9 -4 17
-9 17 -11 0 -19 30 -14 48 5 14 99 17 107 4z m-504 -22 c0 -5 -10 -10 -22 -10
-19 0 -20 2 -8 10 19 13 30 13 30 0z m190 -10 c0 -5 -4 -10 -10 -10 -5 0 -10
5 -10 10 0 6 5 10 10 10 6 0 10 -4 10 -10z m189 -5 c5 2 6 -7 3 -21 -5 -30 -7
-28 -15 11 -4 17 -4 24 -1 17 3 -6 9 -10 13 -7z m268 -7 c-3 -8 -6 -5 -6 6 -1
11 2 17 5 13 3 -3 4 -12 1 -19z m-590 -30 c-3 -8 -6 -5 -6 6 -1 11 2 17 5 13
3 -3 4 -12 1 -19z m113 12 c0 -5 -4 -10 -10 -10 -5 0 -10 5 -10 10 0 6 5 10
10 10 6 0 10 -4 10 -10z m187 -12 c-3 -8 -6 -5 -6 6 -1 11 2 17 5 13 3 -3 4
-12 1 -19z m53 2 c0 -5 -4 -10 -10 -10 -5 0 -10 5 -10 10 0 6 5 10 10 10 6 0
10 -4 10 -10z m-477 -39 c3 8 4 -1 4 -18 -1 -18 -3 -33 -4 -33 -1 0 -9 13 -18
30 -18 36 -20 65 -1 31 10 -18 15 -20 19 -10z m677 4 c0 -8 -4 -15 -10 -15 -5
0 -10 7 -10 15 0 8 5 15 10 15 6 0 10 -7 10 -15z m-729 -48 c-10 -9 -11 -8 -5
6 3 10 9 15 12 12 3 -3 0 -11 -7 -18z m734 -25 c-4 -4 -163 -7 -353 -7 l-347
-1 345 6 c190 3 346 7 348 8 1 1 3 12 3 25 2 22 2 22 6 -1 3 -13 2 -27 -2 -30z
m-743 -53 c5 -3 3 -9 -4 -11 -9 -4 -14 3 -15 21 -1 14 1 19 4 11 3 -8 10 -18
15 -21z m721 14 c3 -5 -95 -7 -216 -5 -421 4 -461 8 -125 10 185 1 339 -1 341
-5z m-723 -58 c0 -8 -7 -15 -15 -15 -13 0 -14 3 -3 15 16 18 18 18 18 0z m-54
-33 c-18 -16 -18 -16 -6 6 6 13 14 21 18 18 3 -4 -2 -14 -12 -24z m791 -14
c-3 -7 -5 -2 -5 12 0 14 2 19 5 13 2 -7 2 -19 0 -25z m285 20 c8 -7 20 -33 26
-58 12 -50 2 -73 -32 -68 -27 4 -51 82 -36 116 11 25 20 27 42 10z m-1027 -18
c3 -6 -1 -7 -9 -4 -18 7 -21 14 -7 14 6 0 13 -4 16 -10z m-81 -83 c-9 -5 -18
-6 -21 -3 -4 3 -1 6 5 6 7 0 12 8 12 18 0 14 2 15 10 2 6 -10 4 -17 -6 -23z
m-7 -49 c-3 -8 -6 -5 -6 6 -1 11 2 17 5 13 3 -3 4 -12 1 -19z m-26 -35 c-8
-15 -10 -15 -11 -2 0 17 10 32 18 25 2 -3 -1 -13 -7 -23z m16 -45 c-3 -7 -5
-2 -5 12 0 14 2 19 5 13 2 -7 2 -19 0 -25z m-13 -27 c-7 -8 -30 25 -26 37 3 9
8 6 16 -10 7 -12 11 -25 10 -27z m753 -17 c-3 -3 -12 -4 -19 -1 -8 3 -5 6 6 6
11 1 17 -2 13 -5z m10 -36 c-3 -8 -6 -5 -6 6 -1 11 2 17 5 13 3 -3 4 -12 1
-19z m20 0 c-3 -8 -6 -5 -6 6 -1 11 2 17 5 13 3 -3 4 -12 1 -19z"/>
<path d="M2458 868 l-25 -32 -93 18 -93 19 -28 -31 c-35 -39 -46 -77 -29 -97
11 -13 55 -15 304 -13 282 3 291 4 291 23 0 23 -47 52 -160 95 -44 17 -88 35
-97 40 -29 16 -44 12 -70 -22z"/>
</g>
</svg>
