<?xml version="1.0" standalone="no"?>
<!DOCTYPE svg PUBLIC "-//W3C//DTD SVG 20010904//EN"
 "http://www.w3.org/TR/2001/REC-SVG-20010904/DTD/svg10.dtd">
<svg version="1.0" xmlns="http://www.w3.org/2000/svg"
 width="736.000000pt" height="500.000000pt" viewBox="0 0 736.000000 500.000000"
 preserveAspectRatio="xMidYMid meet">

<g transform="translate(0.000000,500.000000) scale(0.100000,-0.100000)"
fill="#000000" stroke="none">
<path d="M5511 4281 l-31 -29 0 -172 0 -172 28 6 c49 10 277 47 295 49 10 1
15 7 12 15 -3 7 -5 18 -5 23 0 5 -24 9 -52 9 -66 0 -128 10 -128 21 0 4 40 11
89 14 l90 7 6 38 c4 22 18 49 35 65 16 16 27 33 23 38 -3 6 -1 7 5 3 8 -5 60
12 90 30 2 2 6 21 8 43 l4 41 -219 0 -219 0 -31 -29z m444 -21 c-27 -12 -43
-12 -25 0 8 5 22 9 30 9 10 0 8 -3 -5 -9z m-155 -195 c0 -5 -5 -3 -10 5 -5 8
-10 20 -10 25 0 6 5 3 10 -5 5 -8 10 -19 10 -25z m-105 -65 c13 -6 15 -9 5 -9
-8 0 -22 4 -30 9 -18 12 -2 12 25 0z m102 -6 c-3 -3 -12 -4 -19 -1 -8 3 -5 6
6 6 11 1 17 -2 13 -5z m-300 -56 c-3 -8 -6 -5 -6 6 -1 11 2 17 5 13 3 -3 4
-12 1 -19z"/>
<path d="M6023 4290 c1 -11 4 -20 8 -20 3 0 4 -11 1 -25 -3 -18 0 -25 12 -25
21 0 84 -40 113 -71 12 -13 25 -40 30 -59 l9 -35 85 -8 c140 -14 125 -24 -56
-39 -21 -2 -31 -9 -33 -23 -2 -18 8 -22 110 -38 62 -10 122 -15 133 -12 14 5
16 4 7 -3 -11 -7 -8 -10 12 -14 17 -3 23 -1 19 6 -3 6 0 5 8 -1 7 -7 21 -13
31 -13 17 0 18 13 18 169 l0 169 -29 31 -29 31 -225 0 c-220 0 -226 -1 -224
-20z m424 4 c-3 -3 -12 -4 -19 -1 -8 3 -5 6 6 6 11 1 17 -2 13 -5z m-387 -54
c0 -5 -2 -10 -4 -10 -3 0 -8 5 -11 10 -3 6 -1 10 4 10 6 0 11 -4 11 -10z m147
-172 c-3 -8 -6 -5 -6 6 -1 11 2 17 5 13 3 -3 4 -12 1 -19z m23 -72 c0 -2 -7
-9 -15 -16 -13 -11 -14 -10 -9 4 5 14 24 23 24 12z"/>
<path d="M1314 4240 c-182 -7 -174 2 -173 -199 0 -86 4 -198 7 -249 10 -129
16 -134 174 -129 65 1 119 5 122 8 7 7 -26 119 -36 119 -8 0 -12 -16 -9 -33 2
-11 -32 -67 -40 -67 -20 0 -31 34 -27 79 l5 49 -48 -35 c-27 -19 -50 -29 -53
-24 -11 17 5 61 27 76 25 17 15 20 -14 5 -16 -9 -19 -7 -19 9 0 32 28 51 74
51 30 0 48 -6 61 -20 18 -20 18 -20 36 19 9 22 29 47 44 57 22 14 32 15 65 5
22 -6 44 -20 50 -31 13 -25 13 -33 -2 -24 -29 18 -95 5 -122 -25 -15 -17 -15
-18 6 -16 53 5 108 -46 108 -99 l0 -29 -22 20 c-19 17 -103 63 -115 63 -2 0 3
-10 11 -22 7 -13 21 -47 31 -75 l17 -53 54 0 c30 0 54 2 54 5 0 32 44 305 55
342 8 26 15 49 15 50 0 8 -108 -62 -120 -78 -20 -25 -30 -15 -30 27 0 27 8 39
40 66 23 17 53 34 68 36 15 2 28 4 29 5 5 6 -67 48 -83 48 -30 1 -69 -7 -82
-15 -23 -14 -12 16 17 45 24 23 38 29 74 29 38 0 49 -5 71 -31 14 -17 26 -34
26 -37 0 -4 4 -13 9 -20 6 -11 14 -8 36 12 38 36 90 44 122 19 14 -10 30 -29
34 -41 8 -21 6 -23 -14 -16 -12 4 -29 9 -37 11 -8 3 -3 -3 12 -13 27 -18 48
-53 48 -79 0 -17 -16 -20 -25 -5 -3 6 -14 10 -23 10 -9 0 -28 9 -42 20 -32 25
-59 28 -39 4 18 -22 23 -102 8 -120 -10 -13 -14 -12 -30 2 -10 9 -26 37 -35
61 -13 32 -20 41 -25 30 -12 -21 -39 -239 -39 -315 l0 -67 43 -26 c23 -15 64
-39 91 -54 l48 -28 -3 64 -4 64 30 3 c98 9 99 13 96 237 -3 238 -8 285 -34
313 -21 22 -24 23 -232 20 -115 -1 -269 -5 -341 -8z"/>
<path d="M5955 4171 c-34 -21 -59 -48 -68 -73 -6 -17 4 -18 113 -18 66 0 120
3 120 6 0 15 -22 44 -30 39 -6 -3 -7 0 -5 7 4 9 -10 22 -34 36 -47 27 -58 27
-96 3z m90 -11 c3 -5 1 -10 -4 -10 -6 0 -11 5 -11 10 0 6 2 10 4 10 3 0 8 -4
11 -10z m-32 -17 c-7 -2 -19 -2 -25 0 -7 3 -2 5 12 5 14 0 19 -2 13 -5z m-106
-45 c-3 -8 -6 -5 -6 6 -1 11 2 17 5 13 3 -3 4 -12 1 -19z m46 -5 c-7 -2 -19
-2 -25 0 -7 3 -2 5 12 5 14 0 19 -2 13 -5z"/>
<path d="M1758 4133 c7 -3 16 -2 19 1 4 3 -2 6 -13 5 -11 0 -14 -3 -6 -6z"/>
<path d="M1718 4123 c7 -3 16 -2 19 1 4 3 -2 6 -13 5 -11 0 -14 -3 -6 -6z"/>
<path d="M3154 3938 c-49 -12 -54 -37 -54 -259 0 -199 0 -200 25 -224 34 -35
78 -34 91 3 8 22 9 12 9 -50 0 -43 -4 -78 -9 -78 -5 0 -7 -3 -4 -6 3 -3 47 20
96 50 l90 56 174 0 c135 0 179 3 194 14 16 12 20 32 25 118 4 57 7 153 8 214
1 98 -1 114 -20 138 l-20 26 -160 0 c-87 0 -159 -4 -159 -9 0 -5 64 -7 148 -5
148 3 182 0 182 -16 0 -5 -8 -7 -17 -4 -14 5 -13 2 3 -13 17 -14 23 -34 28
-90 10 -105 -3 -293 -21 -300 -21 -8 -30 7 -10 18 19 11 25 93 7 104 -14 9
-24 -21 -15 -42 11 -27 13 -53 3 -47 -5 4 -7 12 -4 20 3 8 1 14 -4 14 -6 0
-10 15 -10 33 0 23 -3 28 -10 17 -5 -8 -12 -11 -16 -7 -4 4 0 15 9 25 10 10
17 31 17 47 0 23 -2 26 -15 15 -17 -14 -20 -3 -5 20 16 24 32 -8 26 -52 -2
-21 0 -38 5 -38 5 0 9 5 9 11 0 5 5 7 10 4 6 -3 10 3 10 15 0 12 -4 19 -9 16
-10 -7 -8 41 4 67 11 26 -1 128 -17 138 -23 15 -36 10 -42 -16 -4 -16 -11 -23
-18 -19 -7 4 -8 3 -4 -5 6 -9 11 -9 22 0 17 14 18 8 2 -26 l-12 -26 -142 3
c-78 2 -140 0 -137 -4 2 -5 -1 -8 -6 -8 -6 0 -11 -7 -11 -15 0 -12 -15 -15
-75 -15 -41 0 -75 -4 -75 -8 0 -5 27 -6 60 -4 53 4 59 2 54 -12 -7 -19 -21
-21 -27 -3 -3 9 -7 9 -20 -2 -11 -9 -17 -10 -17 -2 0 15 -27 14 -33 -1 -4 -10
-8 -9 -16 2 -10 13 -12 13 -21 0 -5 -8 -10 -10 -10 -5 0 6 5 16 11 22 9 9 7
12 -7 11 -13 -1 -19 -10 -20 -27 -1 -26 -1 -26 73 -23 68 3 74 2 71 -14 -3
-15 -12 -18 -53 -16 -47 3 -49 2 -25 -11 17 -9 27 -10 32 -3 5 8 8 8 8 0 0
-16 33 -13 48 5 8 9 11 11 8 5 -3 -7 1 -15 10 -18 21 -8 31 -7 19 2 -5 4 -16
18 -23 30 -12 21 -11 27 4 43 13 15 20 16 31 8 7 -7 16 -9 20 -5 3 3 2 6 -4 6
-6 0 -10 10 -9 23 1 22 4 22 145 25 128 2 143 1 137 -14 -3 -8 -6 -16 -6 -17
0 -1 -58 -1 -130 1 -71 2 -130 -1 -130 -5 0 -4 56 -7 125 -5 108 3 125 1 125
-12 0 -13 -11 -16 -47 -15 -47 2 -47 2 -13 9 l35 7 -37 2 c-21 0 -38 -3 -38
-9 0 -5 -5 -10 -11 -10 -5 0 -7 4 -4 10 4 6 -4 6 -22 -1 -19 -7 -29 -7 -31 0
-2 6 -20 11 -40 11 -26 0 -33 -3 -23 -9 10 -6 1 -9 -29 -8 -24 1 -45 -3 -47
-8 -2 -6 27 -9 73 -7 74 4 77 3 71 -18 -4 -16 -2 -20 8 -16 8 3 17 1 20 -4 3
-4 -1 -10 -7 -13 -7 -2 2 -4 19 -3 18 1 33 6 33 11 0 6 4 4 9 -4 6 -10 22 -12
55 -9 25 3 46 2 46 -2 0 -4 -42 -8 -94 -9 -87 -2 -95 0 -101 19 -7 22 -35 28
-35 8 0 -9 -3 -9 -8 -3 -4 6 -20 12 -37 13 -26 1 -27 0 -12 -9 11 -6 34 -11
53 -11 19 0 34 -4 34 -8 0 -5 -49 -9 -110 -9 -68 -1 -110 3 -110 9 0 14 -37
12 -43 -2 -2 -8 -8 -9 -13 -4 -5 5 -4 11 4 13 18 7 14 22 -6 20 -12 -1 -18 -9
-17 -27 0 -24 3 -26 33 -21 19 4 129 4 245 1 180 -4 212 -7 212 -20 0 -12 -19
-16 -102 -18 -89 -2 -102 -1 -97 13 3 8 2 15 -4 15 -5 0 -13 -11 -16 -25 -7
-26 -20 -32 -31 -15 -3 6 -42 10 -85 10 -43 0 -82 -4 -85 -10 -3 -5 -12 -10
-18 -10 -7 0 -6 4 3 10 17 11 17 11 -26 13 -22 1 -30 -2 -27 -10 3 -7 -2 -13
-10 -13 -25 0 -28 -39 -4 -51 20 -11 20 -12 1 -27 -16 -12 -16 -14 -1 -9 24 9
21 2 -8 -17 -19 -13 -23 -13 -19 -2 4 11 0 13 -14 9 -11 -2 -23 0 -26 6 -5 7
0 9 11 5 15 -5 15 -4 3 4 -8 6 -17 9 -21 7 -3 -3 -7 88 -7 200 -1 198 -1 206
20 225 23 21 63 27 73 10 3 -5 18 -10 32 -10 38 0 25 -6 -24 -13 -42 -5 -61 7
-25 16 14 4 13 5 -4 6 -11 0 -29 -9 -40 -21 -18 -21 -18 -21 0 -15 15 6 17 4
10 -10 -16 -37 -17 -133 0 -151 9 -11 16 -43 19 -87 l3 -70 2 77 c1 42 6 88
11 101 6 16 6 37 -1 60 -13 44 -4 87 20 86 10 0 12 -3 5 -6 -7 -2 -13 -10 -13
-16 0 -9 63 -12 236 -12 231 0 237 0 251 22 14 21 13 21 -24 18 -36 -2 -36 -2
-8 6 18 5 -25 6 -105 3 -74 -3 -139 -9 -144 -14 -13 -13 -46 -13 -46 0 0 6
-21 11 -47 11 -38 1 -31 4 35 11 46 6 80 13 77 16 -3 3 -47 5 -98 4 -65 -2
-88 1 -77 8 18 12 -46 11 -96 -2z m401 -48 c-27 -5 -66 -8 -85 -8 -32 1 -31 2
10 8 25 4 63 7 85 7 38 0 37 0 -10 -7z m203 -93 c0 -58 -21 -92 -30 -49 -3 13
-7 11 -21 -13 -11 -20 -16 -24 -17 -13 0 10 10 27 22 38 21 19 23 20 30 3 5
-15 7 -14 7 6 1 20 -3 22 -26 17 -16 -3 -22 -3 -15 0 6 3 12 13 13 22 0 11 2
12 6 5 2 -7 9 -13 15 -13 6 0 7 7 4 16 -3 8 -2 12 3 9 6 -3 10 -15 9 -28z
m-261 -83 c-3 -3 -12 -4 -19 -1 -8 3 -5 6 6 6 11 1 17 -2 13 -5z m191 -20 c34
-11 0 -26 -62 -27 -58 -2 -70 1 -74 15 -2 10 -8 15 -13 12 -5 -3 -9 -1 -9 3 0
8 132 6 158 -3z m28 -41 c-10 -10 -19 5 -10 18 6 11 8 11 12 0 2 -7 1 -15 -2
-18z m8 -80 c4 -10 1 -20 -9 -25 -8 -5 -15 -17 -15 -27 0 -16 -10 -18 -67 -20
-38 -1 -98 -4 -135 -6 -41 -2 -68 0 -68 7 0 5 -17 8 -37 6 -20 -1 -38 2 -40 8
-5 16 68 24 207 24 98 0 119 3 124 16 3 8 10 12 16 9 6 -3 7 1 4 9 -3 9 -2 16
4 16 5 0 13 -8 16 -17z m-484 -12 c0 -5 10 -12 23 -15 12 -2 5 -4 -15 -2 -21
1 -38 -2 -38 -6 0 -4 11 -8 25 -8 14 0 25 -6 26 -12 0 -10 2 -10 6 -1 3 9 11
6 26 -8 12 -11 27 -17 34 -15 9 4 13 -6 13 -35 0 -33 -4 -41 -26 -49 -14 -6
-31 -7 -37 -3 -7 4 -6 -1 2 -10 13 -16 8 -22 -13 -18 -5 1 -13 -4 -17 -11 -4
-7 -11 -9 -15 -5 -4 4 1 14 12 23 16 13 17 15 2 10 -14 -4 -18 0 -18 19 0 14
4 25 10 25 5 0 7 -7 4 -15 -4 -8 -1 -15 5 -15 6 0 11 11 11 24 0 13 5 26 12
28 7 3 6 7 -5 11 -12 4 -17 1 -17 -11 0 -13 -4 -11 -15 8 -37 65 -38 69 -25
85 14 17 30 20 30 6z m139 6 c-2 -1 -13 -9 -24 -17 -19 -14 -19 -14 -6 3 7 9
18 17 24 17 6 0 8 -1 6 -3z m381 -89 c0 -5 6 -6 13 -2 6 4 5 -1 -5 -11 -14
-15 -21 -16 -49 -6 -17 6 -53 12 -78 13 l-46 1 50 6 c75 9 115 9 115 -1z
m-337 -10 c-3 -6 -17 -7 -32 -3 -14 4 -22 3 -18 -2 5 -4 83 -8 173 -9 91 -1
168 -5 172 -8 3 -4 -69 -6 -162 -5 -113 0 -172 -3 -181 -11 -11 -9 -13 -6 -11
17 4 33 0 30 36 30 16 0 27 -4 23 -9z m80 5 c-13 -2 -33 -2 -45 0 -13 2 -3 4
22 4 25 0 35 -2 23 -4z"/>
<path d="M3700 3910 c19 -13 30 -13 30 0 0 6 -10 10 -22 10 -19 0 -20 -2 -8
-10z"/>
<path d="M5578 3876 c-14 -15 -37 -26 -58 -28 -35 -3 -35 -4 -38 -54 -3 -47 0
-54 28 -78 22 -18 43 -26 69 -26 21 0 40 -2 42 -5 3 -2 2 -37 -2 -77 -9 -77
-5 -93 15 -66 7 10 16 15 19 11 4 -3 7 -1 7 5 0 6 12 17 28 24 16 8 26 21 25
32 -1 12 2 15 9 8 7 -7 15 -7 22 -1 6 5 28 23 50 39 l39 30 316 0 c346 0 346
0 370 58 7 16 11 45 9 63 -3 31 -6 34 -37 37 -19 2 -48 14 -64 28 -35 29 -61
30 -86 5 -18 -18 -28 -19 -90 -12 -67 7 -96 0 -50 -12 17 -5 20 -12 17 -44 -3
-37 -4 -38 -45 -40 l-43 -3 0 40 c0 27 5 42 18 49 16 9 16 10 0 16 -10 4 -37
-3 -64 -16 -49 -23 -149 -35 -159 -19 -3 6 0 8 7 7 7 -2 10 -2 6 0 -4 3 -10 4
-13 3 -3 0 -13 6 -21 15 -32 31 -43 19 -37 -40 l6 -55 -44 3 c-43 2 -44 3 -47
40 -3 32 0 39 17 44 12 3 21 8 21 12 0 9 -103 1 -113 -9 -5 -4 -19 3 -32 16
-31 31 -68 31 -97 0z m104 -32 c10 -20 8 -29 -10 -53 -12 -16 -17 -32 -12 -37
5 -5 -2 -10 -17 -11 -16 0 -21 2 -14 7 9 5 3 10 -15 14 -35 9 -44 22 -44 62 0
67 84 80 112 18z m736 28 c7 -5 16 -22 21 -39 7 -25 6 -35 -9 -48 -19 -17
-103 -28 -94 -13 3 4 1 8 -3 8 -14 0 -15 53 -2 78 13 23 60 31 87 14z m-866
-64 c-8 -8 -9 -4 -5 13 4 13 8 18 11 10 2 -7 -1 -18 -6 -23z m568 7 c0 -14 -4
-25 -9 -25 -4 0 -6 11 -3 25 2 14 6 25 8 25 2 0 4 -11 4 -25z m-150 1 c0 -2
-11 -6 -25 -8 -14 -3 -25 -1 -25 3 0 5 11 9 25 9 14 0 25 -2 25 -4z m-75 -16
c3 -5 1 -10 -4 -10 -6 0 -11 5 -11 10 0 6 2 10 4 10 3 0 8 -4 11 -10z m335
-40 c0 -5 -5 -10 -11 -10 -5 0 -7 5 -4 10 3 6 8 10 11 10 2 0 4 -4 4 -10z
m-623 -15 c0 -8 -4 -12 -9 -9 -5 3 -6 10 -3 15 9 13 12 11 12 -6z m235 1 c7 4
8 2 4 -5 -9 -13 -26 -5 -25 12 0 9 2 8 6 -1 2 -6 10 -9 15 -6z m330 5 c8 11 9
11 6 1 -4 -16 -22 -18 -25 -2 -1 7 0 6 4 -1 4 -8 8 -7 15 2z m-627 -29 c-3 -3
-11 0 -18 7 -9 10 -8 11 6 5 10 -3 15 -9 12 -12z m835 8 c-8 -5 -19 -10 -25
-10 -5 0 -3 5 5 10 8 5 20 10 25 10 6 0 3 -5 -5 -10z m-546 -32 c-3 -4 -12 -4
-21 -1 -12 5 -14 3 -8 -7 5 -9 4 -11 -4 -6 -16 10 -4 25 19 23 10 -1 17 -5 14
-9z m613 6 c-3 -3 -12 -4 -19 -1 -8 3 -5 6 6 6 11 1 17 -2 13 -5z"/>
<path d="M5841 3864 c0 -11 3 -14 6 -6 3 7 2 16 -1 19 -3 4 -6 -2 -5 -13z"/>
<path d="M3347 3818 c-7 -5 68 -8 166 -7 98 0 176 4 172 7 -9 10 -323 9 -338
0z"/>
<path d="M3210 3788 c0 -5 42 -7 93 -6 94 1 82 5 -31 10 -34 2 -62 0 -62 -4z"/>
<path d="M3153 3640 c0 -41 2 -58 4 -37 2 20 2 54 0 75 -2 20 -4 3 -4 -38z"/>
<path d="M2063 3549 c-45 -17 -83 -109 -110 -269 -13 -80 -20 -99 -43 -120
-60 -54 -59 -53 -70 -381 -6 -192 -6 -305 0 -307 6 -2 10 -10 10 -18 0 -9 4
-13 9 -10 5 4 7 -3 4 -15 -4 -13 -8 -17 -13 -9 -5 8 -9 7 -14 -5 -10 -26 -7
-42 5 -25 8 12 9 11 5 -5 -50 -186 -58 -238 -66 -410 l-8 -180 3 180 c3 155 7
194 29 284 15 57 25 106 23 108 -7 6 -47 -161 -60 -252 -9 -60 -12 -153 -9
-277 3 -134 1 -188 -7 -188 -8 0 -11 49 -11 159 0 123 -3 161 -14 170 -9 8
-51 11 -122 9 l-109 -3 -3 -164 c-1 -92 -7 -170 -13 -177 -6 -7 -44 -13 -95
-15 -76 -4 -88 -7 -105 -28 -10 -13 -19 -35 -19 -50 0 -21 2 -23 11 -11 9 12
10 11 4 -4 -3 -11 -6 -184 -5 -384 0 -325 2 -366 17 -390 24 -37 32 -42 77
-42 33 0 37 -3 30 -17 -4 -10 -7 -30 -6 -45 l1 -28 -227 -2 -227 -1 175 -7
c836 -35 4181 -35 5055 0 l180 7 -210 1 c-227 2 -404 11 -403 21 2 19 -3 31
-12 26 -14 -8 -50 31 -50 55 0 21 -41 70 -58 70 -13 0 -36 192 -29 238 4 22
17 46 32 59 30 26 31 33 6 33 -11 0 -22 8 -25 18 -6 21 -39 138 -60 215 -14
49 -20 57 -41 57 -13 0 -26 -3 -28 -7 -2 -5 13 -65 33 -135 39 -134 37 -147
-14 -107 -25 19 -30 20 -53 8 -30 -16 -83 -104 -83 -138 0 -14 7 -32 15 -41
12 -14 13 -23 5 -45 -6 -15 -9 -28 -8 -29 76 -30 168 -95 168 -117 0 -5 -49
-9 -110 -9 l-110 0 -3 318 -2 317 -3 -317 -2 -318 -74 0 -73 0 -7 92 c-11 156
-9 166 24 200 17 17 30 31 28 33 -2 1 -30 7 -63 14 -33 6 -72 20 -87 31 -35
26 -39 26 -75 -10 -44 -43 -66 -95 -71 -165 l-4 -61 75 -37 c42 -21 86 -50 97
-65 l22 -27 -46 -3 c-50 -3 -86 -35 -86 -77 0 -13 -7 -25 -15 -29 -8 -3 -15
-15 -15 -26 0 -18 -6 -20 -75 -20 -41 0 -75 3 -75 8 0 4 20 77 44 162 l44 155
-22 17 c-11 9 -24 14 -27 10 -3 -4 -28 -85 -54 -180 l-48 -172 -268 0 c-150 0
-269 4 -269 9 0 5 63 89 139 187 102 132 136 182 129 192 -18 22 -50 13 -132
-36 -45 -27 -100 -56 -122 -65 -40 -15 -84 -14 -84 3 0 5 55 38 123 75 67 37
127 71 132 77 7 6 3 15 -12 27 -18 15 -31 17 -80 10 -32 -5 -95 -12 -140 -15
-94 -8 -121 3 -149 59 -21 41 -18 39 -37 31 -9 -3 -21 -23 -27 -44 -9 -35 -13
-38 -56 -43 -26 -2 -50 -10 -54 -17 -5 -9 -9 -9 -14 -1 -4 6 -22 10 -39 10
-27 -2 -28 -2 -7 -6 23 -5 69 -31 62 -36 -7 -4 11 -63 24 -78 12 -13 12 -16
-1 -16 -8 0 -12 4 -9 9 3 4 -3 5 -12 1 -12 -4 -15 -3 -10 5 4 7 2 10 -6 7 -17
-7 -51 82 -34 89 6 2 1 5 -11 5 -26 1 -30 -11 -8 -29 8 -7 15 -22 15 -34 0
-18 -2 -19 -11 -6 -8 11 -9 8 -4 -15 l6 -30 -31 33 c-16 19 -28 37 -25 42 3 4
-1 10 -8 13 -8 3 -13 -2 -12 -13 1 -10 39 -51 86 -91 95 -82 123 -129 33 -54
l-59 48 60 -56 c92 -86 48 -67 -62 26 -84 71 -356 288 -403 320 -49 35 33 -34
165 -138 200 -158 315 -255 315 -267 0 -6 -13 0 -29 13 -137 112 -428 344
-437 348 -18 10 45 -42 211 -175 88 -70 166 -133 173 -141 8 -7 29 -25 48 -39
18 -15 31 -31 27 -36 -3 -6 8 0 26 13 34 25 33 23 35 59 1 14 5 31 9 38 9 13
-30 34 -46 25 -13 -8 3 -22 18 -16 8 3 15 0 15 -6 0 -15 -29 -14 -45 2 -11 11
-10 15 6 25 23 15 73 16 64 2 -3 -6 4 -10 16 -10 22 0 22 0 3 -18 -10 -9 -20
-24 -22 -32 -2 -10 4 -7 18 8 24 25 40 29 40 8 0 -29 27 -38 59 -21 17 8 31
11 31 6 0 -6 -13 -17 -30 -26 -16 -9 -30 -21 -30 -28 0 -7 45 -50 101 -96 55
-45 99 -84 97 -86 -1 -2 -159 0 -351 3 l-347 5 -19 66 c-11 36 -39 133 -61
215 -23 82 -44 156 -47 164 -5 11 139 -89 269 -189 25 -18 27 -19 21 -2 -5 15
-4 16 8 5 8 -7 14 -18 14 -24 0 -15 124 -112 132 -104 10 9 -28 46 -41 39 -6
-3 -8 -3 -4 2 9 10 -138 135 -159 135 -9 0 -14 3 -10 6 5 6 -49 58 -62 60 -19
3 -40 17 -36 24 3 4 -6 15 -20 24 -17 11 -26 13 -31 4 -5 -7 -3 -8 6 -3 9 5
11 4 6 -3 -5 -9 -14 -7 -31 5 -13 10 -21 20 -19 22 2 2 10 -2 19 -9 21 -17 19
-3 -2 18 -34 33 -53 45 -53 33 0 -6 10 -16 23 -21 12 -5 15 -9 7 -9 -24 -1
-43 16 -37 32 3 9 1 17 -5 19 -6 2 -12 13 -12 24 -1 11 -6 25 -10 32 -4 7 -5
16 -2 19 3 4 -1 15 -11 25 -21 23 -6 24 21 1 12 -10 6 -1 -13 20 -34 36 -40
64 -6 31 44 -45 221 -174 231 -170 7 3 15 -2 18 -10 4 -10 1 -13 -7 -9 -14 8
25 -26 64 -55 23 -17 29 -18 38 -6 10 11 8 15 -6 19 -17 4 -17 5 0 6 10 0 15
6 12 11 -3 6 6 11 22 12 77 4 109 2 115 -7 4 -5 10 -6 14 -2 4 3 1 13 -6 22
-10 13 -2 24 51 75 35 33 67 60 72 60 4 0 7 8 7 18 0 14 -2 15 -10 2 -8 -13
-11 -12 -23 5 -20 26 -10 53 9 28 10 -12 9 -6 -2 19 -10 20 -22 34 -27 31 -5
-3 -7 0 -5 8 3 8 -5 34 -17 59 -13 25 -35 84 -50 132 -16 50 -32 85 -37 82 -7
-4 -7 -9 0 -13 5 -3 12 -28 15 -56 4 -34 3 -42 -3 -25 -7 23 -8 22 -7 -10 0
-19 -3 -44 -8 -55 -4 -11 5 -4 20 15 23 30 26 32 20 10 -4 -14 -13 -28 -19
-32 -8 -6 -8 -8 1 -8 7 0 17 8 22 18 6 9 10 13 11 7 0 -21 -18 -37 -40 -33
-33 4 -43 48 -24 95 15 34 14 38 -5 64 -24 32 -27 55 -8 62 6 3 -3 5 -20 4
-30 0 -32 -2 -26 -26 3 -14 6 -32 5 -41 -1 -8 -2 -48 -2 -88 0 -54 -3 -73 -13
-69 -14 4 -16 227 -3 287 7 33 5 37 -18 48 -34 15 -37 15 -30 -3 5 -12 -2 -15
-30 -15 -20 0 -36 4 -36 9 0 18 21 23 38 9 15 -12 16 -11 3 5 -7 9 -9 17 -3
17 5 0 9 7 8 16 0 9 5 19 12 21 8 3 10 -1 5 -12 -5 -14 -2 -16 13 -11 10 3 26
1 34 -4 13 -9 13 -11 0 -20 -12 -9 -12 -10 5 -8 16 2 20 -2 18 -22 l-3 -25 12
23 c9 19 8 26 -11 46 -24 26 -132 81 -179 92 -15 4 -31 10 -37 14 -20 15 -101
34 -155 36 -80 3 -80 3 -80 14 0 7 6 7 19 0 11 -6 22 -6 25 -1 7 10 -33 23
-47 14 -5 -3 -7 -13 -4 -23 3 -13 0 -17 -13 -15 -9 2 -24 -5 -33 -16 -15 -17
-14 -23 6 -20 4 0 7 -26 7 -59 0 -64 1 -65 57 -60 15 1 36 -12 59 -37 34 -35
37 -37 45 -18 4 11 8 27 8 35 0 8 -4 5 -9 -8 -9 -22 -10 -22 -28 -5 -10 10
-14 20 -9 22 5 2 13 -2 17 -9 5 -8 9 -7 14 5 9 24 8 27 -6 19 -9 -5 -9 -2 1 9
7 9 20 17 27 17 17 0 19 -20 2 -20 -7 0 -5 -5 5 -11 9 -5 17 -18 16 -27 0 -14
-2 -13 -9 3 -9 20 -9 20 -9 -1 -1 -11 4 -25 11 -32 6 -6 8 -15 4 -19 -4 -4
-11 -1 -16 7 -9 13 -10 13 -11 0 -1 -8 0 -21 1 -29 1 -9 -4 -12 -15 -7 -9 3
-19 6 -21 6 -3 0 -9 11 -14 25 -5 14 -21 30 -35 35 -14 5 -25 15 -25 21 0 7
-9 4 -22 -7 -20 -18 -21 -18 -15 -1 5 13 3 17 -5 14 -9 -2 -12 -23 -10 -64 2
-45 -1 -62 -12 -66 -10 -4 -16 5 -21 31 -3 20 -13 56 -22 80 -15 39 -15 44 2
62 9 10 15 26 12 35 -7 18 9 21 17 3 2 -7 4 -3 2 10 -1 12 -8 28 -14 34 -9 9
-8 16 6 31 17 20 17 20 -11 2 -15 -10 -32 -25 -37 -34 -11 -20 -25 -7 -34 32
l-7 28 53 -3 52 -3 26 50 25 50 788 3 c433 1 787 6 787 11 0 4 -8 15 -19 25
-16 14 -47 17 -254 16 -156 0 -238 4 -243 11 -4 7 39 10 140 7 80 -2 146 0
146 5 0 4 -74 7 -165 7 -91 0 -165 2 -165 5 0 2 5 27 11 54 l11 51 175 2 176
3 -39 28 -40 27 -391 0 -390 0 4 -27 4 -28 -13 25 c-8 14 -15 45 -17 70 -1 25
-15 164 -31 310 -24 221 -26 267 -15 279 11 11 71 12 347 6 l335 -7 13 -37
c17 -46 52 -101 65 -101 6 0 24 32 40 70 l30 70 117 0 c64 0 119 -4 123 -9 6
-11 65 -548 65 -597 0 -19 6 -34 15 -38 12 -4 14 1 10 23 -3 16 -9 69 -15 118
-5 48 -14 126 -19 173 -5 47 -12 114 -15 150 -16 184 -18 191 -56 197 -8 1
-61 3 -117 4 l-101 1 -7 34 c-6 35 -44 64 -83 64 -28 0 -72 -45 -72 -75 l0
-25 -334 0 c-384 0 -373 2 -362 -79 3 -25 11 -93 17 -151 48 -464 48 -460 64
-472 6 -4 83 -8 171 -8 l162 0 -2 -70 c-1 -66 -2 -70 -24 -70 -13 0 -20 4 -17
10 3 6 -3 10 -14 10 -12 0 -21 -4 -21 -10 0 -7 -222 -10 -645 -10 -385 0 -645
-4 -645 -9 0 -25 14 -41 36 -41 l24 0 -19 -50 -19 -50 29 0 c37 0 37 -6 0
-134 -16 -55 -35 -120 -41 -143 -14 -55 -40 -57 -85 -7 -32 35 -45 38 -105 25
-15 -3 29 -21 50 -20 l25 1 -25 8 -25 8 27 1 c18 1 31 -6 38 -20 11 -19 9 -20
-27 -13 -61 11 -75 21 -62 45 17 33 5 96 -38 199 -55 131 -72 237 -76 462 -1
103 -5 189 -7 192 -3 2 -41 -4 -85 -15 -124 -30 -205 -35 -243 -15 -18 9 -32
20 -32 25 0 5 38 35 85 66 47 32 85 62 85 67 0 6 39 7 101 4 90 -6 104 -4 134
14 34 21 65 60 65 81 0 19 -142 251 -180 293 -19 21 -44 42 -56 46 -20 8 -23
18 -29 107 -7 108 -28 205 -50 240 -28 42 -122 71 -172 52z m175 -168 c3 -55
-16 -104 -48 -121 -28 -15 -28 -70 0 -77 17 -5 20 -13 19 -67 0 -33 -4 -79 -8
-101 l-8 -40 -15 35 c-18 39 -24 27 -8 -16 19 -48 2 -38 -36 22 -20 33 -48 72
-60 87 -17 20 -23 37 -20 60 3 18 7 66 11 107 3 41 15 107 27 146 l21 72 61
-29 61 -29 3 -49z m2276 -353 c21 -30 20 -50 -4 -76 -25 -26 -57 -28 -82 -5
-22 20 -23 46 -2 78 21 32 67 34 88 3z m-2080 -628 c1 -22 -2 -40 -6 -40 -5 0
-8 8 -9 18 0 12 -3 10 -10 -7 -7 -17 -6 -27 1 -31 8 -5 8 -20 1 -51 -15 -65
16 -192 32 -131 3 9 3 -10 0 -43 -6 -78 -7 -81 -33 -88 -20 -5 -21 -3 -14 21
18 63 12 154 -10 146 -7 -3 -12 6 -14 22 -1 14 -6 33 -12 42 -8 14 -10 11 -10
-13 -1 -26 -3 -27 -10 -10 -5 13 -7 -5 -6 -48 1 -37 7 -72 14 -79 30 -30 2
-88 -43 -88 l-29 0 22 20 c16 15 22 31 21 58 l-2 37 -8 -40 c-6 -31 -7 -27 -3
20 3 33 7 76 9 95 3 25 1 30 -7 20 -7 -11 -8 -5 -4 20 4 31 4 32 -6 12 -8 -16
-8 -29 0 -46 7 -15 8 -35 2 -53 -4 -15 -9 -26 -10 -23 -4 13 -1 129 4 160 4
19 7 40 8 47 1 8 6 8 19 0 15 -9 24 -5 52 25 19 21 37 34 41 31 3 -4 6 6 6 22
0 43 13 20 14 -25z m-527 13 c4 -16 6 -32 5 -38 -1 -5 13 -9 31 -9 17 1 44 -5
59 -13 15 -7 30 -13 33 -13 34 1 45 -2 45 -12 0 -9 15 -13 44 -13 31 0 42 4
39 13 -3 6 -10 12 -15 12 -6 0 -8 6 -5 14 4 11 -10 16 -66 21 -78 7 -158 25
-152 35 8 13 150 -1 167 -17 14 -12 30 -14 75 -9 31 4 62 11 68 16 6 5 37 11
68 13 53 4 57 3 57 -17 0 -17 -2 -18 -10 -6 -6 10 -10 11 -10 3 0 -8 -13 -13
-30 -13 -22 0 -28 -4 -24 -15 5 -11 2 -13 -10 -9 -12 5 -16 1 -14 -17 2 -19
-1 -24 -19 -22 -17 2 -21 -1 -17 -15 5 -16 5 -15 -6 1 -6 9 -15 15 -19 12 -5
-2 -11 6 -13 19 -4 21 -2 24 21 21 38 -5 39 -6 11 -15 -23 -7 -23 -8 -3 -9 27
-1 41 18 22 30 -19 12 -77 8 -74 -5 3 -18 16 -50 26 -68 5 -10 8 -46 7 -80
l-2 -63 -6 70 c-3 41 -6 -23 -7 -155 -1 -210 -18 -459 -22 -322 0 28 -5 52
-11 52 -6 0 -10 35 -10 85 0 50 -4 85 -10 85 -15 0 -12 67 4 93 11 17 13 46 9
121 -5 85 -8 99 -24 103 -11 3 -19 9 -19 14 0 5 -11 8 -24 7 -20 -2 -23 -5
-14 -16 8 -9 13 -10 18 -2 5 7 11 6 20 -5 10 -12 11 -40 5 -123 -4 -59 -7
-113 -8 -119 -1 -21 -14 -15 -21 10 -3 12 -6 67 -6 123 0 98 -1 102 -27 122
-16 12 -32 22 -38 22 -5 1 -14 5 -20 10 -15 12 -75 0 -75 -16 0 -10 8 -12 30
-8 39 8 90 -4 69 -17 -7 -5 -29 -9 -46 -9 -29 0 -33 -3 -33 -27 0 -44 -14 -58
-29 -30 -10 18 -10 37 -2 81 6 33 7 65 2 74 -15 30 -22 72 -11 72 5 0 13 -12
17 -27z m503 17 c0 -5 -8 -10 -17 -10 -15 0 -16 2 -3 10 19 12 20 12 20 0z
m-524 -83 c-3 -16 -6 -38 -6 -48 0 -11 -5 -19 -10 -19 -6 0 -8 12 -5 28 l6 27
-16 -30 c-8 -16 -13 -22 -11 -13 3 9 8 32 11 51 4 21 12 34 22 34 11 0 13 -8
9 -30z m241 -3 c-3 -3 -12 -4 -19 -1 -8 3 -5 6 6 6 11 1 17 -2 13 -5z m310
-26 c-3 -7 -5 -2 -5 12 0 14 2 19 5 13 2 -7 2 -19 0 -25z m1718 -8 c4 -6 -49
-10 -152 -11 -87 0 -166 -2 -175 -4 -20 -4 -24 11 -5 18 24 10 326 7 332 -3z
m424 -7 c10 -11 8 -13 -16 -8 -15 4 -34 9 -42 11 -8 3 -17 1 -20 -3 -3 -4 -46
-6 -96 -3 l-90 4 65 6 c115 10 185 7 199 -7z m-306 0 c-18 -2 -48 -2 -65 0
-18 2 -4 4 32 4 36 0 50 -2 33 -4z m-1833 -74 c0 -31 -4 -48 -10 -44 -5 3 -10
26 -10 51 0 24 5 44 10 44 6 0 10 -23 10 -51z m-603 -46 c0 -57 -1 -62 -8 -33
-7 29 -3 100 5 100 2 0 3 -30 3 -67z m38 17 c-3 -4 2 -10 10 -14 17 -6 20 -51
5 -61 -5 -3 -10 -40 -10 -81 0 -43 4 -74 10 -74 6 0 10 30 10 70 0 112 16 81
24 -45 8 -127 -2 -345 -15 -345 -5 0 -9 32 -9 70 0 40 -4 70 -10 70 -6 0 -10
-30 -10 -69 0 -62 -2 -69 -22 -76 -53 -17 -51 -22 -56 170 -4 181 6 370 17
327 3 -13 10 -24 16 -25 10 -2 28 81 19 94 -3 5 2 6 10 3 9 -3 14 -10 11 -14z
m402 -22 c-3 -8 -6 -5 -6 6 -1 11 2 17 5 13 3 -3 4 -12 1 -19z m2023 -40 c0
-5 -40 -8 -90 -8 -49 0 -90 4 -90 8 0 5 40 8 90 8 49 -1 90 -4 90 -8z m-2010
-46 c0 -15 -4 -32 -8 -39 -4 -7 -7 8 -7 32 0 23 3 41 8 38 4 -2 7 -16 7 -31z
m167 -9 c-3 -10 -5 -4 -5 12 0 17 2 24 5 18 2 -7 2 -21 0 -30z m-207 -30 c-10
-16 -11 -15 -6 7 3 14 6 32 7 40 1 8 4 5 6 -7 2 -12 -1 -30 -7 -40z m220 -1
c0 -4 -5 -13 -12 -20 -9 -9 -9 -12 0 -12 7 0 12 -7 12 -16 0 -8 5 -12 10 -9 6
3 10 -1 10 -10 0 -10 -5 -13 -12 -9 -8 5 -9 2 -3 -12 4 -10 9 -41 10 -69 2
-27 3 -56 4 -63 1 -7 5 -11 11 -7 5 3 7 11 5 18 -9 27 -14 121 -6 108 5 -8 7
-21 3 -29 -4 -11 -1 -13 8 -7 8 5 11 4 6 -3 -3 -6 3 -26 14 -44 22 -36 26 -68
9 -68 -5 0 -8 4 -5 9 3 5 -1 24 -9 42 -10 25 -14 29 -15 14 0 -12 6 -27 13
-34 9 -11 9 -14 0 -18 -9 -3 -10 -10 -4 -21 12 -23 7 -65 -8 -70 -8 -3 -6 -9
7 -18 21 -15 35 -61 21 -70 -5 -3 -9 3 -10 13 0 14 -2 15 -7 3 -4 -8 -16 -16
-27 -18 -15 -2 -17 -1 -6 7 9 6 11 15 6 27 -4 11 -9 26 -10 34 -1 8 -5 33 -9
54 -5 25 -4 41 4 46 12 7 3 40 -11 40 -5 0 -14 -10 -19 -22 -8 -21 -9 -20 -9
9 -1 26 2 31 17 27 14 -5 15 -4 2 5 -11 7 -15 29 -15 75 0 35 -2 63 -4 60 -9
-8 -19 -174 -12 -205 9 -43 -8 -151 -23 -146 -7 2 -12 38 -14 91 -2 70 0 90
14 103 11 11 14 27 11 48 -7 42 27 175 44 175 5 0 9 -4 9 -8z m-212 -39 c-10
-2 -18 -8 -18 -13 0 -5 7 -7 15 -4 13 5 45 -16 45 -30 0 -3 -11 -6 -25 -6
l-25 0 0 -159 c0 -159 -4 -196 -21 -185 -5 3 -9 -9 -9 -25 0 -17 4 -31 9 -31
5 0 8 -34 6 -77 -2 -43 0 -82 5 -88 9 -12 20 -70 11 -58 -17 20 -32 86 -26
113 4 17 2 30 -3 30 -13 0 -20 -79 -8 -83 6 -2 9 -67 7 -166 l-2 -162 60 2
c34 1 64 -1 68 -5 4 -4 -34 -6 -85 -5 l-91 1 -4 147 -3 146 -2 -152 -2 -153
115 0 c129 0 215 14 215 36 0 10 -12 14 -42 13 l-43 -2 40 -6 c35 -6 37 -8 18
-14 -13 -5 -33 -5 -44 -2 -14 5 -19 3 -15 -3 4 -6 -2 -8 -16 -4 -19 5 -20 7
-5 10 42 9 10 21 -63 24 -61 2 -79 0 -75 -9 2 -7 0 -13 -5 -13 -6 0 -10 49 -9
123 1 78 4 111 9 92 l8 -30 1 28 c1 31 31 39 31 7 0 -11 -4 -20 -10 -20 -5 0
-10 -9 -10 -21 0 -11 4 -18 9 -15 16 10 20 -22 5 -41 -15 -17 -15 -17 -11 5 3
12 1 22 -3 22 -5 0 -11 8 -13 18 -3 9 -4 4 -2 -13 3 -33 21 -85 30 -85 4 0 4
4 0 9 -3 6 4 25 15 43 11 18 20 29 20 23 1 -21 20 21 20 43 0 13 4 20 10 17 6
-4 10 5 10 19 0 14 5 26 11 26 6 0 9 5 7 11 -6 18 -23 11 -28 -12 -3 -12 -13
-23 -23 -25 -10 -1 -16 3 -14 9 3 7 10 11 16 9 14 -3 14 25 0 34 -6 3 -15 1
-19 -6 -7 -11 -12 -10 -24 3 -13 13 -15 27 -9 74 6 51 8 54 14 28 6 -29 7 -29
8 -4 1 26 30 50 32 26 0 -9 2 -9 5 0 10 24 34 1 34 -34 0 -20 -4 -32 -10 -28
-6 3 -7 -1 -4 -9 10 -26 47 28 39 56 -7 23 -7 23 10 3 16 -20 17 -20 10 0 -3
11 -3 16 1 12 4 -4 14 -1 22 6 13 9 14 9 8 0 -4 -7 0 -27 8 -45 24 -54 30 -82
16 -73 -10 6 -11 1 -6 -19 5 -20 3 -26 -5 -21 -6 4 -9 19 -6 35 3 14 -1 44 -8
66 -13 35 -15 37 -21 17 -3 -13 -10 -21 -14 -18 -11 7 -24 -14 -27 -45 -3 -23
-2 -23 12 5 l14 30 -6 -30 c-9 -42 -50 -133 -80 -177 -14 -20 -22 -42 -18 -47
7 -13 35 -15 35 -3 0 5 14 8 30 7 19 -1 34 4 39 13 6 11 9 8 9 -11 0 -15 -4
-24 -9 -21 -5 3 -9 -5 -8 -18 0 -13 3 -17 6 -10 3 7 23 12 48 12 37 0 42 3 38
18 -3 12 1 19 11 19 8 0 13 -4 10 -9 -3 -4 2 -8 11 -8 9 0 13 5 10 10 -4 6 -1
9 6 8 7 -2 18 20 28 55 12 46 13 62 3 77 -10 17 -10 20 4 20 14 0 16 -8 11
-55 -3 -30 -2 -57 3 -60 5 -3 9 85 9 195 0 147 -3 200 -12 200 -8 0 -8 3 1 9
8 4 14 12 13 17 0 7 41 7 45 1 1 -3 -14 -209 -25 -336 -5 -59 -13 -106 -20
-110 -7 -5 -9 -15 -4 -27 7 -18 6 -18 -11 -1 -21 21 -33 23 -16 2 6 -8 9 -18
6 -24 -3 -5 -3 -11 1 -14 5 -2 3 -3 -3 -1 -5 1 -21 -7 -35 -17 -19 -15 -20
-19 -7 -19 9 0 20 5 23 10 9 15 25 12 25 -5 0 -8 -4 -15 -10 -15 -5 0 -9 -3
-8 -7 1 -5 -1 -23 -5 -40 -7 -33 -38 -51 -80 -44 -10 1 -25 -3 -32 -9 -8 -7
-21 -10 -29 -7 -7 3 -26 -1 -41 -9 -15 -8 -40 -14 -56 -14 -28 0 -29 -1 -29
-53 0 -46 6 -62 45 -122 52 -79 68 -95 104 -96 25 -1 25 -2 -4 -9 -16 -4 -47
-8 -67 -9 -32 -1 -38 2 -38 19 0 18 3 19 20 8 46 -29 31 12 -34 95 -25 31 -31
50 -34 102 -2 36 -8 65 -13 65 -5 0 -9 4 -9 10 0 5 7 7 15 4 8 -4 15 -1 15 6
0 6 -5 8 -12 4 -6 -4 -8 -3 -4 4 3 6 2 13 -4 17 -5 3 -10 -1 -10 -9 0 -8 -5
-18 -12 -22 -8 -5 -9 -2 -5 9 3 10 2 17 -3 17 -6 0 -10 -5 -10 -11 0 -6 -10
-9 -22 -7 -17 2 -24 11 -26 31 -2 15 1 27 7 27 6 0 10 -10 8 -21 -1 -12 4 -24
11 -26 7 -3 12 3 12 14 0 15 -2 16 -10 3 -6 -9 -10 -10 -10 -3 0 17 19 26 33
15 7 -6 26 -8 44 -6 20 2 38 -2 48 -12 13 -14 15 -14 15 0 0 9 -5 16 -11 16
-5 0 -8 4 -5 9 3 5 15 7 27 4 16 -4 18 -8 7 -14 -11 -7 -10 -11 2 -19 21 -14
30 -12 24 3 -6 18 13 34 51 42 23 5 26 4 15 -4 -13 -10 -13 -11 0 -12 8 0 2
-5 -14 -9 -16 -5 -33 -7 -38 -4 -4 3 -8 1 -8 -4 0 -16 33 -24 41 -10 5 8 26
13 52 12 38 -1 44 2 39 18 -2 10 -14 18 -26 19 -19 1 -19 2 4 10 19 6 15 7
-15 3 -114 -17 -245 -29 -245 -22 0 4 -16 8 -35 8 -34 0 -35 -1 -35 -40 0 -36
3 -40 25 -41 14 -1 31 -2 38 -3 13 -1 12 -25 -4 -98 -8 -33 -7 -68 0 -119 7
-39 10 -73 8 -75 -1 -2 -87 -6 -189 -10 -185 -7 -187 -7 -182 13 3 12 1 30 -5
42 -11 20 -9 21 28 21 33 0 44 5 65 33 21 28 26 45 28 117 l3 85 60 -2 60 -3
-44 14 c-24 8 -51 12 -60 9 -9 -4 -13 -3 -9 2 4 4 31 14 60 21 48 13 49 13 11
9 -23 -3 -48 -7 -56 -11 -17 -6 -29 47 -15 68 6 10 8 10 8 1 0 -8 15 -13 43
-13 23 0 48 -4 55 -9 21 -13 10 -46 -16 -49 -12 -2 -20 -8 -16 -13 3 -5 10 -7
15 -3 5 3 16 1 23 -5 11 -9 15 9 24 96 6 60 19 169 30 243 11 74 24 185 28
245 7 100 8 106 15 60 4 -27 7 -66 7 -85 l-1 -35 -8 35 c-5 21 -6 -30 -4 -125
3 -88 6 -198 7 -245 1 -68 3 -57 8 55 3 77 3 153 -2 169 -4 16 -3 49 4 75 6
25 10 84 9 130 -1 51 3 87 9 91 7 5 8 25 2 62 -5 30 -5 63 -1 74 4 12 8 -2 11
-41 3 -33 4 -14 3 42 0 56 -4 106 -9 110 -5 4 -6 -5 -2 -22 5 -22 4 -26 -4
-14 -6 11 -6 35 2 73 10 47 16 56 33 55 16 -1 17 -2 3 -6z m140 -30 c-2 -11
-14 -19 -31 -21 -30 -4 -33 2 -14 23 18 21 49 19 45 -2z m-738 -13 c-30 -4
-77 -6 -105 -4 l-50 3 40 -9 c22 -5 72 -7 112 -4 l72 6 0 -156 c0 -86 -3 -156
-6 -156 -4 0 -15 8 -26 17 -31 29 -177 22 -177 -8 0 -5 -4 -9 -10 -9 -11 0
-14 312 -3 323 3 4 52 6 107 6 89 -2 95 -3 46 -9z m1395 -45 c9 -30 13 -59 10
-65 -4 -6 -2 -16 3 -23 9 -11 72 -229 77 -267 1 -8 7 -28 14 -43 22 -57 24
-77 6 -77 -9 0 -13 -5 -10 -11 4 -6 13 -8 20 -5 12 4 30 -33 20 -42 -4 -4 -71
50 -152 122 -13 11 -23 17 -23 13 0 -4 42 -41 93 -83 90 -75 118 -104 98 -104
-5 0 -12 4 -15 8 -3 5 -40 37 -83 72 -43 35 -70 55 -61 44 9 -11 51 -46 92
-79 67 -53 103 -93 77 -83 -6 1 -101 79 -212 171 -110 93 -203 167 -205 164
-2 -2 94 -84 214 -182 157 -129 217 -184 217 -199 0 -12 4 -27 9 -34 7 -11 4
-12 -13 -2 -12 6 -18 16 -15 22 4 6 3 8 -2 5 -6 -3 -16 -1 -24 4 -11 7 -7 8
13 5 24 -4 27 -3 17 9 -7 8 -17 12 -24 8 -6 -3 -8 -3 -4 1 7 9 -54 66 -70 66
-5 0 -12 6 -15 13 -10 25 -85 78 -93 66 -5 -8 -3 -9 6 -4 9 6 11 4 5 -5 -5 -9
-4 -11 3 -6 8 5 10 2 6 -8 -4 -11 0 -14 15 -11 14 2 18 -1 14 -11 -3 -7 -10
-11 -17 -7 -33 20 30 -39 118 -110 l101 -80 67 -236 c38 -130 69 -246 70 -259
3 -23 3 -23 -164 -29 l-166 -5 -6 63 c-3 35 -16 203 -27 374 -11 170 -25 313
-30 316 -5 3 -7 12 -4 21 4 10 -13 31 -52 64 -31 27 -54 43 -50 37 5 -7 3 -13
-2 -13 -6 0 -11 6 -11 13 0 8 -9 22 -20 32 -11 10 -20 13 -20 7 0 -7 5 -12 11
-12 5 0 8 -4 4 -9 -6 -11 62 -78 88 -87 9 -3 15 -10 11 -15 -3 -5 0 -8 8 -7 7
2 12 -2 11 -8 -1 -5 9 -136 22 -290 14 -153 25 -282 25 -286 0 -5 -43 -8 -95
-8 l-96 0 3 355 c2 198 -1 355 -6 355 -5 0 -3 6 3 14 9 10 6 17 -13 30 -15 10
-27 12 -31 6 -3 -6 1 -10 9 -10 9 0 16 -5 16 -11 0 -5 -5 -7 -12 -3 -8 5 -10
-83 -5 -364 l7 -372 -100 0 -100 0 0 28 c2 93 35 255 95 467 37 132 72 249 78
260 6 11 12 31 13 45 2 14 22 96 46 183 l43 157 77 0 77 0 16 -55z m279 34
c-6 -11 -45 -11 -61 -1 -6 4 6 8 27 8 22 1 37 -2 34 -7z m85 -26 c7 -3 17 0
22 8 5 8 9 9 9 3 0 -6 26 -17 58 -24 46 -10 53 -14 37 -21 -18 -8 -18 -9 5 -8
34 1 71 -11 64 -22 -3 -5 -14 -9 -25 -9 -11 0 -23 -8 -27 -19 -5 -14 -12 -17
-29 -10 -13 5 -23 13 -23 19 0 6 4 9 9 6 4 -3 17 1 27 9 10 8 14 15 7 15 -6 0
-19 3 -29 7 -13 5 -15 3 -9 -7 6 -10 4 -12 -9 -7 -9 4 -15 3 -11 -3 3 -5 -9
-6 -30 -3 -30 5 -34 3 -29 -11 3 -9 1 -16 -6 -16 -6 0 -8 5 -4 11 5 9 -2 10
-22 6 -16 -3 -23 -4 -16 -1 6 3 12 10 12 15 0 6 -4 8 -9 5 -10 -7 -9 13 2 30
8 13 -19 27 -34 18 -10 -6 -12 7 -3 31 6 14 8 14 28 0 11 -8 27 -18 35 -22z
m-1319 -58 c0 -50 4 -85 10 -85 6 0 10 -24 10 -53 0 -91 12 -207 21 -201 11 6
12 -90 2 -100 -4 -4 -9 -35 -10 -69 -10 -186 -25 -325 -34 -302 -4 11 -8 14
-8 8 -1 -9 -17 -13 -46 -13 -35 0 -43 3 -39 15 5 11 2 13 -11 9 -17 -7 -18 5
-13 194 3 111 2 200 -1 197 -4 -2 -7 6 -7 18 -1 91 -5 127 -14 122 -12 -7 -12
-3 -4 19 9 22 34 -5 28 -30 -2 -11 0 -32 5 -49 8 -26 9 -24 7 20 -1 28 -5 56
-10 63 -5 9 1 12 23 10 22 -2 31 -7 31 -20 0 -10 7 -18 16 -18 9 0 12 -5 8
-12 -4 -7 -3 -8 4 -4 12 7 5 37 -12 48 -16 11 6 10 23 -1 11 -7 15 -36 15
-128 0 -89 1 -106 7 -68 13 89 10 187 -5 199 -11 8 -16 50 -22 164 -6 137 -5
152 10 152 13 0 16 -13 16 -85z m1080 27 c-5 -2 -12 -2 -14 0 -3 2 -11 -5 -19
-16 -11 -15 -14 -16 -14 -3 0 9 7 19 14 21 8 3 11 11 8 17 -4 6 2 5 14 -3 12
-7 17 -14 11 -16z m-969 -73 c-6 -24 -11 -71 -12 -104 -1 -33 -4 -51 -6 -41
-9 33 8 209 18 199 6 -6 6 -26 0 -54z m959 35 c0 -8 -4 -12 -10 -9 -5 3 -10 1
-10 -6 0 -7 -2 -10 -5 -7 -8 7 5 38 16 38 5 0 9 -7 9 -16z m323 -29 c17 -5 26
-13 23 -20 -2 -7 0 -17 5 -22 13 -13 0 -43 -18 -43 -11 0 -14 7 -11 23 3 13 0
24 -6 25 -6 0 -20 3 -31 5 -17 4 -20 0 -20 -29 0 -42 36 -74 61 -53 8 6 17 9
21 5 3 -3 1 -6 -5 -6 -7 0 -12 -12 -12 -27 0 -22 -2 -25 -10 -13 -7 11 -10 4
-10 -27 0 -23 4 -44 8 -47 5 -3 5 -29 0 -58 -11 -69 -16 -128 -12 -128 2 0 8
15 13 33 l9 32 1 -32 c1 -18 -3 -33 -9 -33 -5 0 -10 -8 -11 -17 0 -10 -7 -1
-15 21 -7 21 -11 42 -8 47 3 5 1 9 -3 9 -16 0 -34 90 -22 108 9 15 10 14 4 -3
-4 -13 -3 -16 3 -10 12 12 25 65 16 65 -3 0 -14 -10 -25 -22 l-18 -23 -1 25
c0 17 3 21 9 12 6 -10 10 -9 14 8 4 17 2 20 -14 15 -17 -6 -19 -2 -18 32 2 29
3 32 6 11 3 -19 10 -26 23 -25 17 1 18 3 4 18 -19 21 -17 128 3 136 7 3 13 13
13 22 0 11 3 12 8 4 4 -6 20 -15 35 -18z m-13 -55 c0 -5 -10 -15 -22 -21 l-23
-12 20 21 c23 24 25 25 25 12z m-1700 -107 c-6 -21 -8 -12 -8 42 0 64 1 66 8
28 5 -23 5 -54 0 -70z m1528 63 c9 -10 31 -27 47 -37 18 -12 24 -19 14 -19 -9
0 -27 9 -40 21 -13 11 -35 29 -47 40 -23 20 -24 20 -38 2 -7 -10 -14 -14 -14
-9 0 5 7 17 16 27 17 19 26 15 62 -25z m30 -91 c-3 -3 -17 -1 -32 5 l-28 10
21 -26 c12 -15 21 -34 20 -43 0 -12 -3 -11 -10 4 -7 16 -8 14 -3 -10 16 -84
16 -94 -2 -118 l-19 -25 -12 27 c-10 22 -12 23 -13 6 0 -13 -6 -5 -15 20 -18
50 -18 57 0 25 13 -24 14 -24 12 20 -1 27 -8 51 -19 62 -20 20 -24 38 -8 38 6
0 10 -9 10 -20 0 -11 5 -20 11 -20 6 0 10 12 9 28 -3 47 -1 54 16 48 12 -5 14
-1 9 17 -6 19 -3 18 26 -10 18 -18 30 -35 27 -38z m190 -85 c-1 -94 -5 -150
-12 -150 -6 0 -5 -5 2 -12 17 -17 15 -56 -3 -74 -18 -18 -18 -14 -5 21 7 18 7
33 0 46 -8 13 -7 25 0 40 9 16 8 26 -4 44 -19 29 -20 39 -4 29 8 -5 9 -2 5 9
-3 10 -2 17 4 17 7 0 10 26 9 73 -3 83 -2 107 5 107 3 0 4 -67 3 -150z m-1843
90 c18 -20 17 -20 -68 -20 -48 0 -87 2 -87 4 0 3 7 12 16 20 24 24 116 22 139
-4z m800 10 c3 -5 1 -10 -4 -10 -6 0 -11 5 -11 10 0 6 2 10 4 10 3 0 8 -4 11
-10z m-325 -68 c0 -56 -16 -45 -22 14 -2 31 0 40 9 37 8 -3 13 -23 13 -51z
m403 27 c-4 -12 0 -25 8 -30 9 -5 10 -9 2 -9 -12 0 -12 -24 0 -36 9 -9 9 -59
0 -68 -4 -4 -6 -28 -6 -54 2 -44 1 -45 -6 -14 -10 39 -14 209 -6 222 10 16 13
11 8 -11z m656 -19 c0 -10 -3 -8 -9 5 -12 27 -12 43 0 25 5 -8 9 -22 9 -30z
m165 -39 c-1 -28 -4 -54 -7 -58 -3 -5 -2 -24 3 -43 l8 -35 2 45 c0 25 1 60 1
79 0 18 2 31 4 30 10 -12 43 -154 37 -159 -4 -3 -9 -15 -9 -27 -1 -16 3 -21
17 -18 22 4 31 -14 23 -47 -4 -18 -2 -20 6 -8 7 11 9 4 6 -27 -2 -24 1 -45 6
-48 5 -3 6 0 3 8 -3 8 -1 18 4 21 5 3 12 -3 15 -13 5 -22 -22 -39 -33 -20 -4
6 -10 7 -13 3 -6 -11 13 -28 37 -32 11 -2 15 1 11 7 -3 6 -2 11 3 11 12 0 34
-49 26 -61 -8 -13 -49 16 -148 104 -17 15 -38 30 -48 33 -9 3 -15 11 -12 19 3
8 -4 16 -18 20 -23 8 -38 22 -38 39 0 6 6 3 13 -6 15 -19 63 -36 52 -18 -4 6
-17 15 -29 20 -20 8 -20 9 5 9 30 1 63 -29 42 -36 -7 -3 -13 -13 -13 -24 0
-14 6 -18 23 -15 18 2 23 11 28 50 3 26 11 51 18 55 9 6 11 20 6 50 -8 51 -20
46 -17 -7 4 -56 -14 -74 -64 -67 -38 7 -40 9 -36 36 4 27 32 63 32 41 0 -6 -5
-12 -12 -14 -7 -3 -5 -7 6 -11 10 -4 15 -3 11 3 -3 6 -2 10 3 10 17 0 33 56
29 99 -2 25 0 41 7 42 6 0 6 3 -1 6 -7 2 -13 9 -13 15 0 7 5 7 13 -1 9 -7 13
-28 11 -60z m-689 -51 c-17 -60 -33 -112 -36 -114 -2 -2 0 47 5 110 l9 114 27
0 27 0 -32 -110z m-1251 72 c2 -4 -12 -6 -32 -4 -56 5 -62 10 -15 11 23 1 44
-3 47 -7z m83 2 c-3 -3 -12 -4 -19 -1 -8 3 -5 6 6 6 11 1 17 -2 13 -5z m148 0
c-46 -7 -125 -8 -125 -1 0 4 33 6 73 6 39 -1 63 -3 52 -5z m65 -4 c18 -12 2
-12 -25 0 -13 6 -15 9 -5 9 8 0 22 -4 30 -9z m83 3 c-7 -2 -21 -2 -30 0 -10 3
-4 5 12 5 17 0 24 -2 18 -5z m37 3 c0 -2 -7 -9 -15 -16 -13 -11 -14 -10 -9 4
5 14 24 23 24 12z m1477 -28 c-3 -7 -5 -2 -5 12 0 14 2 19 5 13 2 -7 2 -19 0
-25z m-110 0 c-3 -8 -6 -5 -6 6 -1 11 2 17 5 13 3 -3 4 -12 1 -19z m-302 -58
c3 -5 1 -10 -4 -10 -6 0 -11 5 -11 10 0 6 2 10 4 10 3 0 8 -4 11 -10z m-449
-37 c-4 14 1 17 29 17 l35 0 0 -80 0 -80 -34 0 -34 0 1 57 c1 36 -3 58 -11 61
-7 2 -12 13 -12 25 0 20 0 21 16 1 13 -16 15 -16 10 -1z m496 -5 c13 -13 17
-18 8 -12 -8 6 -24 16 -35 22 -11 6 -15 12 -8 12 7 0 22 -10 35 -22z m-1065
-220 c-1 -46 -3 -11 -3 77 0 88 2 125 3 83 2 -42 2 -114 0 -160z m350 200 c-3
-7 -5 -2 -5 12 0 14 2 19 5 13 2 -7 2 -19 0 -25z m1025 -26 c-4 -11 -6 -11
-13 0 -5 7 -9 19 -9 26 0 10 3 10 14 0 7 -7 11 -19 8 -26z m-1562 -3 c0 -5
-13 -9 -30 -9 -29 0 -29 1 -13 20 13 14 20 17 30 8 7 -6 13 -14 13 -19z m2145
-23 c4 -36 5 -37 15 -31 14 9 13 -8 -2 -23 -15 -15 -28 -15 -28 -1 0 5 4 8 10
4 5 -3 5 7 -1 25 -13 36 -22 40 -13 6 3 -13 1 -27 -5 -30 -16 -10 -14 47 2 63
10 11 9 14 -1 18 -6 3 -9 9 -6 15 8 13 26 -16 29 -46z m-1447 -42 c-12 -27
-23 -71 -24 -99 -1 -27 -2 -55 -3 -62 -1 -7 -10 -3 -24 10 l-22 22 37 81 c21
45 38 90 38 100 0 12 3 15 10 8 7 -7 3 -26 -12 -60z m1086 12 c-5 -13 -9 -14
-14 -5 -11 16 0 43 12 31 5 -5 6 -17 2 -26z m-411 -3 c2 -14 22 -31 30 -26 9
6 57 -35 57 -49 0 -4 -5 -8 -11 -8 -5 0 -8 4 -4 9 3 5 -4 12 -15 16 -11 4 -18
11 -14 16 3 6 0 9 -8 7 -19 -4 -72 39 -56 45 14 5 19 3 21 -10z m-513 -14 c0
-6 -4 -7 -10 -4 -5 3 -10 11 -10 16 0 6 5 7 10 4 6 -3 10 -11 10 -16z m1015
-31 c-5 -20 -4 -21 5 -5 18 28 40 21 40 -13 0 -16 4 -30 9 -30 6 0 12 -12 14
-27 3 -23 4 -21 4 7 0 69 1 72 22 61 15 -8 18 -7 17 6 0 10 7 18 17 19 13 1
13 1 2 -3 -10 -3 -14 -11 -10 -24 9 -26 -3 -59 -22 -59 -19 0 -12 -21 13 -34
10 -6 22 -15 25 -20 10 -13 40 1 37 16 -2 7 -10 18 -18 25 -13 11 -13 12 1 13
23 0 44 -26 27 -33 -10 -4 -10 -6 0 -6 7 -1 15 5 18 13 3 9 12 12 21 9 11 -5
14 -3 9 6 -5 7 -15 10 -23 7 -25 -10 -36 5 -18 24 11 12 13 20 6 25 -6 3 -11
1 -11 -6 0 -16 -29 22 -30 39 0 14 56 17 65 2 3 -5 3 -16 -2 -22 -14 -24 -11
-37 8 -35 10 1 18 8 16 16 -1 7 4 16 12 19 10 3 11 -2 5 -19 -4 -13 -7 -31 -7
-39 0 -20 -19 -38 -35 -32 -7 2 -11 -2 -10 -10 2 -8 -4 -12 -16 -10 -10 2 -15
-1 -12 -6 6 -11 -73 -46 -82 -37 -3 3 0 5 6 5 7 0 12 7 12 15 0 18 -9 19 -44
5 -44 -16 -60 2 -70 81 -3 20 -36 68 -36 51 0 -17 -27 -15 -34 4 -3 8 -2 13 2
10 5 -3 22 -1 38 4 16 4 30 9 32 9 2 1 1 -9 -3 -21z m-2171 0 c-5 -8 -2 -9 10
-5 10 4 15 3 11 -3 -9 -14 8 -12 25 3 12 10 12 9 2 -4 -10 -13 -9 -19 2 -29 9
-6 21 -8 27 -4 7 4 9 3 5 -4 -3 -6 3 -17 15 -26 16 -11 19 -20 14 -33 -5 -10
-9 -22 -9 -28 -1 -5 -15 -9 -31 -8 -48 4 -54 6 -52 14 1 4 -2 8 -8 9 -5 2 -16
11 -23 22 -9 13 -21 17 -35 13 -17 -5 -18 -4 -8 4 11 7 12 13 3 24 -9 11 -9
14 3 14 8 0 11 -5 8 -10 -3 -6 -1 -7 6 -3 6 4 9 12 5 17 -3 6 2 19 12 30 19
21 29 25 18 7z m2129 -39 c21 21 39 -20 40 -90 0 -24 3 -26 43 -25 24 1 39 -3
35 -7 -5 -5 -28 -7 -52 -5 -43 3 -44 4 -45 38 -3 74 -4 81 -15 75 -6 -4 -8
-20 -4 -38 5 -27 4 -29 -6 -14 -6 11 -12 24 -13 30 -1 7 -7 22 -14 34 -17 32
-15 41 4 14 11 -15 20 -19 27 -12z m-1241 7 c6 4 5 -2 -1 -15 -14 -25 -23 -28
-14 -4 4 11 3 14 -5 9 -13 -8 -16 6 -5 18 4 4 9 2 11 -3 2 -6 8 -8 14 -5z
m1571 -16 c-3 -11 -9 -20 -13 -20 -5 0 -6 9 -3 20 3 11 9 20 13 20 5 0 6 -9 3
-20z m-1523 -81 c0 -5 -4 -9 -10 -9 -5 0 -10 5 -10 12 0 6 -7 3 -16 -8 -15
-18 -15 -18 -4 3 10 21 40 23 40 2z m-985 1 c-3 -5 -1 -10 6 -10 7 0 10 -3 6
-6 -9 -9 -28 6 -22 17 4 5 8 9 11 9 3 0 2 -4 -1 -10z m2395 -40 c-8 -5 -19
-10 -25 -10 -5 0 -3 5 5 10 8 5 20 10 25 10 6 0 3 -5 -5 -10z m-2010 -15 c-25
-14 -25 -14 15 -16 22 -1 43 -1 48 0 4 0 7 -6 7 -14 0 -8 -4 -15 -10 -15 -5 0
-10 -13 -10 -30 0 -27 -3 -29 -27 -25 -16 3 -48 7 -73 8 -38 3 -45 7 -51 30
-4 16 -3 25 2 21 5 -3 9 6 9 19 0 20 4 23 23 20 12 -2 33 0 47 6 37 15 49 12
20 -4z m-103 -17 c-3 -8 -6 -5 -6 6 -1 11 2 17 5 13 3 -3 4 -12 1 -19z m250
-135 c-2 -32 -3 -8 -3 52 0 61 1 87 3 58 2 -29 2 -78 0 -110z m1723 143 c0 -9
-40 -13 -46 -5 -3 5 6 9 20 9 14 0 26 -2 26 -4z m-1998 -38 c-8 -8 -9 -4 -5
13 4 13 8 18 11 10 2 -7 -1 -18 -6 -23z m1833 -19 c-6 -9 35 -35 48 -31 5 1 6
-2 2 -8 -3 -5 0 -10 8 -10 8 0 21 -7 28 -17 13 -15 12 -15 -11 -3 -39 20 -88
60 -94 75 -3 9 0 12 9 8 8 -3 13 -9 10 -14z m-1800 -39 c3 -5 1 -10 -4 -10 -6
0 -11 5 -11 10 0 6 2 10 4 10 3 0 8 -4 11 -10z m828 -7 c-7 -2 -19 -2 -25 0
-7 3 -2 5 12 5 14 0 19 -2 13 -5z m1376 -17 c7 -8 8 -17 3 -19 -4 -3 -13 3
-20 14 -14 22 0 26 17 5z m-2381 -8 c-6 -18 -28 -21 -28 -4 0 9 7 16 16 16 9
0 14 -5 12 -12z m2320 -36 c-6 -7 -14 -9 -17 -4 -3 5 -15 14 -26 20 -11 6 -14
12 -7 12 7 0 10 4 7 10 -3 5 7 2 24 -7 23 -14 27 -21 19 -31z m-1298 -101
c-16 -57 -31 -105 -33 -108 -9 -8 -70 64 -87 102 -27 60 -34 105 -18 106 55 3
151 19 158 26 14 14 7 -33 -20 -126z m-1084 87 c-23 -13 -40 0 -25 18 9 11 15
12 26 2 12 -10 12 -13 -1 -20z m270 -43 c7 -2 9 -17 5 -42 -4 -21 -10 -37 -14
-35 -4 1 -36 2 -72 2 l-65 0 4 43 c2 23 4 42 5 43 3 2 128 -8 137 -11z m1991
-10 c8 -9 13 -18 11 -21 -3 -2 -13 5 -23 16 -21 23 -11 27 12 5z m-1107 -93
c-4 -51 -9 -95 -12 -97 -2 -3 -12 1 -21 8 -16 11 -16 17 4 87 36 132 38 132
29 2z m-850 33 c0 -5 -5 -3 -10 5 -5 8 -10 20 -10 25 0 6 5 3 10 -5 5 -8 10
-19 10 -25z m165 -15 c-10 -11 -23 -20 -28 -20 -6 0 1 10 14 23 29 28 40 25
14 -3z m915 -75 l0 -85 -70 0 c-49 0 -70 4 -71 13 0 10 -2 10 -6 0 -2 -7 -19
-12 -36 -12 l-32 1 30 8 30 7 -27 7 c-26 8 -28 12 -28 61 0 86 -2 85 111 85
l99 0 0 -85z m224 48 c3 -21 7 -58 8 -83 l3 -45 -105 0 -105 0 -3 40 c-2 22
-1 59 3 83 l6 42 94 0 93 0 6 -37z m-1407 21 c-3 -3 -12 -4 -19 -1 -8 3 -5 6
6 6 11 1 17 -2 13 -5z m93 -4 c0 -5 -8 -10 -17 -10 -15 0 -16 2 -3 10 19 12
20 12 20 0z m3380 -19 c0 -6 -4 -13 -10 -16 -5 -3 -10 -16 -10 -29 0 -13 -9
-31 -20 -41 -12 -10 -18 -25 -16 -32 4 -9 -3 -13 -19 -13 -18 0 -25 5 -25 20
0 11 -7 23 -15 26 -21 9 -19 50 5 74 14 14 33 20 65 20 25 0 45 -4 45 -9z
m201 -13 l2 -23 4 23 c5 23 6 23 120 20 93 -2 117 -6 121 -18 5 -13 3 -13 -12
-1 -16 13 -16 12 -5 -12 12 -27 11 -32 -19 -82 l-19 -30 -129 -3 c-71 -1 -158
-5 -193 -9 -58 -5 -63 -4 -58 13 3 11 13 47 23 82 l18 62 73 0 c69 0 73 -1 74
-22z m336 0 c27 -25 29 -50 7 -69 -10 -8 -14 -23 -12 -41 4 -25 2 -28 -26 -28
-30 0 -31 2 -29 37 4 70 16 123 26 123 6 0 21 -10 34 -22z m-540 -40 c-3 -8
-6 -5 -6 6 -1 11 2 17 5 13 3 -3 4 -12 1 -19z m-3557 -25 c0 -10 3 -28 6 -40
6 -21 3 -23 -30 -23 -31 0 -36 3 -36 24 0 13 -3 31 -6 40 -5 13 1 16 30 16 28
0 36 -4 36 -17z m230 2 c-7 -8 -10 -26 -8 -40 5 -24 3 -25 -38 -25 -26 0 -44
5 -44 11 0 8 -20 10 -60 7 -33 -2 -60 -1 -60 4 0 4 32 8 70 8 65 0 71 2 82 25
8 18 19 25 41 25 25 0 28 -2 17 -15z m57 -21 c8 -21 -13 -42 -28 -27 -13 13
-5 43 11 43 6 0 13 -7 17 -16z m-372 -14 c0 -22 -39 -19 -43 3 -3 15 1 18 20
15 12 -2 23 -10 23 -18z m1108 -17 c-7 -2 -21 -2 -30 0 -10 3 -4 5 12 5 17 0
24 -2 18 -5z"/>
<path d="M2135 3420 c-3 -5 3 -10 15 -10 12 0 18 5 15 10 -3 6 -10 10 -15 10
-5 0 -12 -4 -15 -10z"/>
<path d="M2199 3413 c-4 -46 -2 -72 6 -69 6 2 9 13 8 25 -2 13 1 20 7 16 6 -3
10 -1 10 4 0 6 -6 11 -12 11 -9 0 -8 4 2 10 13 8 12 10 -2 10 -10 0 -18 -3
-19 -7z"/>
<path d="M2140 3390 c0 -5 5 -10 10 -10 6 0 10 5 10 10 0 6 -4 10 -10 10 -5 0
-10 -4 -10 -10z"/>
<path d="M2153 3313 c9 -2 25 -2 35 0 9 3 1 5 -18 5 -19 0 -27 -2 -17 -5z"/>
<path d="M2080 3281 c0 -8 50 -34 56 -29 1 2 -11 11 -27 20 -16 9 -29 14 -29
9z"/>
<path d="M2306 2323 c-4 -10 0 -23 11 -32 15 -15 16 -15 5 0 -7 9 -10 24 -6
33 3 9 4 16 1 16 -3 0 -8 -8 -11 -17z"/>
<path d="M2381 2294 c0 -11 3 -14 6 -6 3 7 2 16 -1 19 -3 4 -6 -2 -5 -13z"/>
<path d="M2415 2090 c0 -26 3 -43 7 -37 4 7 8 23 8 37 0 14 -4 30 -8 37 -4 6
-7 -11 -7 -37z"/>
<path d="M2157 2283 c-4 -3 -7 -40 -7 -81 0 -42 3 -72 7 -68 5 5 12 156 7 156
0 0 -4 -3 -7 -7z"/>
<path d="M2158 2041 c-22 -22 -23 -60 -3 -87 8 -10 15 -17 16 -14 2 8 8 120 6
119 -1 0 -10 -8 -19 -18z m12 -42 c0 -5 -4 -9 -10 -9 -5 0 -10 7 -10 16 0 8 5
12 10 9 6 -3 10 -10 10 -16z"/>
<path d="M2163 1835 c0 -22 2 -30 4 -17 2 12 2 30 0 40 -3 9 -5 -1 -4 -23z"/>
<path d="M1825 2050 c3 -32 1 -45 -3 -31 -4 14 -8 -28 -8 -97 -1 -102 1 -119
12 -104 11 14 14 14 15 2 1 -8 1 -18 0 -22 0 -5 6 -8 14 -8 12 0 15 17 15 90
0 67 -3 90 -13 90 -8 0 -14 -15 -15 -40 -2 -22 -7 -51 -12 -63 -8 -18 -9 -16
-5 13 12 98 14 158 5 190 -8 31 -9 28 -5 -20z"/>
<path d="M1900 1880 c0 -47 4 -80 10 -80 6 0 10 33 10 80 0 47 -4 80 -10 80
-6 0 -10 -33 -10 -80z"/>
<path d="M1826 1720 c0 -39 4 -73 6 -76 8 -7 7 122 -1 135 -4 6 -6 -21 -5 -59z"/>
<path d="M1811 1654 c0 -11 3 -14 6 -6 3 7 2 16 -1 19 -3 4 -6 -2 -5 -13z"/>
<path d="M2505 1680 c3 -5 11 -10 16 -10 6 0 7 5 4 10 -3 6 -11 10 -16 10 -6
0 -7 -4 -4 -10z"/>
<path d="M2321 1393 c0 -4 4 -17 8 -27 6 -15 9 -16 13 -5 3 8 -1 20 -8 27 -8
7 -14 9 -13 5z"/>
<path d="M2518 1136 c-19 -14 -23 -26 -10 -26 4 0 18 9 32 20 16 13 20 20 10
19 -8 0 -23 -6 -32 -13z"/>
<path d="M2523 1028 c-2 -27 0 -29 7 -13 11 26 12 45 2 45 -4 0 -8 -15 -9 -32z"/>
<path d="M1990 1020 c0 -6 16 -8 43 -4 58 9 59 14 4 14 -26 0 -47 -5 -47 -10z"/>
<path d="M2283 976 c4 -10 7 -20 7 -22 0 -2 14 -4 30 -4 17 0 30 5 30 10 0 6
-11 8 -25 4 -18 -4 -25 -3 -23 6 2 7 -3 15 -11 18 -10 3 -12 0 -8 -12z"/>
<path d="M2995 1780 c-43 -53 -76 -83 -110 -100 -6 -3 44 -51 111 -106 109
-92 121 -99 119 -75 -1 14 3 35 10 46 7 12 8 30 4 45 -6 23 -7 22 -8 -8 -1
-19 -5 -31 -11 -27 -21 13 -31 -7 -14 -26 21 -23 2 -26 -21 -3 -15 15 -14 18
5 31 16 12 20 23 17 53 -2 22 1 44 6 49 6 6 7 14 3 18 -4 4 -12 1 -17 -7 -7
-11 -8 -4 -3 23 3 20 2 50 -4 65 -6 15 -13 39 -16 55 -4 15 -10 27 -14 27 -4
0 -29 -27 -57 -60z m65 10 c0 -16 5 -41 10 -56 6 -15 8 -29 5 -32 -10 -10 -16
5 -22 57 -6 53 -16 60 -19 13 -1 -15 -2 -31 -3 -35 -1 -11 -21 2 -21 14 0 6 5
7 12 3 7 -4 8 -3 4 5 -5 8 -18 1 -42 -21 -35 -33 -48 -54 -16 -26 17 16 65 19
78 5 4 -4 9 -48 10 -98 l2 -91 -39 38 c-22 22 -35 40 -29 42 13 5 -14 32 -32
32 -10 0 -9 -3 2 -10 8 -5 12 -11 10 -14 -3 -2 -18 6 -35 19 -26 22 -27 24 -8
22 12 0 19 -5 16 -11 -3 -5 -1 -6 5 -2 10 6 9 36 -1 54 -3 4 17 32 44 62 27
30 49 59 49 63 0 5 5 5 10 2 6 -3 10 -19 10 -35z m-116 -109 c3 -5 -6 -8 -20
-8 -19 0 -22 2 -13 8 18 11 26 11 33 0z m166 -141 c0 -5 -2 -10 -4 -10 -3 0
-8 5 -11 10 -3 6 -1 10 4 10 6 0 11 -4 11 -10z"/>
<path d="M3006 1671 c-9 -10 -14 -25 -10 -35 7 -19 15 -20 34 -3 11 9 11 8 0
-7 -13 -17 -13 -19 0 -14 8 2 15 18 16 38 1 22 -1 28 -7 19 -8 -13 -13 -6 -10
14 2 11 -5 8 -23 -12z"/>
<path d="M3000 1605 c0 -3 12 -18 26 -33 l25 -27 -18 32 c-16 29 -33 43 -33
28z"/>
<path d="M2841 1667 c2 -1 15 -11 29 -22 l25 -20 -19 23 c-11 12 -24 22 -29
22 -6 0 -8 -1 -6 -3z"/>
<path d="M2850 1631 c57 -52 180 -153 180 -148 0 5 -166 146 -195 166 -11 7
-4 -1 15 -18z"/>
<path d="M2920 1605 c13 -14 26 -25 28 -25 3 0 -5 11 -18 25 -13 14 -26 25
-28 25 -3 0 5 -11 18 -25z"/>
<path d="M2961 1567 c2 -1 15 -11 29 -22 l25 -20 -19 23 c-11 12 -24 22 -29
22 -6 0 -8 -1 -6 -3z"/>
<path d="M3130 1505 c0 -23 6 -38 15 -42 21 -7 27 0 18 22 -6 18 -7 18 -15 -1
-6 -13 -7 -7 -4 19 3 20 1 37 -5 37 -5 0 -9 -16 -9 -35z"/>
<path d="M3448 1918 c6 -6 18 -8 28 -6 14 3 12 5 -9 10 -19 3 -25 2 -19 -4z"/>
<path d="M3431 1901 c-1 -7 -7 -11 -16 -7 -17 6 -21 -9 -4 -20 14 -8 33 11 26
28 -4 11 -6 11 -6 -1z"/>
<path d="M3508 1903 c7 -3 16 -2 19 1 4 3 -2 6 -13 5 -11 0 -14 -3 -6 -6z"/>
<path d="M3455 1890 c-3 -5 -2 -10 4 -10 5 0 13 5 16 10 3 6 2 10 -4 10 -5 0
-13 -4 -16 -10z"/>
<path d="M2052 1524 c-7 -8 -9 -14 -5 -14 4 0 8 -49 8 -108 0 -88 3 -112 17
-125 15 -15 16 -10 11 86 -2 56 -4 116 -3 134 1 37 -10 47 -28 27z"/>
<path d="M2114 1473 c-4 -26 -7 -73 -7 -103 0 -37 -2 -48 -8 -35 -7 17 -8 16
-8 -7 -1 -17 4 -28 12 -28 11 0 16 27 20 107 7 116 3 143 -9 66z"/>
<path d="M2015 1233 c5 -61 4 -85 -3 -78 -6 6 -13 33 -15 60 -3 37 -4 32 -3
-18 0 -38 4 -71 8 -73 5 -3 8 -1 8 5 0 6 13 9 29 8 16 -1 27 -5 24 -9 -2 -5 3
-8 11 -8 9 0 16 9 16 20 0 11 4 20 9 20 10 0 20 67 13 93 -4 16 -6 15 -16 -5
-7 -13 -9 -26 -4 -29 5 -3 3 -20 -3 -38 -9 -24 -14 -29 -20 -19 -7 10 -9 10
-9 0 0 -7 -5 -10 -11 -6 -7 4 -9 35 -7 82 2 68 1 77 -16 80 -17 4 -17 -2 -11
-85z"/>
<path d="M2035 1079 c-16 -6 -14 -8 13 -8 33 -1 41 4 20 12 -7 2 -22 1 -33 -4z"/>
<path d="M3430 1716 c0 -7 7 -13 15 -13 8 0 15 4 15 8 0 4 -7 9 -15 13 -9 3
-15 0 -15 -8z"/>
<path d="M3435 1550 c3 -5 10 -10 16 -10 5 0 9 5 9 10 0 6 -7 10 -16 10 -8 0
-12 -4 -9 -10z"/>
<path d="M3300 1676 c0 -2 8 -10 18 -17 15 -13 16 -12 3 4 -13 16 -21 21 -21
13z"/>
<path d="M3273 1605 c0 -22 2 -30 4 -17 2 12 2 30 0 40 -3 9 -5 -1 -4 -23z"/>
<path d="M3260 1549 c0 -5 5 -7 10 -4 6 3 10 8 10 11 0 2 -4 4 -10 4 -5 0 -10
-5 -10 -11z"/>
<path d="M3361 1454 c0 -11 3 -14 6 -6 3 7 2 16 -1 19 -3 4 -6 -2 -5 -13z"/>
<path d="M3432 1345 c3 -23 -8 -45 -23 -45 -6 0 -7 5 -3 11 5 8 1 8 -13 0 -11
-6 -24 -7 -28 -3 -5 4 -5 2 -1 -5 4 -7 14 -9 23 -6 11 4 14 3 9 -5 -5 -8 -1
-10 11 -5 15 6 16 4 6 -8 -10 -12 -8 -17 9 -28 19 -12 23 -11 35 5 7 10 10 25
6 34 -3 8 -6 29 -6 45 0 17 -2 24 -5 16 -4 -11 -6 -11 -14 0 -7 11 -8 9 -6 -6z
m16 -67 c-1 -18 -3 -27 -5 -20 -3 6 -10 9 -16 6 -8 -5 -8 -2 1 7 15 16 16 33
0 23 -7 -4 -8 -3 -4 4 13 22 25 12 24 -20z"/>
<path d="M3480 1204 c0 -1 12 -10 28 -20 19 -13 24 -13 15 -2 -7 8 -11 17 -8
19 2 3 -5 5 -15 5 -11 0 -20 -1 -20 -2z"/>
<path d="M2372 1256 c-8 -18 -8 -28 1 -40 11 -14 12 -11 12 24 0 22 0 40 -1
40 0 0 -6 -11 -12 -24z"/>
<path d="M2814 3355 c-15 -15 -36 -25 -54 -25 -33 0 -65 -36 -55 -63 4 -8 2
-18 -4 -22 -16 -9 -13 -55 4 -61 11 -5 12 -11 5 -24 -15 -28 14 -54 40 -37 16
9 24 9 40 -1 27 -17 30 -16 30 13 0 19 -5 25 -22 25 -12 0 -18 3 -15 7 4 4 53
7 109 8 92 1 102 3 104 21 1 10 5 29 9 40 5 16 1 26 -14 36 -12 8 -18 18 -14
21 3 4 1 7 -5 7 -7 0 -12 8 -12 18 0 10 -10 28 -23 40 -33 31 -90 30 -123 -3z"/>
<path d="M5367 3280 c-43 -15 -84 -34 -92 -40 -21 -17 -19 -53 5 -102 25 -51
25 -51 1 -38 -37 19 -54 13 -46 -17 3 -16 14 -35 23 -43 14 -14 15 -13 3 3
-12 15 -10 17 24 17 26 0 42 -7 56 -22 l18 -23 1 21 c0 26 23 47 45 42 14 -3
13 -6 -4 -25 -24 -26 -26 -33 -8 -33 6 0 18 14 26 31 15 34 3 52 -28 42 -12
-3 -12 -2 1 7 12 7 24 8 36 1 17 -9 19 -24 21 -134 l1 -125 -86 -28 c-137 -44
-147 -53 -310 -295 -76 -112 -84 -129 -79 -159 7 -41 10 -46 64 -109 24 -28
66 -64 92 -79 27 -15 49 -30 49 -34 0 -11 -94 -85 -137 -107 -33 -16 -58 -21
-110 -19 -67 2 -257 -9 -300 -18 -12 -2 -35 -15 -51 -29 -16 -14 -56 -39 -88
-55 -32 -17 -82 -50 -111 -73 -52 -41 -53 -43 -48 -85 7 -64 62 -166 127 -235
32 -34 59 -68 60 -77 2 -8 14 -17 28 -20 14 -3 46 -20 72 -38 113 -78 281
-133 355 -115 l38 9 0 70 0 69 71 1 c54 0 79 6 106 22 76 47 120 196 100 333
-15 102 -36 121 -183 164 -63 19 -107 34 -98 34 26 1 209 -48 255 -68 l41 -19
2 70 c3 99 45 292 91 413 10 28 29 77 41 110 13 33 28 63 33 67 6 4 86 8 178
8 l168 0 -6 33 c-4 17 -18 59 -31 92 -14 33 -26 71 -28 85 -1 14 -18 77 -38
140 -19 64 -40 145 -47 180 -23 132 -51 185 -117 219 -36 18 -103 11 -186 -19z
m-712 -1326 c-35 -38 -32 -82 14 -216 64 -187 93 -252 125 -280 32 -31 23 -36
-27 -14 -54 23 -73 54 -136 228 -77 211 -79 262 -16 296 11 6 30 12 42 12 l22
0 -24 -26z m332 20 c-3 -3 -12 -4 -19 -1 -8 3 -5 6 6 6 11 1 17 -2 13 -5z"/>
<path d="M2886 3121 c-3 -5 5 -8 19 -7 14 0 25 4 25 9 0 10 -38 9 -44 -2z"/>
<path d="M2954 3115 c-4 -8 -3 -27 1 -42 4 -17 2 -29 -7 -35 -10 -7 -10 -9 2
-5 9 2 15 15 15 30 -1 17 5 27 13 27 11 0 12 3 3 14 -9 11 -9 15 1 19 8 3 6 6
-5 6 -10 1 -20 -6 -23 -14z"/>
<path d="M2759 3111 c10 -7 11 -13 2 -30 -7 -11 -8 -21 -4 -21 11 0 32 47 25
55 -3 3 -12 5 -21 5 -13 0 -13 -2 -2 -9z"/>
<path d="M2896 3101 c-4 -5 -2 -12 3 -15 5 -4 12 -2 15 3 4 5 2 12 -3 15 -5 4
-12 2 -15 -3z"/>
<path d="M2750 3040 c0 -5 5 -10 10 -10 6 0 10 5 10 10 0 6 -4 10 -10 10 -5 0
-10 -4 -10 -10z"/>
<path d="M2870 3025 c0 -8 64 -45 78 -45 6 0 12 5 12 10 0 6 -8 10 -18 10 -10
0 -27 7 -38 15 -19 15 -34 19 -34 10z"/>
<path d="M2815 2951 c16 -32 75 -60 75 -37 0 8 -13 19 -30 26 -16 7 -30 16
-30 20 0 4 -7 10 -15 14 -14 5 -14 2 0 -23z"/>
<path d="M4090 2902 c-15 -18 -19 -34 -15 -52 8 -32 47 -110 55 -110 10 0 40
57 33 63 -3 4 8 2 26 -3 19 -5 29 -5 26 1 -4 5 -2 9 4 9 19 0 21 -19 4 -29
-10 -6 -13 -11 -6 -11 8 0 9 -9 3 -32 -8 -25 -6 -34 8 -45 15 -13 15 -13 -8
-8 -21 5 -22 4 -7 -5 9 -6 22 -8 27 -5 6 3 10 3 10 0 0 -3 -16 -13 -36 -21
-24 -10 -34 -20 -30 -29 3 -8 1 -17 -5 -20 -5 -4 -8 -39 -6 -81 3 -55 0 -77
-10 -86 -12 -9 -8 -15 17 -31 23 -15 34 -17 43 -8 6 6 28 11 48 11 31 0 37 4
41 25 3 14 1 28 -5 32 -6 3 -7 1 -3 -5 4 -7 3 -12 -3 -12 -6 0 -8 -7 -5 -15 4
-10 0 -15 -10 -15 -15 0 -15 3 0 33 10 17 24 37 33 44 9 7 11 13 4 13 -6 0 -9
9 -6 21 3 12 9 16 12 10 4 -6 7 13 6 42 -1 64 -8 76 -43 71 -23 -4 -30 1 -46
36 -16 33 -17 42 -6 55 11 13 11 18 1 24 -9 6 -4 15 20 32 26 18 31 20 26 6
-8 -21 0 -22 19 -2 14 13 14 15 0 15 -20 0 -20 5 0 35 9 14 24 25 33 26 12 0
11 2 -4 9 -26 11 -35 12 -33 3 2 -12 -13 -46 -30 -65 -20 -24 -37 -23 -39 2
-1 11 3 19 9 17 6 -1 13 4 16 12 3 9 0 11 -9 7 -8 -4 -5 0 5 8 14 12 16 16 5
16 -20 0 -45 -18 -36 -26 4 -4 -2 -14 -14 -22 -27 -19 -37 -7 -14 18 15 16 15
20 3 15 -10 -4 -17 1 -20 13 -3 11 -19 24 -36 30 -29 10 -34 8 -52 -16z m68
-4 c16 -16 15 -40 -1 -63 -10 -13 -21 -16 -41 -11 -24 6 -27 11 -24 39 4 45
38 63 66 35z m57 -77 c-3 -6 -11 -11 -17 -11 -6 0 -6 6 2 15 14 17 26 13 15
-4z m100 -181 c-3 -5 -1 -10 4 -10 6 0 11 -8 11 -17 0 -15 -2 -14 -14 2 -13
18 -13 35 0 35 3 0 2 -4 -1 -10z m-20 -20 c3 -6 -1 -7 -9 -4 -18 7 -21 14 -7
14 6 0 13 -4 16 -10z m-25 -20 c25 -25 25 -41 0 -68 -27 -29 -56 -28 -75 2
-14 20 -14 29 -4 48 23 43 48 49 79 18z m-54 -182 c9 -13 -1 -19 -19 -12 -24
9 -30 33 -6 27 11 -3 22 -10 25 -15z"/>
<path d="M4260 2775 c0 -8 5 -15 10 -15 6 0 10 7 10 15 0 8 -4 15 -10 15 -5 0
-10 -7 -10 -15z"/>
<path d="M4320 2766 c68 -25 103 -35 109 -32 3 2 7 -14 9 -36 2 -36 1 -39 -13
-28 -13 11 -14 10 -8 -6 3 -10 11 -22 17 -26 7 -5 7 -8 -1 -8 -7 0 -13 -5 -13
-11 0 -6 6 -9 14 -6 11 4 13 -1 9 -23 -4 -26 0 -32 33 -47 l38 -18 28 26 c25
24 27 32 22 72 -5 34 -14 50 -35 66 -25 19 -30 20 -35 6 -3 -8 -10 -12 -15 -9
-5 3 -7 8 -5 12 7 11 -39 62 -60 66 -10 3 -28 7 -39 11 -16 6 -17 5 -5 -4 13
-9 13 -11 -2 -11 -10 0 -18 5 -18 10 0 6 -15 10 -32 9 l-33 0 35 -13z m138
-82 c-3 -14 -5 -12 -10 9 -3 19 -2 25 4 19 6 -6 8 -18 6 -28z m80 -16 c17 -17
15 -42 -7 -62 -17 -15 -20 -15 -42 2 -22 19 -22 20 -6 46 19 28 36 33 55 14z
m-65 -92 c4 -10 1 -13 -8 -9 -8 3 -12 9 -9 14 7 12 11 11 17 -5z"/>
<path d="M4195 2738 c-4 -13 -13 -26 -19 -30 -7 -5 -5 -8 5 -8 10 0 20 11 23
26 9 33 0 44 -9 12z"/>
<path d="M4536 2741 c-3 -5 1 -11 9 -14 9 -4 12 -1 8 9 -6 16 -10 17 -17 5z"/>
<path d="M4146 2719 c-15 -11 -33 -19 -40 -16 -24 10 -7 -27 19 -39 19 -9 25
-9 29 2 3 9 0 11 -12 7 -14 -6 -15 -4 -5 9 7 8 10 18 6 22 -4 4 3 9 15 13 12
3 22 9 22 14 0 13 -4 11 -34 -12z m-11 -29 c-3 -5 -12 -10 -18 -10 -7 0 -6 4
3 10 19 12 23 12 15 0z"/>
<path d="M4056 2684 c-11 -28 -6 -81 8 -93 8 -7 17 -8 20 -3 3 6 -1 16 -10 23
-12 10 -14 23 -10 51 6 39 3 50 -8 22z"/>
<path d="M4161 2664 c-14 -32 -8 -42 14 -20 9 9 24 16 33 16 13 0 13 2 -4 15
-26 20 -29 19 -43 -11z"/>
<path d="M2523 2570 c0 -30 2 -43 4 -27 2 15 2 39 0 55 -2 15 -4 2 -4 -28z"/>
<path d="M4401 2598 c0 -9 -4 -25 -7 -35 -5 -17 -5 -17 6 0 6 10 9 25 7 35 -4
15 -5 15 -6 0z"/>
<path d="M4060 2564 c0 -4 10 -28 21 -52 15 -30 24 -40 30 -31 9 16 -8 52 -21
44 -6 -3 -7 0 -4 8 3 8 -2 20 -11 27 -8 7 -15 9 -15 4z"/>
<path d="M2561 2504 c0 -11 3 -14 6 -6 3 7 2 16 -1 19 -3 4 -6 -2 -5 -13z"/>
<path d="M2532 2465 c0 -16 2 -22 5 -12 2 9 2 23 0 30 -3 6 -5 -1 -5 -18z"/>
<path d="M4346 2465 c-11 -8 -15 -15 -9 -15 6 0 16 7 23 15 16 19 11 19 -14 0z"/>
<path d="M4320 2429 c0 -5 5 -7 10 -4 6 3 10 8 10 11 0 2 -4 4 -10 4 -5 0 -10
-5 -10 -11z"/>
<path d="M4427 2421 c-3 -13 -1 -18 9 -14 7 2 10 11 7 19 -7 19 -10 18 -16 -5z"/>
<path d="M2596 2417 c7 -20 82 -72 91 -63 3 3 1 6 -5 6 -7 0 -30 16 -52 36
-22 20 -38 30 -34 21z"/>
<path d="M2541 2404 c0 -11 3 -14 6 -6 3 7 2 16 -1 19 -3 4 -6 -2 -5 -13z"/>
<path d="M2551 2354 c0 -11 3 -14 6 -6 3 7 2 16 -1 19 -3 4 -6 -2 -5 -13z"/>
<path d="M2835 2317 c-8 -20 -15 -51 -14 -69 1 -31 2 -31 9 9 5 23 14 52 20
63 6 12 9 24 6 27 -3 4 -13 -10 -21 -30z"/>
<path d="M2561 2314 c0 -11 3 -14 6 -6 3 7 2 16 -1 19 -3 4 -6 -2 -5 -13z"/>
<path d="M5693 2313 c59 -2 154 -2 210 0 56 1 8 3 -108 3 -115 0 -161 -2 -102
-3z"/>
<path d="M2571 2274 c0 -11 3 -14 6 -6 3 7 2 16 -1 19 -3 4 -6 -2 -5 -13z"/>
<path d="M2581 2234 c0 -11 3 -14 6 -6 3 7 2 16 -1 19 -3 4 -6 -2 -5 -13z"/>
<path d="M5673 2233 c59 -2 154 -2 210 0 56 1 8 3 -108 3 -115 0 -161 -2 -102
-3z"/>
<path d="M2640 2195 c-12 -13 -27 -22 -31 -19 -5 3 -9 0 -9 -6 0 -19 27 -22
59 -5 34 17 34 17 25 39 -8 22 -17 20 -44 -9z"/>
<path d="M5643 2153 c59 -2 154 -2 210 0 56 1 8 3 -108 3 -115 0 -161 -2 -102
-3z"/>
<path d="M3192 1821 l5 -33 -19 23 -20 24 7 -30 c4 -16 15 -38 25 -47 17 -16
18 -14 13 35 -2 28 -7 54 -10 57 -3 3 -3 -10 -1 -29z"/>
<path d="M3650 1830 c0 -5 5 -10 10 -10 6 0 10 5 10 10 0 6 -4 10 -10 10 -5 0
-10 -4 -10 -10z"/>
<path d="M3727 1768 c19 -25 23 -47 7 -41 -7 3 -14 12 -14 21 0 8 -3 13 -6 9
-10 -10 7 -47 22 -47 8 0 19 -10 25 -22 8 -21 9 -20 5 7 -7 45 -24 85 -37 85
-8 0 -8 -4 -2 -12z"/>
<path d="M3350 1256 c0 -3 39 -35 88 -72 48 -38 134 -106 191 -153 58 -47 101
-80 97 -73 -12 20 -376 308 -376 298z"/>
<path d="M3670 1088 c-16 -17 -27 -35 -24 -40 7 -11 19 -1 19 15 0 7 12 11 25
10 24 -3 25 -2 5 13 -19 15 -19 15 8 9 22 -6 26 -4 21 9 -9 23 -22 20 -54 -16z"/>
<path d="M3710 1050 c0 -5 5 -10 11 -10 5 0 7 5 4 10 -3 6 -8 10 -11 10 -2 0
-4 -4 -4 -10z"/>
</g>
</svg>
