<?xml version="1.0" standalone="no"?>
<!DOCTYPE svg PUBLIC "-//W3C//DTD SVG 20010904//EN"
 "http://www.w3.org/TR/2001/REC-SVG-20010904/DTD/svg10.dtd">
<svg version="1.0" xmlns="http://www.w3.org/2000/svg"
 width="736.000000pt" height="736.000000pt" viewBox="0 0 736.000000 736.000000"
 preserveAspectRatio="xMidYMid meet">

<g transform="translate(0.000000,736.000000) scale(0.100000,-0.100000)"
fill="#000000" stroke="none">
<path d="M3917 6332 c-34 -13 -67 -24 -73 -25 -7 -2 -18 -8 -25 -14 -8 -6
-201 -86 -429 -178 -228 -92 -419 -171 -425 -176 -5 -5 -14 -9 -20 -9 -5 0 -4
4 3 9 9 5 -6 16 -46 34 -68 31 -91 33 -132 12 -38 -20 -50 -43 -50 -97 l0 -44
-145 -59 c-80 -32 -148 -62 -150 -66 -8 -12 288 -151 310 -146 35 9 90 32 100
43 11 11 175 104 262 148 29 14 54 22 57 18 3 -5 -6 -52 -20 -106 -13 -55 -24
-102 -24 -106 0 -6 107 -56 229 -107 l33 -14 -7 229 -7 229 41 21 c38 20 42
21 69 5 46 -26 81 -3 47 31 -18 18 -22 15 135 100 102 55 106 57 132 42 14 -9
33 -16 41 -16 22 0 28 27 10 46 -20 19 -34 9 164 116 84 46 149 86 145 90 -4
3 -42 8 -85 10 -64 3 -90 -1 -140 -20z m-869 -477 c-3 -3 -9 2 -12 12 -6 14
-5 15 5 6 7 -7 10 -15 7 -18z"/>
<path d="M1425 6163 c-11 -3 -24 -10 -30 -15 -7 -8 -6 -9 1 -4 7 3 44 0 84 -8
61 -11 72 -11 77 1 3 8 4 16 1 18 -7 7 -112 14 -133 8z"/>
<path d="M1710 6095 c0 -14 5 -25 10 -25 6 0 10 11 10 25 0 14 -4 25 -10 25
-5 0 -10 -11 -10 -25z"/>
<path d="M1760 6075 c0 -14 2 -25 4 -25 2 0 11 -3 20 -6 12 -5 16 0 16 19 0
14 -7 28 -16 31 -23 9 -24 8 -24 -19z"/>
<path d="M1830 6045 c0 -14 2 -25 4 -25 2 0 11 -3 20 -6 12 -5 16 0 16 19 0
14 -7 28 -16 31 -23 9 -24 8 -24 -19z"/>
<path d="M1900 6021 c0 -21 23 -45 33 -34 13 12 7 41 -9 47 -23 9 -24 8 -24
-13z"/>
<path d="M1970 5986 c0 -27 28 -43 36 -21 6 16 -12 45 -27 45 -5 0 -9 -11 -9
-24z"/>
<path d="M2040 5956 c0 -17 5 -26 16 -26 10 0 14 7 12 22 -5 32 -28 35 -28 4z"/>
<path d="M2110 5926 c0 -17 5 -26 16 -26 10 0 14 7 12 22 -5 32 -28 35 -28 4z"/>
<path d="M5293 5926 c-85 -28 -153 -86 -195 -166 -32 -62 -34 -216 -3 -270 40
-72 247 -337 270 -348 21 -10 29 -7 55 15 18 15 29 32 26 40 -3 8 -2 12 3 9 9
-6 51 47 51 64 0 6 5 8 10 5 6 -3 10 1 10 9 0 9 5 16 11 16 6 0 8 7 5 16 -3 8
-2 13 3 9 10 -5 101 108 101 125 0 6 5 10 11 10 6 0 9 9 6 20 -3 10 0 18 5 17
18 -4 39 94 33 152 -12 112 -82 211 -181 257 -67 30 -163 39 -221 20z m147
-167 c8 -2 29 -19 47 -38 56 -61 53 -148 -7 -206 -24 -23 -41 -30 -87 -33 -49
-3 -63 0 -95 21 -20 14 -40 22 -44 19 -4 -4 -4 -2 -1 4 4 7 0 28 -8 48 -27 63
11 157 75 184 23 10 81 10 120 1z"/>
<path d="M2177 5895 c7 -32 36 -34 31 -3 -2 13 -10 24 -19 26 -13 2 -15 -3
-12 -23z"/>
<path d="M1290 5870 c11 -16 26 -33 32 -36 7 -4 -1 9 -16 29 -34 44 -46 50
-16 7z"/>
<path d="M2242 5868 c2 -12 11 -24 21 -26 14 -3 18 1 15 20 -2 12 -11 24 -21
26 -14 3 -18 -1 -15 -20z"/>
<path d="M2312 5838 c2 -12 11 -24 21 -26 14 -3 18 1 15 20 -2 12 -11 24 -21
26 -14 3 -18 -1 -15 -20z"/>
<path d="M2380 5818 c0 -17 2 -18 15 -8 8 7 15 14 15 15 0 2 -7 5 -15 9 -10 4
-15 -1 -15 -16z"/>
<path d="M1350 5816 c0 -2 8 -10 18 -17 15 -13 16 -12 3 4 -13 16 -21 21 -21
13z"/>
<path d="M1420 5766 c0 -3 9 -10 20 -16 11 -6 20 -8 20 -6 0 3 -9 10 -20 16
-11 6 -20 8 -20 6z"/>
<path d="M1490 5726 c0 -3 9 -10 20 -16 11 -6 20 -8 20 -6 0 3 -9 10 -20 16
-11 6 -20 8 -20 6z"/>
<path d="M1667 5629 c7 -7 15 -10 18 -7 3 3 -2 9 -12 12 -14 6 -15 5 -6 -5z"/>
<path d="M2860 5601 c0 -10 7 -21 15 -25 11 -4 15 1 15 19 0 16 -6 25 -15 25
-8 0 -15 -9 -15 -19z"/>
<path d="M2930 5576 c0 -13 7 -26 15 -30 11 -4 15 1 15 18 0 13 -7 26 -15 30
-11 4 -15 -1 -15 -18z"/>
<path d="M3673 5512 c-111 -48 -205 -90 -208 -94 -4 -3 13 -18 37 -32 l44 -25
217 111 c119 61 217 115 217 120 0 4 -24 8 -52 8 -44 -1 -88 -16 -255 -88z"/>
<path d="M2990 5546 c0 -17 5 -26 16 -26 10 0 14 7 12 22 -5 32 -28 35 -28 4z"/>
<path d="M1880 5530 c8 -5 20 -10 25 -10 6 0 3 5 -5 10 -8 5 -19 10 -25 10 -5
0 -3 -5 5 -10z"/>
<path d="M3052 5518 c4 -31 35 -37 33 -6 -1 13 -9 24 -19 26 -13 3 -17 -2 -14
-20z"/>
<path d="M1924 5511 c4 -5 -18 -28 -49 -51 l-55 -41 -45 16 c-69 23 -118 20
-154 -11 -26 -22 -31 -33 -31 -71 0 -24 5 -53 10 -63 9 -17 -14 -36 -191 -162
l-202 -143 50 -8 c46 -7 60 -4 165 37 63 26 120 46 125 46 6 0 31 -9 56 -20
69 -31 107 -3 51 37 l-26 19 98 38 c55 21 117 47 139 57 22 9 78 32 124 50 69
26 89 30 115 22 41 -13 56 -7 56 22 0 23 27 36 150 78 10 4 11 6 2 6 -12 1
-274 101 -355 136 -22 9 -36 12 -33 6z"/>
<path d="M3120 5490 c0 -11 5 -20 10 -20 6 0 10 9 10 20 0 11 -4 20 -10 20 -5
0 -10 -9 -10 -20z"/>
<path d="M2983 5177 c-34 -23 -62 -45 -63 -49 -1 -22 78 -4 150 34 44 23 78
43 77 44 -1 1 -24 4 -52 7 -47 6 -54 4 -112 -36z"/>
<path d="M3530 5098 c-35 -18 -51 -35 -72 -77 -37 -71 -49 -84 -125 -127 -85
-47 -103 -77 -103 -174 0 -91 -18 -133 -89 -213 -97 -110 -115 -182 -63 -253
16 -21 36 -45 46 -53 34 -28 46 -68 46 -153 0 -86 15 -128 46 -128 11 0 14 21
14 113 1 206 18 491 33 537 22 72 65 153 109 204 l41 47 46 -44 c108 -105 206
-108 410 -12 51 25 105 45 120 45 36 -1 101 -32 129 -63 29 -31 32 -104 8
-162 -44 -104 -41 -348 6 -472 49 -133 138 -151 154 -32 3 24 13 55 21 68 14
21 20 23 74 19 88 -6 129 -55 129 -155 0 -99 -62 -163 -156 -163 l-54 0 0 -96
0 -97 43 7 c62 10 179 69 231 116 42 39 93 108 85 114 -2 1 -16 10 -31 19
l-28 17 39 35 c41 37 59 75 36 75 -28 0 -60 22 -72 47 -18 37 -16 67 7 141 11
35 20 78 20 95 0 30 -36 117 -48 117 -4 1 -17 9 -30 20 l-22 18 21 37 c17 28
20 47 17 90 -6 65 -18 82 -113 144 l-70 45 55 7 c69 7 93 20 119 63 33 53 28
108 -13 154 -30 32 -40 37 -79 37 -58 0 -91 -24 -129 -95 -28 -52 -48 -74 -48
-51 0 21 -126 145 -167 163 -36 16 -65 18 -185 17 -102 -1 -162 3 -208 15 -91
22 -147 20 -200 -6z"/>
<path d="M1781 4524 c0 -11 3 -14 6 -6 3 7 2 16 -1 19 -3 4 -6 -2 -5 -13z"/>
<path d="M3796 4523 c-41 -22 -21 -29 97 -36 107 -6 121 3 56 35 -42 22 -114
22 -153 1z"/>
<path d="M3341 4489 c-12 -12 -20 -23 -18 -26 3 -2 42 -1 86 3 79 6 81 7 65
25 -25 27 -103 26 -133 -2z"/>
<path d="M2196 4448 c-33 -29 -39 -41 -43 -85 -5 -43 -1 -59 20 -96 14 -24 39
-58 55 -75 17 -18 32 -39 36 -47 3 -8 12 -15 19 -15 20 0 129 148 138 187 10
46 -5 94 -41 128 -24 23 -41 29 -87 33 -54 4 -61 2 -97 -30z m129 -37 c-3 -6
1 -13 9 -18 31 -18 19 -97 -17 -109 -26 -9 -44 -7 -74 8 -18 9 -23 20 -23 48
0 44 22 67 70 73 19 2 36 5 38 5 2 1 1 -2 -3 -7z"/>
<path d="M3811 4340 c-41 -26 -34 -36 15 -20 21 7 55 10 83 6 42 -6 44 -5 30
10 -27 26 -89 28 -128 4z"/>
<path d="M3343 4335 c-30 -21 -30 -40 -1 -24 13 7 46 9 86 6 58 -4 63 -3 49
10 -23 23 -107 28 -134 8z"/>
<path d="M3602 4268 c-41 -110 -93 -289 -90 -311 3 -19 9 -22 53 -23 41 -1 43
0 10 3 -22 3 -43 9 -46 15 -4 6 2 36 12 67 64 186 115 393 61 249z"/>
<path d="M3390 4191 c-14 -26 -3 -50 26 -57 30 -8 54 11 54 41 0 38 -62 50
-80 16z"/>
<path d="M3820 4191 c-14 -26 -3 -50 26 -57 30 -8 54 11 54 41 0 38 -62 50
-80 16z"/>
<path d="M2580 3996 c-25 -12 -154 -77 -287 -144 -133 -67 -246 -122 -252
-122 -6 0 -11 -4 -11 -8 0 -5 -27 -21 -60 -37 -62 -30 -71 -45 -46 -80 7 -11
73 -138 145 -283 102 -202 143 -272 176 -305 35 -35 45 -53 55 -102 6 -33 22
-83 35 -111 21 -47 27 -52 65 -58 24 -4 52 -17 67 -32 22 -22 25 -32 21 -69
-3 -24 -1 -48 3 -52 5 -5 11 -57 13 -116 2 -97 1 -110 -20 -145 -13 -20 -24
-46 -24 -57 -1 -42 -45 -72 -138 -96 -46 -11 -56 -19 -81 -60 -89 -144 -223
-113 -297 70 -18 43 -20 60 -12 75 11 20 10 21 -9 3 -12 -10 -28 -39 -38 -65
-19 -52 -81 -206 -96 -237 -5 -11 -11 -29 -14 -40 -3 -11 -11 -47 -20 -80 -8
-33 -15 -79 -15 -103 0 -54 29 -174 41 -166 5 3 7 -1 4 -8 -7 -19 68 -164 84
-160 7 1 10 -2 6 -8 -7 -11 22 -45 39 -45 6 -1 10 -6 8 -13 -3 -17 45 -59 86
-74 21 -8 31 -17 27 -26 -3 -7 -5 -19 -5 -27 0 -9 -15 -12 -50 -12 -42 1 -55
-4 -78 -26 l-27 -27 -5 -303 c-3 -166 -2 -321 1 -345 7 -51 40 -89 84 -98 28
-5 34 -11 39 -42 8 -52 30 -78 86 -107 l49 -25 1375 0 1375 0 -10 33 c-5 17
-12 59 -14 92 -3 33 -17 154 -31 268 -14 115 -23 211 -21 213 3 3 33 -2 67
-11 34 -9 68 -14 75 -11 7 2 16 2 20 -2 12 -12 102 -31 231 -48 114 -15 139
-16 194 -4 76 16 132 56 178 125 47 72 55 113 49 245 -4 101 -15 156 -92 460
-47 190 -90 359 -96 375 -5 17 -31 113 -58 215 -27 102 -53 193 -56 203 -10
25 16 22 126 -14 130 -43 292 -123 433 -213 65 -42 120 -75 121 -74 1 2 7 19
14 38 11 32 10 37 -14 58 -39 33 -199 124 -290 165 -99 44 -226 82 -334 98
-51 8 -81 17 -81 25 0 7 -3 19 -6 27 -3 10 2 17 13 20 16 4 15 5 -2 6 -17 1
-25 15 -43 79 -39 134 -107 258 -182 332 -36 36 -85 75 -110 87 -75 35 -191
74 -203 66 -7 -3 -8 -2 -4 2 4 5 -88 44 -205 87 -143 53 -219 86 -230 101 -17
22 -18 22 -18 1 0 -11 -16 -35 -35 -54 -20 -19 -33 -40 -30 -48 2 -7 0 -10 -5
-7 -12 7 -76 -44 -72 -57 1 -5 -2 -7 -8 -3 -6 4 -21 0 -33 -7 -25 -16 -97 -43
-141 -53 -52 -11 -200 -7 -249 9 -92 28 -157 98 -157 170 0 35 -2 38 -22 31
-93 -28 -231 -57 -273 -56 -75 2 -115 7 -124 17 -9 10 -142 267 -291 562 -111
220 -129 242 -200 241 -19 0 -55 -10 -80 -23z m86 -251 c3 -38 -11 -48 -21
-15 -3 11 -10 20 -15 20 -5 0 -8 -9 -7 -20 1 -11 5 -20 9 -20 4 0 8 -5 8 -11
0 -6 -9 -9 -20 -6 -11 3 -18 1 -15 -3 3 -5 1 -11 -5 -15 -6 -3 -13 2 -17 12
-6 16 -8 15 -13 -7 -5 -21 -12 -25 -41 -25 -26 0 -36 -5 -44 -23 -5 -12 -15
-20 -22 -18 -6 3 -14 -2 -17 -10 -3 -8 -13 -14 -21 -14 -9 0 -23 -7 -32 -15
-8 -9 -28 -19 -44 -22 -16 -3 -29 -9 -29 -14 0 -22 -19 -6 -25 21 -10 43 2 54
34 31 18 -13 32 -17 42 -10 11 7 9 9 -8 9 -27 0 -32 34 -7 44 21 8 33 -2 15
-13 -9 -6 -5 -10 14 -13 19 -4 23 -2 16 5 -17 17 -13 35 11 48 18 10 20 9 15
-5 -4 -10 -1 -16 7 -16 9 0 12 7 9 19 -3 13 2 21 17 26 12 4 24 4 27 1 4 -3
13 3 21 15 10 14 21 19 37 15 17 -4 22 -2 21 11 0 10 8 19 19 21 11 2 22 7 25
11 8 10 45 29 49 25 2 -2 5 -19 7 -39z m-382 -181 c5 -13 -19 -64 -30 -64 -2
0 -11 14 -20 31 -13 26 -14 33 -2 40 21 14 45 10 52 -7z m445 -114 c138 -63
165 -248 51 -343 -80 -68 -196 -55 -269 29 -41 46 -52 77 -52 141 0 58 16 95
58 135 64 61 133 73 212 38z m159 -22 c5 -25 -25 -23 -38 3 -10 18 -9 20 12
17 12 -2 24 -11 26 -20z m48 -3 c8 -20 -16 -49 -29 -36 -11 11 0 51 14 51 5 0
12 -7 15 -15z m44 -38 c0 -17 -29 -57 -41 -57 -15 0 -10 37 7 54 19 19 34 21
34 3z m-70 -12 c7 -9 10 -18 7 -21 -11 -11 -57 6 -57 21 0 20 34 19 50 0z m11
-56 c16 -16 23 -18 34 -9 8 7 19 9 25 5 14 -9 -17 -45 -38 -45 -20 0 -62 39
-62 57 0 19 17 16 41 -8z m-4 -59 c4 -15 11 -18 29 -14 30 8 34 -20 5 -36 -21
-11 -54 -3 -46 10 3 5 1 11 -5 15 -13 8 -13 45 1 45 6 0 13 -9 16 -20z m-509
-74 c3 -20 0 -27 -10 -24 -7 3 -14 17 -16 32 -3 20 0 27 10 24 7 -3 14 -17 16
-32z m42 -38 c0 -13 -4 -30 -10 -38 -6 -9 -5 -17 2 -21 21 -13 -29 -30 -57
-19 -31 12 -24 30 11 30 13 0 24 5 24 10 0 6 -10 10 -23 10 -23 0 -47 17 -47
32 0 13 35 9 49 -4 10 -11 14 -10 22 5 14 24 29 21 29 -5z m38 -76 c3 -37 1
-42 -23 -48 -33 -8 -57 11 -25 21 14 4 21 14 19 28 -2 38 1 49 14 45 6 -3 13
-23 15 -46z m52 -24 c12 -22 12 -29 1 -42 -14 -17 -51 -22 -51 -7 0 5 7 14 15
21 11 9 13 16 5 24 -14 14 -13 39 3 34 6 -3 19 -16 27 -30z m1495 -377 c39
-11 180 -49 315 -86 135 -36 322 -87 415 -111 133 -35 175 -50 192 -70 12 -13
25 -24 28 -24 13 0 37 -31 45 -60 6 -22 3 -51 -11 -102 -11 -39 -18 -77 -15
-85 3 -8 2 -12 -2 -9 -11 7 -65 -181 -58 -200 3 -8 2 -13 -3 -10 -13 8 -83
-243 -76 -273 4 -20 3 -22 -5 -11 -13 21 -12 5 5 -60 8 -30 12 -56 10 -59 -5
-4 -632 116 -661 126 -6 2 -32 -69 -64 -174 -29 -98 -68 -225 -86 -282 -19
-58 -34 -112 -34 -121 0 -11 16 -20 48 -28 26 -7 143 -38 260 -70 232 -62 217
-53 196 -119 -5 -17 -4 -17 10 1 9 11 16 28 16 38 0 21 28 24 53 6 15 -12 15
-16 -5 -46 -20 -32 -52 -52 -85 -52 -13 0 -13 3 -2 18 11 14 11 15 -1 4 -22
-19 -65 -14 -210 24 -74 19 -299 78 -500 130 -436 113 -418 102 -380 222 20
63 20 63 0 84 -23 25 -26 80 -6 101 13 12 13 20 0 57 -15 43 -11 100 7 100 5
0 9 20 9 45 0 33 6 50 22 65 17 16 22 30 19 61 -3 47 26 85 59 76 13 -3 17 -1
13 10 -4 9 14 34 45 66 51 52 52 54 113 252 33 110 85 278 114 374 30 95 61
182 71 192 21 24 50 24 139 0z m-308 -377 c-3 -3 -12 -4 -19 -1 -8 3 -5 6 6 6
11 1 17 -2 13 -5z m-306 -1231 c13 -16 12 -17 -3 -4 -17 13 -22 21 -14 21 2 0
10 -8 17 -17z"/>
<path d="M2526 3693 c-11 -11 -6 -23 9 -23 8 0 15 4 15 9 0 13 -16 22 -24 14z"/>
<path d="M2639 3429 c34 -15 47 -17 58 -8 21 18 -2 29 -57 28 l-45 0 44 -20z"/>
<path d="M2716 3411 c-16 -17 -15 -20 9 -49 23 -28 29 -30 51 -20 30 14 30 29
2 55 -36 32 -44 34 -62 14z"/>
<path d="M2589 3403 c25 -44 28 -46 50 -34 29 16 26 27 -10 40 -44 15 -51 14
-40 -6z"/>
<path d="M2551 3387 c-20 -52 -9 -71 29 -47 12 8 12 13 -2 42 l-16 33 -11 -28z"/>
<path d="M2500 3360 c-23 -45 -22 -54 2 -45 14 6 33 73 23 83 -2 2 -13 -15
-25 -38z"/>
<path d="M2653 3357 c-32 -23 -32 -24 -14 -50 l17 -26 37 22 37 22 -23 28 -22
28 -32 -24z"/>
<path d="M2782 3327 c-17 -8 -22 -16 -18 -31 3 -12 6 -29 6 -38 0 -13 8 -18
30 -18 27 0 30 3 30 34 0 37 -8 66 -19 65 -3 0 -16 -5 -29 -12z"/>
<path d="M2568 3314 c-27 -14 -34 -36 -22 -68 5 -14 11 -13 45 4 44 23 43 20
27 55 -13 29 -14 29 -50 9z"/>
<path d="M2493 3293 c-14 -5 -18 -79 -4 -87 4 -3 15 0 24 7 13 9 15 21 11 50
-7 37 -9 40 -31 30z"/>
<path d="M2693 3283 c-38 -19 -38 -20 -15 -51 14 -18 24 -22 45 -17 27 7 35
32 21 69 -7 19 -10 19 -51 -1z"/>
<path d="M2598 3234 c-33 -17 -34 -24 -10 -54 15 -19 22 -21 38 -12 45 26 46
27 33 55 -14 31 -23 32 -61 11z"/>
<path d="M2784 3212 c-6 -4 -14 -27 -18 -52 l-7 -44 25 23 c14 13 29 36 35 52
8 25 7 29 -7 29 -9 0 -22 -4 -28 -8z"/>
<path d="M2511 3191 c-12 -8 -12 -13 3 -36 21 -32 42 -41 61 -25 12 10 11 16
-7 41 -23 31 -34 34 -57 20z"/>
<path d="M2713 3194 c-9 -4 -8 -15 5 -41 16 -34 17 -34 23 -12 15 54 8 67 -28
53z"/>
<path d="M2652 3162 l-23 -18 36 -17 c59 -28 65 -19 23 35 -12 16 -14 16 -36
0z"/>
<path d="M2591 3116 c-10 -12 -6 -16 26 -25 75 -21 102 -6 36 19 -21 8 -41 16
-44 18 -3 1 -11 -4 -18 -12z"/>
<path d="M3530 1189 c0 -5 5 -7 10 -4 6 3 10 8 10 11 0 2 -4 4 -10 4 -5 0 -10
-5 -10 -11z"/>
<path d="M3759 3873 c-16 -43 -59 -82 -96 -89 -24 -5 -31 -10 -24 -17 17 -17
86 10 115 44 15 18 26 43 26 60 0 36 -7 37 -21 2z"/>
<path d="M5420 3550 c0 -5 7 -7 15 -4 8 4 15 8 15 10 0 2 -7 4 -15 4 -8 0 -15
-4 -15 -10z"/>
<path d="M5366 3405 c-9 -26 -7 -32 5 -12 6 10 9 21 6 23 -2 3 -7 -2 -11 -11z"/>
<path d="M5336 3325 c-9 -26 -7 -32 5 -12 6 10 9 21 6 23 -2 3 -7 -2 -11 -11z"/>
<path d="M1330 3056 c0 -13 54 -106 62 -106 5 0 6 -5 2 -12 -5 -8 -2 -9 10 -5
10 4 21 7 25 7 11 0 46 68 39 75 -3 4 -12 8 -20 9 -14 3 -37 11 -76 27 -24 10
-42 12 -42 5z"/>
<path d="M1703 2933 c-8 -3 -11 -14 -7 -29 13 -52 -17 -95 -70 -98 -12 -1 -20
-10 -23 -24 -2 -13 -7 -32 -13 -42 -10 -19 -64 -43 -74 -33 -3 4 -6 2 -6 -3 0
-5 17 -22 38 -39 20 -16 122 -101 225 -188 104 -88 190 -158 191 -156 32 37
56 96 61 150 3 35 13 91 21 123 12 48 12 62 2 71 -32 30 -328 275 -330 274 -2
0 -9 -3 -15 -6z"/>
<path d="M5438 2523 c23 -2 61 -2 85 0 23 2 4 4 -43 4 -47 0 -66 -2 -42 -4z"/>
</g>
</svg>
